<?xml version="1.0" encoding="UTF-8"?>
<svg width="144px" height="168px" viewBox="0 0 144 168" version="1.1" xmlns="http://www.w3.org/2000/svg" xmlns:xlink="http://www.w3.org/1999/xlink">
    <!-- Generator: Sketch 52.3 (67297) - http://www.bohemiancoding.com/sketch -->
    <title>face-instruction-disabled</title>
    <desc>Created with Sketch.</desc>
    <g id="face-instruction-disabled" stroke="none" stroke-width="1" fill="none" fill-rule="evenodd">
        <g id="Group-2-Copy">
            <g id="Group" transform="translate(2.000000, 2.000000)">
                <g id="face-instruction-disabled" transform="translate(6.000000, 24.000000)" stroke="#bdc0cf" stroke-linecap="round" stroke-linejoin="round" stroke-width="2">
                    <g id="Icon_face">
                        <path d="M64.5,118.119048 C101.094675,118.119048 111,97.9202768 111,65.3026024 C111,32.6849281 91.739645,2.62276973e-14 64.5,2.62276973e-14 C37.260355,3.04646077e-14 18,32.6849281 18,65.3026024 C18,97.9202768 27.9053254,118.119048 64.5,118.119048 Z" id="Oval-2-Copy" transform="translate(64.500000, 59.059524) rotate(-180.000000) translate(-64.500000, -59.059524) "></path>
                        <path d="M35,111.285714 C20.532987,116.857143 8.86632033,125.642857 0,137.642857" id="Path-10"></path>
                        <path d="M129,111.285714 C114.532987,116.857143 102.86632,125.642857 94,137.642857" id="Path-10-Copy" transform="translate(111.500000, 124.464286) scale(-1, 1) translate(-111.500000, -124.464286) "></path>
                    </g>
                </g>
                <path d="M70,2 C68.8954305,2 68,1.1045695 68,4.4408921e-16 C68,-1.1045695 68.8954305,-2 70,-2 C73.4554498,-2 76.8810852,-1.75644205 80.2594883,-1.27434699 C81.3529805,-1.11830665 82.1129354,-0.105360386 81.956895,0.988131814 C81.8008547,2.08162401 80.7879084,2.8415789 79.6944162,2.68553855 C76.5030429,2.23013248 73.2662364,2 70,2 Z M89.1862038,4.74378242 C88.1263479,4.43268879 87.5193561,3.32131461 87.8304497,2.26145871 C88.1415433,1.2016028 89.2529175,0.594611047 90.3127734,0.905704672 C93.6126782,1.87430741 96.8322837,3.07812845 99.9502346,4.50622357 C100.954478,4.9661906 101.3957,6.15316739 100.935733,7.15741045 C100.475766,8.1616535 99.2887896,8.6028764 98.2845466,8.14290937 C95.3408665,6.79463439 92.3014098,5.65817156 89.1862038,4.74378242 Z M106.803305,12.8102477 C105.875028,12.2116028 105.607809,10.9737881 106.206453,10.0455112 C106.805098,9.11723418 108.042913,8.85001453 108.97119,9.44865937 C111.854974,11.308409 114.603052,13.3722325 117.193952,15.6227524 C118.027855,16.3471007 118.116666,17.6103126 117.392317,18.444215 C116.667969,19.2781174 115.404757,19.3669286 114.570855,18.6425802 C112.123232,16.5165147 109.527259,14.5669228 106.803305,12.8102477 Z M121.474942,25.5648015 C120.752785,24.729001 120.844911,23.4660266 121.680711,22.7438691 C122.516511,22.0217117 123.779486,22.1138375 124.501643,22.9496379 C126.745632,25.5467544 128.802455,28.3005991 130.654779,31.1896736 C131.250959,32.1195359 130.980456,33.3566372 130.050593,33.9528166 C129.120731,34.5489961 127.88363,34.2784928 127.28745,33.3486305 C125.537798,30.6196953 123.59483,28.0182874 121.474942,25.5648015 Z M131.907311,41.8253592 C131.449139,40.820296 131.892482,39.6341093 132.897545,39.1759371 C133.902608,38.7177649 135.088795,39.1611076 135.546967,40.1661708 C136.969342,43.2863449 138.167314,46.5078031 139.129983,49.8092102 C139.43919,50.8696178 138.830223,51.9799105 137.769815,52.2891183 C136.709407,52.5983261 135.599115,51.9893583 135.289907,50.9289507 C134.381121,47.8123286 133.250182,44.7711293 131.907311,41.8253592 Z M137.337864,60.4710347 C137.184513,59.3771621 137.946957,58.3660879 139.040829,58.2127373 C140.134702,58.0593867 141.145776,58.8218304 141.299127,59.9157031 C141.763088,63.2252096 141.998276,66.5796636 141.999991,69.9636658 L142,70.2056209 C142.000042,71.3101904 141.104645,72.2056549 140.000076,72.2056969 C138.895506,72.2057388 138.000042,71.3103423 138,70.2057728 L137.999991,69.9647555 C137.99837,66.7669372 137.776145,63.5973606 137.337864,60.4710347 Z M138,80.2056969 C138,79.1011274 138.895431,78.2056969 140,78.2056969 C141.104569,78.2056969 142,79.1011274 142,80.2056969 L142,90.2056969 C142,91.3102664 141.104569,92.2056969 140,92.2056969 C138.895431,92.2056969 138,91.3102664 138,90.2056969 L138,80.2056969 Z M137.736814,100.025517 C137.833389,98.9251778 138.803679,98.1114651 139.904018,98.2080393 C141.004358,98.3046134 141.818071,99.2749037 141.721497,100.375243 C141.419819,103.812474 140.8744,107.205293 140.091903,110.534763 C139.839191,111.610036 138.762647,112.276852 137.687374,112.02414 C136.612102,111.771428 135.945285,110.694884 136.197998,109.619612 C136.936828,106.475939 137.451872,103.272071 137.736814,100.025517 Z M133.294688,118.906433 C133.699436,117.878691 134.860699,117.373656 135.88844,117.778404 C136.916182,118.183153 137.421217,119.344415 137.016469,120.372157 C135.757764,123.568273 134.271431,126.666983 132.570483,129.646426 C132.022849,130.605681 130.801274,130.939366 129.842019,130.391732 C128.882763,129.844098 128.549078,128.622523 129.096712,127.663268 C130.7029,124.84981 132.106301,121.923997 133.294688,118.906433 Z M123.692093,135.73244 C124.370574,134.860811 125.627187,134.704233 126.498816,135.382714 C127.370445,136.061195 127.527023,137.317808 126.848542,138.189437 C124.740909,140.897065 122.442493,143.45216 119.97233,145.834127 C119.177216,146.600852 117.911095,146.577838 117.14437,145.782724 C116.377645,144.98761 116.400659,143.721489 117.195773,142.954764 C119.529512,140.70435 121.700969,138.290392 123.692093,135.73244 Z M109.718941,149.20067 C110.61498,148.554769 111.86497,148.757545 112.510871,149.653584 C113.156772,150.549623 112.953995,151.799612 112.057956,152.445513 C109.273406,154.45273 106.348805,156.259238 103.30609,157.849584 C102.327171,158.36124 101.118821,157.982447 100.607166,157.003528 C100.095511,156.024609 100.474303,154.81626 101.453222,154.304604 C104.326669,152.80273 107.088831,151.09656 109.718941,149.20067 Z M92.5699098,158.165364 C93.6119015,157.798858 94.7537149,158.346447 95.1202213,159.388439 C95.4867278,160.43043 94.9391387,161.572244 93.8971469,161.93875 C90.665741,163.075353 87.3506032,163.980347 83.972159,164.644844 C82.8883546,164.858015 81.8369485,164.152227 81.623778,163.068422 C81.4106074,161.984618 82.1163955,160.933212 83.2002,160.720041 C86.3897865,160.09269 89.5193683,159.238351 92.5699098,158.165364 Z M73.5043371,161.911309 C74.6074875,161.855335 75.547143,162.70424 75.6031165,163.80739 C75.65909,164.910541 74.8101854,165.850196 73.707035,165.90617 C72.4817308,165.968341 71.2520571,165.999683 70.0182696,165.999998 C67.7928216,166 65.59504,165.900622 63.4113117,165.702445 C62.3112629,165.602613 61.5004266,164.629918 61.6002583,163.529869 C61.7000899,162.42982 62.6727852,161.618984 63.7728341,161.718815 C65.8362756,161.906077 67.9134248,162 70.0177567,161.999998 C71.1837691,161.9997 72.346196,161.970072 73.5043371,161.911309 Z M54.1760757,160.149644 C55.2505569,160.405699 55.9140231,161.484311 55.6579689,162.558792 C55.4019146,163.633273 54.3233024,164.29674 53.2488212,164.040685 C49.9005876,163.242784 46.6230101,162.206292 43.4369771,160.940985 C42.4104015,160.533288 41.9087007,159.370581 42.316397,158.344006 C42.7240933,157.31743 43.8868004,156.815729 44.913376,157.223425 C47.921132,158.417932 51.015206,159.396393 54.1760757,160.149644 Z M36.1845711,153.009583 C37.1424094,153.559692 37.4729396,154.782125 36.922831,155.739963 C36.3727223,156.697801 35.1502897,157.028331 34.1924514,156.478223 C31.2152769,154.768363 28.3639699,152.847276 25.6603382,150.731287 C24.7905002,150.050512 24.637235,148.793491 25.3180108,147.923653 C25.9987865,147.053815 27.2558074,146.90055 28.1256454,147.581325 C30.679541,149.580123 33.372739,151.394683 36.1845711,153.009583 Z M20.8846222,141.028647 C21.6486497,141.826353 21.6213474,143.092389 20.8236408,143.856417 C20.0259342,144.620444 18.7598986,144.593142 17.9958711,143.795435 C15.621972,141.316892 13.4267203,138.672248 11.4284441,135.882549 C10.7852259,134.984582 10.9917403,133.735205 11.889707,133.091987 C12.7876736,132.448769 14.0370508,132.655283 14.680269,133.55325 C16.5679716,136.188582 18.6418777,138.68704 20.8846222,141.028647 Z M9.62238547,125.313139 C10.1317581,126.293248 9.75015106,127.500711 8.77004225,128.010084 C7.78993343,128.519457 6.58247014,128.13785 6.07309749,127.157741 C4.49111937,124.11378 3.12831645,120.958326 1.99678527,117.71307 C1.63312408,116.670082 2.1838274,115.529767 3.22681556,115.166106 C4.26980373,114.802445 5.41011834,115.353148 5.77377954,116.396136 C6.84202651,119.459892 8.12867956,122.439027 9.62238547,125.313139 Z M3.23745483,106.982212 C3.44706655,108.06671 2.7378308,109.115794 1.65333244,109.325405 C0.56883407,109.535017 -0.480249438,108.825781 -0.689861164,107.741283 C-1.33811019,104.387344 -1.74843776,100.97742 -1.914947,97.5297784 C-1.9682318,96.4264949 -1.11703966,95.488911 -0.0137561469,95.4356262 C1.08952737,95.3823414 2.02711123,96.2335336 2.08039603,97.3368171 C2.23771432,100.594157 2.62527734,103.814901 3.23745483,106.982212 Z M2,87.3829094 C2,88.4874789 1.1045695,89.3829094 0,89.3829094 C-1.1045695,89.3829094 -2,88.4874789 -2,87.3829094 L-2,77.3829094 C-2,76.2783399 -1.1045695,75.3829094 0,75.3829094 C1.1045695,75.3829094 2,76.2783399 2,77.3829094 L2,87.3829094 Z M2.0467084,67.4552711 C2.00611997,68.5590947 1.07839079,69.421017 -0.025432729,69.3804286 C-1.12925625,69.3398401 -1.99117859,68.412111 -1.95059016,67.3082874 C-1.8236955,63.8573207 -1.4528728,60.4421771 -0.843808577,57.0809376 C-0.646865213,55.9940673 0.393871408,55.2726389 1.48074173,55.4695823 C2.56761205,55.6665257 3.28904038,56.7072623 3.09209702,57.7941326 C2.51688837,60.9685336 2.16661073,64.1944646 2.0467084,67.4552711 Z M5.50692456,48.3845334 C5.15604667,49.4318912 4.02255264,49.9964998 2.97519478,49.6456219 C1.92783692,49.294744 1.36322835,48.16125 1.71410624,47.1138921 C2.80628369,43.8537818 4.13086979,40.6811789 5.67604221,37.6177184 C6.17347962,36.6314984 7.37622156,36.2352619 8.36244152,36.7326993 C9.34866147,37.2301367 9.74489801,38.4328786 9.2474606,39.4190986 C7.78854561,42.311545 6.53800277,45.3068021 5.50692456,48.3845334 Z M14.2296185,31.0835439 C13.5967141,31.9888095 12.3497809,32.2096019 11.4445153,31.5766975 C10.5392497,30.9437931 10.3184574,29.6968599 10.9513618,28.7915943 C12.91797,25.9786849 15.0833395,23.3087092 17.4293469,20.802837 C18.184251,19.9964912 19.4498941,19.9547894 20.2562399,20.7096935 C21.0625857,21.4645976 21.1042875,22.7302408 20.3493834,23.5365866 C18.1330119,25.9039891 16.0873681,28.4263388 14.2296185,31.0835439 Z M27.5312179,16.889243 C26.6689876,17.5796289 25.4103435,17.4403215 24.7199576,16.5780912 C24.0295717,15.7158609 24.1688791,14.4572168 25.0311094,13.7668309 C27.7108931,11.621134 30.5404376,9.66860156 33.4979954,7.92579378 C34.44963,7.3650216 35.6756779,7.68187816 36.23645,8.63351273 C36.7972222,9.58514729 36.4803657,10.8111952 35.5287311,11.3719674 C32.7353504,13.0180301 30.0626405,14.8623386 27.5312179,16.889243 Z M44.1620579,7.08018597 C43.1404481,7.50017074 41.9718048,7.01245729 41.55182,5.9908475 C41.1318352,4.9692377 41.6195487,3.8005944 42.6411585,3.38060963 C45.811872,2.07712627 49.076466,1.0014357 52.4139371,0.163581685 C53.4852631,-0.105368891 54.5717719,0.545084896 54.8407225,1.61641088 C55.109673,2.68773687 54.4592193,3.77424569 53.3878933,4.04319627 C50.2372129,4.83415748 47.1553858,5.84962599 44.1620579,7.08018597 Z M63.0081429,2.35491861 C61.9092865,2.46711582 60.9275335,1.66727045 60.8153363,0.568413965 C60.703139,-0.530442516 61.5029844,-1.51219551 62.6018409,-1.62439272 C65.0395065,-1.87328716 67.4984379,-1.99906413 69.9727143,-1.9999949 L69.9996238,-1.99999996 C71.1041933,-2.00020773 71.9997922,-1.10494567 72,-0.000376187197 C72.0002077,1.10419329 71.1049457,1.9997922 70.0003762,1.99999996 L69.9738429,2.00000492 C67.6351954,2.0008847 65.3113694,2.11975089 63.0081429,2.35491861 Z" id="Rectangle" fill="#bdc0cf" fill-rule="nonzero"></path>
            </g>
            <rect id="Rectangle" x="0" y="0" width="144" height="168"></rect>
        </g>
    </g>
</svg>