<?xml version="1.0" encoding="utf-8"?>
<!-- Generator: Adobe Illustrator 18.0.0, SVG Export Plug-In . SVG Version: 6.00 Build 0)  -->
<!DOCTYPE svg PUBLIC "-//W3C//DTD SVG 1.1//EN" "http://www.w3.org/Graphics/SVG/1.1/DTD/svg11.dtd">
<svg version="1.1" id="Layer_1" xmlns="http://www.w3.org/2000/svg" xmlns:xlink="http://www.w3.org/1999/xlink" x="0px" y="0px"
	 viewBox="0 0 65 65.5" enable-background="new 0 0 65 65.5" xml:space="preserve">
<g>
	<path fill="#3555A6" d="M17.9,34.6c-1.6,0-2.5-1.2-2.5-2.6c0-1.6,1-2.8,2.7-2.8c1.6,0,2.5,1.2,2.5,2.6
		C20.6,33.4,19.6,34.6,17.9,34.6z M18,30.5c-0.5,0-0.8,0.5-0.8,1.3c0,1,0.3,1.4,0.8,1.4c0.5,0,0.8-0.4,0.8-1.3
		C18.8,30.9,18.5,30.5,18,30.5z"/>
	<path fill="#3555A6" d="M22,34.4c0-0.4,0.1-1.1,0.1-1.6V31l-0.9,0.2L21,29.8c0.1,0,1.5-0.3,1.6-0.4l0.7-0.2l0.7,0.1
		c0,0.3,0,0.7,0,1.1v3c0,0.3,0,0.7,0,1H22z"/>
	<path fill="#3555A6" d="M27.3,34.6c-1.6,0-2.5-1.2-2.5-2.6c0-1.6,1-2.8,2.7-2.8c1.6,0,2.5,1.2,2.5,2.6C30,33.4,29,34.6,27.3,34.6z
		 M27.4,30.5c-0.5,0-0.8,0.5-0.8,1.3c0,1,0.3,1.4,0.8,1.4c0.5,0,0.8-0.4,0.8-1.3C28.2,30.9,27.9,30.5,27.4,30.5z"/>
	<path fill="#3555A6" d="M31.4,34.4c0-0.4,0.1-1.1,0.1-1.6V31l-0.9,0.2l-0.2-1.3c0.1,0,1.5-0.3,1.6-0.4l0.7-0.2l0.7,0.1
		c0,0.3,0,0.7,0,1.1v3c0,0.3,0,0.7,0,1H31.4z"/>
	<path fill="#3555A6" d="M36.7,34.6c-1.6,0-2.5-1.2-2.5-2.6c0-1.6,1-2.8,2.7-2.8c1.6,0,2.5,1.2,2.5,2.6
		C39.4,33.4,38.4,34.6,36.7,34.6z M36.8,30.5c-0.5,0-0.8,0.5-0.8,1.3c0,1,0.3,1.4,0.8,1.4c0.5,0,0.8-0.4,0.8-1.3
		C37.6,30.9,37.3,30.5,36.8,30.5z"/>
	<path fill="#3555A6" d="M40.8,34.4c0-0.4,0.1-1.1,0.1-1.6V31l-0.9,0.2l-0.2-1.3c0.1,0,1.5-0.3,1.6-0.4l0.7-0.2l0.7,0.1
		c0,0.3,0,0.7,0,1.1v3c0,0.3,0,0.7,0,1H40.8z"/>
	<path fill="#3555A6" d="M16.8,41.5c-1.6,0-2.5-1.2-2.5-2.6c0-1.6,1-2.8,2.7-2.8c1.6,0,2.5,1.2,2.5,2.6
		C19.5,40.2,18.5,41.5,16.8,41.5z M16.9,37.4c-0.5,0-0.8,0.5-0.8,1.3c0,1,0.3,1.4,0.8,1.4c0.5,0,0.8-0.4,0.8-1.3
		C17.7,37.7,17.4,37.4,16.9,37.4z"/>
	<path fill="#3555A6" d="M22.6,41.5c-1.6,0-2.5-1.2-2.5-2.6c0-1.6,1-2.8,2.7-2.8c1.6,0,2.5,1.2,2.5,2.6
		C25.3,40.2,24.3,41.5,22.6,41.5z M22.7,37.4c-0.5,0-0.8,0.5-0.8,1.3c0,1,0.3,1.4,0.8,1.4c0.5,0,0.8-0.4,0.8-1.3
		C23.5,37.7,23.2,37.4,22.7,37.4z"/>
	<path fill="#3555A6" d="M26.7,41.3c0-0.4,0.1-1.1,0.1-1.6v-1.8L25.8,38l-0.2-1.3c0.1,0,1.5-0.3,1.6-0.4l0.7-0.2l0.7,0.1
		c0,0.3,0,0.7,0,1.1v3c0,0.3,0,0.7,0,1H26.7z"/>
	<path fill="#3555A6" d="M32,41.5c-1.6,0-2.5-1.2-2.5-2.6c0-1.6,1-2.8,2.7-2.8c1.6,0,2.5,1.2,2.5,2.6C34.7,40.2,33.7,41.5,32,41.5z
		 M32.1,37.4c-0.5,0-0.8,0.5-0.8,1.3c0,1,0.3,1.4,0.8,1.4c0.5,0,0.8-0.4,0.8-1.3C32.9,37.7,32.6,37.4,32.1,37.4z"/>
	<path fill="#3555A6" d="M36.1,41.3c0-0.4,0.1-1.1,0.1-1.6v-1.8L35.2,38l-0.2-1.3c0.1,0,1.5-0.3,1.6-0.4l0.7-0.2l0.7,0.1
		c0,0.3,0,0.7,0,1.1v3c0,0.3,0,0.7,0,1H36.1z"/>
	<path fill="#3555A6" d="M41.4,41.5c-1.6,0-2.5-1.2-2.5-2.6c0-1.6,1-2.8,2.7-2.8c1.6,0,2.5,1.2,2.5,2.6
		C44.1,40.2,43.1,41.5,41.4,41.5z M41.5,37.4c-0.5,0-0.8,0.5-0.8,1.3c0,1,0.3,1.4,0.8,1.4c0.5,0,0.8-0.4,0.8-1.3
		C42.3,37.7,42,37.4,41.5,37.4z"/>
</g>
<g>
	<path fill="#3555A6" d="M29.6,10.4l-0.5-1.9c-0.4-1.4-1.4-2.5-2.8-2.8l-1.8-0.5l1.8-0.5c1.4-0.4,2.5-1.5,2.8-2.9L29.6,0L30,1.9
		c0.4,1.4,1.4,2.5,2.8,2.8l1.8,0.5l-1.8,0.5c-1.4,0.4-2.5,1.5-2.8,2.8L29.6,10.4z M27.7,5.2c0.8,0.4,1.4,1.1,1.9,1.9
		c0.4-0.8,1.1-1.4,1.9-1.9c-0.8-0.4-1.4-1.1-1.9-1.9C29.1,4.1,28.5,4.8,27.7,5.2z"/>
</g>
<path fill="#3555A6" d="M35.7,11.1c0,0-5.8,0-6.2,0c-1.8,0-3.5,0.3-5.2,0.9c-1.1-1-1.9-2.3-2.3-3.8l-1-3.8l-1,3.8
	c-0.7,2.7-2.8,4.9-5.5,5.6l-3.6,1l3.6,1c0.8,0.2,1.5,0.6,2.2,1L16.4,17l-0.8,0.9c-3.9,4.3-6.4,10.5-6.4,17.4
	c0,5.4,1.5,10.4,4.1,14.4c3.5,5.7,8.9,9.5,15.3,9.8l7.1,0c11.1,0,20-10.9,20-24.2S46.8,11.1,35.7,11.1z M21,11.1l3.7,3.7
	c-1.5,0.9-2.8,2.1-3.7,3.7c-0.2-0.3-2.3-2.7-3.7-3.7C18.9,13.9,20.2,12.6,21,11.1z M35.3,56.8c0.4-1.3,1.4-2.3,2.8-2.7l1.8-0.5
	l-1.6-0.4c3-2.2,5.4-5.6,6.8-9.7c0.1-0.3,0-0.5-0.3-0.6c-0.3-0.1-0.5,0-0.6,0.3c-1.4,4.2-3.9,7.5-7,9.6c-0.9-0.5-1.6-1.4-1.9-2.5
	l-0.5-1.9l-0.5,1.9c-0.4,1.4-1.4,2.5-2.8,2.9l-1.8,0.5l1.8,0.5c0.5,0.1,1,0.4,1.4,0.7c-1.2,0.3-2.4,0.5-3.7,0.5
	c-3.3,0-6.4-1.2-9-3.3l0.5-1.9c0.2-1,1-1.7,2-2l1.8-0.5l-1.8-0.5c-1-0.3-1.7-1-2-2l-0.5-1.9l-0.5,1.9c-0.3,1-1,1.7-2,2l-1.4,0.4
	c-0.8-1.4-1.6-2.8-2.1-4.5c-0.1-0.3-0.4-0.4-0.6-0.3c-0.3,0.1-0.4,0.4-0.3,0.6c2.7,7.9,8.9,12.9,16,12.9c1.5,0,3-0.3,4.5-0.7
	c0.3,0.4,0.5,0.8,0.6,1.3l0,0.2c-0.4,0.1-0.8,0.3-1.2,0.4h-3.5l-0.5,0c-9.7-0.3-17.6-10.2-17.6-22.2c0-5.7,1.7-11,4.8-15.1l2.1-2.1
	c0.1,0.1,0.2,0.3,0.3,0.4c-2.4,2.2-4.3,5.1-5.5,8.6c-0.1,0.3,0,0.5,0.3,0.6c0.3,0.1,0.5,0,0.6-0.3c1.1-3.3,2.9-6,5.1-8
	c0.3,0.6,0.6,1.2,0.8,1.9l1,3.8l1-3.8c0.7-2.7,2.8-4.9,5.5-5.6l1.7-0.5c6.5,0,12.4,4.8,14.9,12.3c0.1,0.2,0.3,0.3,0.5,0.3
	c0.1,0,0.1,0,0.2,0c0.3-0.1,0.4-0.4,0.3-0.6c-2.7-7.8-8.9-12.9-15.8-12.9l-1.7-0.5c-0.3-0.1-0.6-0.2-0.9-0.3c1-0.2,2-0.3,3-0.3
	c0.4,0,3.8,0,3.8,0c8.4,2.3,14.7,11.4,14.7,22.2C48.1,45.3,42.7,53.8,35.3,56.8z M34.7,55.6c-0.4-0.8-1.1-1.4-1.9-1.9
	c0.8-0.4,1.4-1.1,1.9-1.9c0.4,0.8,1.1,1.4,1.9,1.9C35.8,54.1,35.2,54.8,34.7,55.6z M19.1,47.7c0.4-0.3,0.8-0.7,1.1-1.1
	c0.3,0.5,0.7,0.8,1.1,1.1c-0.4,0.3-0.8,0.7-1.1,1.1C19.9,48.4,19.5,48,19.1,47.7z M20.2,52.1c-1.4-1.1-2.7-2.6-3.7-4.2l1.3,0.3
	c1,0.3,1.7,1,2,2L20.2,52.1z M36.2,57.6c7.5-3.4,12.9-12.1,12.9-22.2c0-10.1-5.3-18.7-12.8-22.2c9.7,0.4,17.4,10.2,17.4,22.2
	C53.7,47.4,45.9,57.3,36.2,57.6z"/>
</svg>
