<?xml version="1.0" encoding="UTF-8" standalone="no"?>
<svg width="65px" height="60px" viewBox="0 0 65 60" version="1.1" xmlns="http://www.w3.org/2000/svg" xmlns:xlink="http://www.w3.org/1999/xlink" xmlns:sketch="http://www.bohemiancoding.com/sketch/ns">
    <!-- Generator: Sketch 3.3.2 (12043) - http://www.bohemiancoding.com/sketch -->
    <title>bank-tick</title>
    <desc>Created with Sketch.</desc>
    <defs/>
    <g id="Page-1" stroke="none" stroke-width="1" fill="none" fill-rule="evenodd" sketch:type="MSPage">
        <g id="developers-copy-32" sketch:type="MSArtboardGroup" transform="translate(-519.000000, -580.000000)">
            <g id="bank-tick" sketch:type="MSLayerGroup" transform="translate(519.000000, 580.000000)">
                <path d="M30.3,32.8 L27,32.8 C26.7,32.8 26.5,32.6 26.5,32.3 L26.5,27 C26.5,25.8 27.5,24.8 28.7,24.8 C29.9,24.8 30.9,25.8 30.9,27 L30.9,32.3 C30.8,32.6 30.6,32.8 30.3,32.8 L30.3,32.8 Z M27.5,31.8 L29.8,31.8 L29.8,27 C29.8,26.4 29.3,25.8 28.6,25.8 C27.9,25.8 27.4,26.3 27.4,27 L27.4,31.8 L27.5,31.8 Z" id="Shape" fill="#1DB670" sketch:type="MSShapeGroup"/>
                <path d="M37.6,32.8 L34.3,32.8 C34,32.8 33.8,32.6 33.8,32.3 L33.8,27 C33.8,25.8 34.8,24.8 36,24.8 C37.2,24.8 38.2,25.8 38.2,27 L38.2,32.3 C38.1,32.6 37.9,32.8 37.6,32.8 L37.6,32.8 Z M34.8,31.8 L37.1,31.8 L37.1,27 C37.1,26.4 36.6,25.8 35.9,25.8 C35.3,25.8 34.7,26.3 34.7,27 L34.7,31.8 L34.8,31.8 Z" id="Shape" fill="#1DB670" sketch:type="MSShapeGroup"/>
                <path d="M16.1,32.8 L12.8,32.8 C12.5,32.8 12.3,32.6 12.3,32.3 L12.3,27 C12.3,25.8 13.3,24.8 14.5,24.8 C15.7,24.8 16.7,25.8 16.7,27 L16.7,32.3 C16.6,32.6 16.4,32.8 16.1,32.8 L16.1,32.8 Z M13.3,31.8 L15.6,31.8 L15.6,27 C15.6,26.4 15.1,25.8 14.4,25.8 C13.7,25.8 13.2,26.3 13.2,27 L13.2,31.8 L13.3,31.8 Z" id="Shape" fill="#1DB670" sketch:type="MSShapeGroup"/>
                <path d="M16.1,46.5 L12.8,46.5 C12.5,46.5 12.3,46.3 12.3,46 L12.3,40.7 C12.3,39.5 13.3,38.5 14.5,38.5 C15.7,38.5 16.7,39.5 16.7,40.7 L16.7,46 C16.6,46.3 16.4,46.5 16.1,46.5 L16.1,46.5 Z M13.3,45.5 L15.6,45.5 L15.6,40.7 C15.6,40.1 15.1,39.5 14.4,39.5 C13.7,39.5 13.2,40 13.2,40.7 L13.2,45.5 L13.3,45.5 Z" id="Shape" fill="#1DB670" sketch:type="MSShapeGroup"/>
                <path d="M39.3,43.6 C39,43.6 38.8,43.4 38.8,43.1 C38.8,39.8 36.1,37 32.7,37 C29.4,37 26.6,39.7 26.6,43.1 C26.6,43.4 26.4,43.6 26.1,43.6 C25.8,43.6 25.6,43.4 25.6,43.1 C25.6,39.2 28.8,36 32.7,36 C36.6,36 39.8,39.2 39.8,43.1 C39.8,43.3 39.6,43.6 39.3,43.6 L39.3,43.6 Z" id="Shape" fill="#1DB670" sketch:type="MSShapeGroup"/>
                <path d="M32.5,15.7 C29.5,15.7 27.1,13.3 27.1,10.3 C27.1,7.3 29.5,4.9 32.5,4.9 C35.5,4.9 37.9,7.3 37.9,10.3 C37.9,13.3 35.5,15.7 32.5,15.7 L32.5,15.7 Z M32.5,5.9 C30.1,5.9 28.1,7.9 28.1,10.3 C28.1,12.7 30.1,14.7 32.5,14.7 C34.9,14.7 36.9,12.7 36.9,10.3 C36.9,7.9 34.9,5.9 32.5,5.9 L32.5,5.9 Z" id="Shape" fill="#1DB670" sketch:type="MSShapeGroup"/>
                <path d="M12.4,23.9 L12.4,21.5 L3.7,21.5 L3.7,23.9 L5.4,23.9 L5.5,50.2 L3.6,50.2 L3.6,52.6 L12.3,52.6 L12.3,50.2 L10.6,50.2 L10.6,23.9 L12.4,23.9 Z" id="Shape" fill="#FFFFFF" sketch:type="MSShapeGroup"/>
                <path d="M33,7.6 C33.4,7.7 33.7,7.8 33.9,8 C34.2,8.2 34.3,8.6 34.4,9 L33.5,9 C33.4,8.6 33.2,8.4 32.9,8.3 L32.9,10 C33.1,10.1 33.3,10.2 33.5,10.3 C33.7,10.4 33.9,10.5 34,10.6 C34.1,10.7 34.3,10.9 34.3,11 C34.4,11.2 34.4,11.3 34.4,11.5 C34.4,11.7 34.4,11.9 34.3,12.1 C34.2,12.3 34.1,12.4 34,12.5 C33.9,12.6 33.7,12.7 33.5,12.8 C33.4,12.9 33.2,13 33,13 L33,13.9 L32.1,13.9 L32.1,13 C31.9,13 31.7,12.9 31.6,12.8 C31.4,12.7 31.3,12.6 31.2,12.4 C31.1,12.2 31,12.1 30.9,11.9 C30.8,11.7 30.7,11.5 30.7,11.3 L31.7,11.3 C31.7,11.5 31.8,11.7 31.9,11.9 C32,12.1 32.1,12.2 32.2,12.3 L32.2,10.5 C32,10.4 31.9,10.3 31.7,10.2 C31.5,10.1 31.4,10 31.3,9.9 C31.2,9.8 31.1,9.7 31,9.5 C30.9,9.4 30.9,9.2 30.9,9 C30.9,8.8 30.9,8.7 31,8.5 C31.1,8.4 31.2,8.2 31.3,8.1 C31.4,8 31.6,7.9 31.7,7.8 C31.9,7.7 32,7.7 32.2,7.6 L32.2,7 L33,7 L33,7.6 L33,7.6 Z M31.5,8.9 C31.5,9 31.5,9.1 31.6,9.1 C31.6,9.2 31.7,9.2 31.7,9.3 C31.7,9.4 31.8,9.4 31.9,9.4 C32,9.4 32,9.5 32.1,9.5 L32.1,8.2 C31.9,8.3 31.8,8.3 31.7,8.4 C31.6,8.6 31.5,8.7 31.5,8.9 L31.5,8.9 Z M33.7,11.5 C33.7,11.4 33.6,11.2 33.5,11.1 C33.4,11 33.2,10.9 33,10.8 L33,12.3 C33.3,12.2 33.5,12.1 33.6,12 C33.7,11.9 33.7,11.7 33.7,11.5 L33.7,11.5 Z" id="Shape" fill="#1DB670" sketch:type="MSShapeGroup"/>
                <path d="M63.3,54.1 L63.3,52.6 C63.3,52 62.9,51.6 62.3,51.6 L62,51.6 L62,50.2 C62,49.6 61.6,49.2 61,49.2 L60.3,49.2 L60.3,44.7 C59.7,45.1 59,45.4 58.3,45.7 L58.3,49.3 L57.2,49.3 L57.2,46 C56.9,46.1 56.5,46.1 56.2,46.2 L56.2,49.3 L55.2,49.3 L55.2,46.3 L54.8,46.3 C54.2,46.3 53.7,46.2 53.2,46.2 L53.2,49.3 L52.4,49.3 C51.8,49.3 51.4,49.7 51.4,50.3 L51.4,52.7 C51.4,52.7 51.4,52.7 51.4,52.8 L49,52.8 C49,52.8 49,52.8 49,52.7 L49,50.3 C49,49.7 48.6,49.3 48,49.3 L47.3,49.3 L47.3,43.1 C46.4,42.2 45.8,41.1 45.3,39.9 L45.3,49.4 L44.2,49.4 L44.2,25 L45.3,25 L45.3,32.3 C45.8,31.1 46.4,30 47.3,29.1 L47.3,24.9 L48,24.9 C48.6,24.9 49,24.5 49,23.9 L49,21.5 L49,21.4 L51.3,21.4 L51.3,21.5 L51.3,23.9 C51.3,24.5 51.7,24.9 52.3,24.9 L53.1,24.9 L53.1,25.9 C53.6,25.8 54.2,25.8 54.8,25.8 L55.1,25.8 L55.1,25 L56.2,25 L56.2,25.9 C56.5,25.9 56.9,26 57.2,26.1 L57.2,25.1 L58.3,25.1 L58.3,26.5 C59,26.8 59.7,27.1 60.3,27.5 L60.3,25 L61,25 C61.6,25 62,24.6 62,24 L62,21.7 L62.1,21.7 C62.7,21.7 63.1,21.3 63.1,20.7 L63.1,17.7 C63.1,17.1 62.7,16.7 62.1,16.7 L61,16.7 L33.5,0.7 C32.7,0.2 31.6,0.2 30.7,0.7 L3.2,16.6 L1.2,16.6 C0.6,16.6 0.2,17 0.2,17.6 L0.2,20.6 C0.2,21.2 0.6,21.6 1.2,21.6 L2.3,21.6 L2.3,23.9 C2.3,24.5 2.7,24.9 3.3,24.9 L4.1,24.9 L4.1,49.2 L3.3,49.2 C2.7,49.2 2.3,49.6 2.3,50.2 L2.3,51.6 L2,51.6 C1.4,51.6 1,52 1,52.6 L1,54.1 C0.4,54.1 0,54.5 0,55.1 L0,58.9 C0,59.5 0.4,59.9 1,59.9 L63.3,59.9 C63.9,59.9 64.3,59.5 64.3,58.9 L64.3,55.1 C64.3,54.5 63.8,54.1 63.3,54.1 L63.3,54.1 Z M53.3,51.2 L54.1,51.2 C54.4,51.2 54.6,51.1 54.8,50.9 C55,50.7 55.1,50.5 55.1,50.3 L58.3,50.3 C58.3,50.8 58.8,51.2 59.3,51.2 L60,51.2 L60,51.6 L53.3,51.6 L53.3,51.2 L53.3,51.2 Z M45.3,50.2 C45.3,50.7 45.8,51.1 46.3,51.1 L47,51.1 L47,51.5 L40.3,51.5 L40.3,51.1 L41.1,51.1 C41.4,51.1 41.6,51 41.8,50.8 C42,50.6 42.1,50.4 42.1,50.2 L45.3,50.2 L45.3,50.2 Z M42.1,25 L43.2,25 L43.2,49.2 L42.2,49.2 L42.1,25 L42.1,25 Z M47,22.9 L46.2,22.9 C45.9,22.9 45.7,23 45.5,23.2 C45.3,23.4 45.2,23.6 45.2,23.9 L45.2,24 L42.1,24 L42.1,23.9 C42.1,23.3 41.7,22.9 41.1,22.9 L40.3,22.9 L40.3,22.5 L47,22.5 L47,22.9 L47,22.9 Z M60,22.9 L59.2,22.9 C58.9,22.9 58.7,23 58.5,23.2 C58.3,23.4 58.2,23.6 58.2,23.9 L58.2,24 L55.1,24 L55.1,23.9 C55.1,23.3 54.7,22.9 54.1,22.9 L53.3,22.9 L53.3,22.5 L60,22.5 L60,22.9 L60,22.9 Z M31.7,2.4 C31.9,2.3 32.2,2.3 32.5,2.4 L56.8,16.4 L7.4,16.4 L31.7,2.4 L31.7,2.4 Z M2.2,19.5 L2.2,18.5 L61.1,18.5 L61.1,19.5 L58.7,19.5 C58.2,19.5 57.8,19.9 57.7,20.4 L6.7,20.4 C6.6,19.9 6.2,19.5 5.7,19.5 L2.2,19.5 L2.2,19.5 Z M38.3,52.6 L35.8,52.6 L35.8,43 C35.8,41 34.1,39.3 32.1,39.3 C30.1,39.3 28.4,41 28.4,43 L28.4,52.6 L26,52.6 C26,52.6 26,52.6 26,52.5 L26,50.1 C26,49.5 25.6,49.1 25,49.1 L24.3,49.1 L24.3,24.8 L25,24.8 C25.6,24.8 26,24.4 26,23.8 L26,21.4 L26,21.3 L38.3,21.3 L38.3,21.4 L38.3,23.8 C38.3,24.4 38.7,24.8 39.3,24.8 L40.1,24.8 L40.1,49.1 L39.3,49.1 C38.7,49.1 38.3,49.5 38.3,50.1 L38.3,52.6 L38.3,52.6 L38.3,52.6 Z M34.8,43 L34.8,52.6 L29.4,52.6 L29.4,43 C29.4,41.5 30.6,40.3 32.1,40.3 C33.6,40.3 34.8,41.5 34.8,43 L34.8,43 Z M19.1,50.2 L22.3,50.2 C22.3,50.7 22.8,51.1 23.3,51.1 L24,51.1 L24,51.5 L17.3,51.5 L17.3,51.1 L18.1,51.1 C18.4,51.1 18.6,51 18.8,50.8 C19,50.7 19.1,50.5 19.1,50.2 L19.1,50.2 Z M19.1,25 L20.2,25 L20.2,49.2 L19.2,49.2 L19.1,25 L19.1,25 Z M21.1,49.2 L21.1,25 L22.2,25 L22.2,49.2 L21.1,49.2 L21.1,49.2 Z M23.2,22.9 C22.9,22.9 22.7,23 22.5,23.2 C22.3,23.4 22.2,23.6 22.2,23.9 L22.2,24 L19.1,24 L19.1,23.9 C19.1,23.3 18.7,22.9 18.1,22.9 L17.3,22.9 L17.3,22.5 L24,22.5 L24,22.9 L23.2,22.9 L23.2,22.9 Z M15.3,52.6 L13,52.6 C13,52.6 13,52.6 13,52.5 L13,50.1 C13,49.5 12.6,49.1 12,49.1 L11.3,49.1 L11.3,24.8 L12,24.8 C12.6,24.8 13,24.4 13,23.8 L13,21.4 L13,21.3 L15.3,21.3 L15.3,21.4 L15.3,23.8 C15.3,24.4 15.7,24.8 16.3,24.8 L17.1,24.8 L17.1,49.1 L16.3,49.1 C15.7,49.1 15.3,49.5 15.3,50.1 L15.3,52.6 L15.3,52.6 L15.3,52.6 Z M6.1,50.2 L9.3,50.2 C9.3,50.7 9.8,51.1 10.3,51.1 L11,51.1 L11,51.5 L4.3,51.5 L4.3,51.1 L5.1,51.1 C5.4,51.1 5.6,51 5.8,50.8 C6,50.7 6.1,50.5 6.1,50.2 L6.1,50.2 Z M6.1,25 L7.2,25 L7.2,49.2 L6.2,49.2 L6.1,25 L6.1,25 Z M8.1,49.2 L8.1,25 L9.2,25 L9.2,49.2 L8.1,49.2 L8.1,49.2 Z M10.2,22.9 C9.9,22.9 9.7,23 9.5,23.2 C9.3,23.4 9.2,23.6 9.2,23.9 L9.2,24 L6.1,24 L6.1,23.9 C6.1,23.3 5.7,22.9 5.1,22.9 L4.3,22.9 L4.3,22.5 L11,22.5 L11,22.9 L10.2,22.9 L10.2,22.9 Z M3,55.1 L3,53.7 L29,53.7 L35.4,53.7 L61.3,53.7 L61.3,55.1 C61.3,55.1 61.3,55.1 61.3,55.2 L3,55.1 L3,55.1 L3,55.1 Z M2,57.8 L2,56.1 L62.3,56.1 L62.3,57.8 L2,57.8 L2,57.8 Z" id="Shape" fill="#1DB670" sketch:type="MSShapeGroup"/>
                <path d="M54.7,25.8 C49,25.8 44.4,30.4 44.4,36.1 C44.4,41.8 49,46.4 54.7,46.4 C60.4,46.4 65,41.7 65,36 C65,30.3 60.4,25.8 54.7,25.8 L54.7,25.8 Z M60.6,33.9 L54,40.8 C53.7,41.1 53.3,41.1 53,40.8 L48.9,36.8 C48.8,36.7 48.7,36.4 48.9,36.3 L51.1,33.6 C51.2,33.5 51.5,33.4 51.6,33.6 L53.2,35.3 L53.3,35.3 L57.4,31 C57.5,30.9 57.8,30.8 57.9,31 L60.5,33.4 C60.7,33.6 60.7,33.8 60.6,33.9 L60.6,33.9 Z" id="Shape" fill="#1DB670" sketch:type="MSShapeGroup"/>
                <path d="M51,45.5 L49.3,45.5 L49.3,44.6 C49,44.4 48.6,44.1 48.3,43.9 L48.3,46 C48.3,46.3 48.5,46.5 48.8,46.5 L52.1,46.5 C52.4,46.5 52.6,46.3 52.6,46 C52.1,45.9 51.5,45.7 51,45.5 L51,45.5 Z" id="Shape" fill="#1DB670" sketch:type="MSShapeGroup"/>
                <path d="M49.3,27.3 L49.3,27 C49.3,26.4 49.8,25.8 50.5,25.8 C50.9,25.8 51.2,26 51.4,26.3 C51.7,26.2 52.1,26.1 52.4,26 C52,25.3 51.3,24.8 50.5,24.8 C49.3,24.8 48.3,25.8 48.3,27 L48.3,28 C48.6,27.8 49,27.5 49.3,27.3 L49.3,27.3 Z" id="Shape" fill="#1DB670" sketch:type="MSShapeGroup"/>
            </g>
        </g>
    </g>
</svg>