<?xml version="1.0" encoding="utf-8"?>
<!-- Generator: Adobe Illustrator 18.0.0, SVG Export Plug-In . SVG Version: 6.00 Build 0)  -->
<!DOCTYPE svg PUBLIC "-//W3C//DTD SVG 1.1//EN" "http://www.w3.org/Graphics/SVG/1.1/DTD/svg11.dtd">
<svg version="1.1" id="Layer_1" xmlns="http://www.w3.org/2000/svg" xmlns:xlink="http://www.w3.org/1999/xlink" x="0px" y="0px"
	 viewBox="0 0 65 65" enable-background="new 0 0 65 65" xml:space="preserve">
<path fill="#3555A6" d="M30.3,35.8H27c-0.3,0-0.5-0.2-0.5-0.5V30c0-1.2,1-2.2,2.2-2.2s2.2,1,2.2,2.2v5.3
	C30.8,35.6,30.6,35.8,30.3,35.8z M27.5,34.8h2.3V30c0-0.6-0.5-1.2-1.2-1.2s-1.2,0.5-1.2,1.2V34.8z"/>
<path fill="#3555A6" d="M37.6,35.8h-3.3c-0.3,0-0.5-0.2-0.5-0.5V30c0-1.2,1-2.2,2.2-2.2s2.2,1,2.2,2.2v5.3
	C38.1,35.6,37.9,35.8,37.6,35.8z M34.8,34.8h2.3V30c0-0.6-0.5-1.2-1.2-1.2c-0.6,0-1.2,0.5-1.2,1.2V34.8z"/>
<path fill="#3555A6" d="M16.1,35.8h-3.3c-0.3,0-0.5-0.2-0.5-0.5V30c0-1.2,1-2.2,2.2-2.2s2.2,1,2.2,2.2v5.3
	C16.6,35.6,16.4,35.8,16.1,35.8z M13.3,34.8h2.3V30c0-0.6-0.5-1.2-1.2-1.2s-1.2,0.5-1.2,1.2V34.8z"/>
<path fill="#3555A6" d="M16.1,49.5h-3.3c-0.3,0-0.5-0.2-0.5-0.5v-5.3c0-1.2,1-2.2,2.2-2.2s2.2,1,2.2,2.2V49
	C16.6,49.3,16.4,49.5,16.1,49.5z M13.3,48.5h2.3v-4.8c0-0.6-0.5-1.2-1.2-1.2s-1.2,0.5-1.2,1.2V48.5z"/>
<path fill="#3555A6" d="M52.1,35.8h-3.3c-0.3,0-0.5-0.2-0.5-0.5V30c0-1.2,1-2.2,2.2-2.2s2.2,1,2.2,2.2v5.3
	C52.6,35.6,52.4,35.8,52.1,35.8z M49.3,34.8h2.3V30c0-0.6-0.5-1.2-1.2-1.2s-1.2,0.5-1.2,1.2V34.8z"/>
<path fill="#3555A6" d="M52.1,49.5h-3.3c-0.3,0-0.5-0.2-0.5-0.5v-5.3c0-1.2,1-2.2,2.2-2.2s2.2,1,2.2,2.2V49
	C52.6,49.3,52.4,49.5,52.1,49.5z M49.3,48.5h2.3v-4.8c0-0.6-0.5-1.2-1.2-1.2s-1.2,0.5-1.2,1.2V48.5z"/>
<path fill="#3555A6" d="M39.3,46.6c-0.3,0-0.5-0.2-0.5-0.5c0-3.3-2.7-6.1-6.1-6.1c-3.3,0-6.1,2.7-6.1,6.1c0,0.3-0.2,0.5-0.5,0.5
	s-0.5-0.2-0.5-0.5c0-3.9,3.2-7.1,7.1-7.1s7.1,3.2,7.1,7.1C39.8,46.3,39.6,46.6,39.3,46.6z"/>
<path fill="#3555A6" d="M32.5,18.7c-3,0-5.4-2.4-5.4-5.4s2.4-5.4,5.4-5.4c3,0,5.4,2.4,5.4,5.4S35.5,18.7,32.5,18.7z M32.5,8.9
	c-2.4,0-4.4,2-4.4,4.4s2,4.4,4.4,4.4s4.4-2,4.4-4.4S34.9,8.9,32.5,8.9z"/>
<polygon fill="#FFFFFF" points="12.4,26.9 12.4,24.5 3.7,24.5 3.7,26.9 5.4,26.9 5.5,53.2 3.6,53.2 3.6,55.6 12.3,55.6 12.3,53.2 
	10.6,53.2 10.6,26.9 "/>
<g>
	<path fill="#3456A5" d="M33,10.6c0.4,0.1,0.7,0.2,0.9,0.4c0.3,0.2,0.4,0.6,0.5,1h-0.9c-0.1-0.4-0.3-0.6-0.6-0.7V13
		c0.2,0.1,0.4,0.2,0.6,0.3c0.2,0.1,0.4,0.2,0.5,0.3c0.1,0.1,0.3,0.3,0.3,0.4c0.1,0.2,0.1,0.3,0.1,0.5c0,0.2,0,0.4-0.1,0.6
		c-0.1,0.2-0.2,0.3-0.3,0.4c-0.1,0.1-0.3,0.2-0.5,0.3C33.4,15.9,33.2,16,33,16v0.9h-0.9V16c-0.2,0-0.4-0.1-0.5-0.2
		c-0.2-0.1-0.3-0.2-0.4-0.4c-0.1-0.2-0.2-0.3-0.3-0.5c-0.1-0.2-0.2-0.4-0.2-0.6h1c0,0.2,0.1,0.4,0.2,0.6c0.1,0.2,0.2,0.3,0.3,0.4
		v-1.8c-0.2-0.1-0.3-0.2-0.5-0.3c-0.2-0.1-0.3-0.2-0.4-0.3c-0.1-0.1-0.2-0.2-0.3-0.4c-0.1-0.1-0.1-0.3-0.1-0.5c0-0.2,0-0.3,0.1-0.5
		c0.1-0.1,0.2-0.3,0.3-0.4c0.1-0.1,0.3-0.2,0.4-0.3c0.2-0.1,0.3-0.1,0.5-0.2V10H33V10.6z M31.5,11.9c0,0.1,0,0.2,0.1,0.2
		c0,0.1,0.1,0.1,0.1,0.2s0.1,0.1,0.2,0.1c0.1,0,0.1,0.1,0.2,0.1v-1.3c-0.2,0.1-0.3,0.1-0.4,0.2C31.6,11.6,31.5,11.7,31.5,11.9z
		 M33.7,14.5c0-0.1-0.1-0.3-0.2-0.4c-0.1-0.1-0.3-0.2-0.5-0.3v1.5c0.3-0.1,0.5-0.2,0.6-0.3C33.7,14.9,33.7,14.7,33.7,14.5z"/>
</g>
<path fill="#3555A6" d="M63.6,57.1l0-1.5c0-0.6-0.4-1-1-1h-0.3v-1.4c0-0.6-0.4-1-1-1h-0.7l0-24.3h0.8c0.6,0,1-0.4,1-1v-2.3h0.1
	c0.6,0,1-0.4,1-1v-3c0-0.6-0.4-1-1-1h-1.1L33.8,3.7c-0.8-0.5-1.9-0.5-2.8,0L3.6,19.6H1.6c-0.6,0-1,0.4-1,1v3c0,0.6,0.4,1,1,1h1.1
	v2.3c0,0.6,0.4,1,1,1h0.8l0,24.3H3.6c-0.6,0-1,0.4-1,1v1.4H2.4c-0.6,0-1,0.4-1,1v1.5h0c-0.6,0-1,0.4-1,1v3.8c0,0.6,0.4,1,1,1h62.3
	c0.6,0,1-0.4,1-1v-3.8C64.6,57.5,64.2,57.1,63.6,57.1z M32.1,5.4c0.2-0.1,0.5-0.1,0.8,0l24.3,14H7.8L32.1,5.4z M2.6,22.5v-1h58.9v1
	h-2.4c-0.5,0-0.9,0.4-1,0.9h-51c-0.1-0.5-0.5-0.9-1-0.9H2.6z M55.5,53.2h3.2c0,0.5,0.5,0.9,1,0.9h0.7v0.4h-6.7v-0.4h0.8
	c0.3,0,0.5-0.1,0.7-0.3C55.4,53.7,55.4,53.5,55.5,53.2z M55.4,28h1.1v24.2h-1L55.4,28z M57.5,52.2V28h1.1l0,24.2H57.5z M59.6,25.9
	c-0.3,0-0.5,0.1-0.7,0.3c-0.2,0.2-0.3,0.4-0.3,0.7l0,0.1h-3.1l0-0.1c0-0.6-0.4-1-1-1h-0.8v-0.4h6.7v0.4H59.6z M51.7,55.6h-2.3
	c0,0,0,0,0-0.1v-2.4c0-0.6-0.4-1-1-1h-0.7l0-24.3h0.8c0.6,0,1-0.4,1-1v-2.4c0,0,0-0.1,0-0.1h2.3c0,0,0,0.1,0,0.1v2.4
	c0,0.6,0.4,1,1,1h0.8l0,24.3h-0.8c-0.6,0-1,0.4-1,1L51.7,55.6C51.6,55.6,51.7,55.6,51.7,55.6z M42.5,53.2h3.2c0,0.5,0.5,0.9,1,0.9
	h0.7v0.4h-6.7v-0.4h0.8c0.3,0,0.5-0.1,0.7-0.3C42.4,53.7,42.4,53.5,42.5,53.2z M42.4,28h1.1v24.2h-1L42.4,28z M44.5,52.2V28h1.1
	l0,24.2H44.5z M46.6,25.9c-0.3,0-0.5,0.1-0.7,0.3c-0.2,0.2-0.3,0.4-0.3,0.7l0,0.1h-3.1l0-0.1c0-0.6-0.4-1-1-1h-0.8v-0.4h6.7v0.4
	H46.6z M38.7,55.6h-2.5V46c0-2-1.7-3.7-3.7-3.7c-2,0-3.7,1.7-3.7,3.7v9.6h-2.5c0,0,0,0,0-0.1v-2.4c0-0.6-0.4-1-1-1h-0.7l0-24.3h0.8
	c0.6,0,1-0.4,1-1v-2.4c0,0,0-0.1,0-0.1h12.3c0,0,0,0.1,0,0.1v2.4c0,0.6,0.4,1,1,1h0.8l0,24.3h-0.8c-0.6,0-1,0.4-1,1L38.7,55.6
	C38.6,55.6,38.7,55.6,38.7,55.6z M35.2,46v9.6h-5.4V46c0-1.5,1.2-2.7,2.7-2.7C34,43.3,35.2,44.5,35.2,46z M19.5,53.2h3.2
	c0,0.5,0.5,0.9,1,0.9h0.7v0.4h-6.7v-0.4h0.8c0.3,0,0.5-0.1,0.7-0.3C19.4,53.7,19.4,53.5,19.5,53.2z M19.4,28h1.1v24.2h-1L19.4,28z
	 M21.5,52.2V28h1.1l0,24.2H21.5z M23.6,25.9c-0.3,0-0.5,0.1-0.7,0.3c-0.2,0.2-0.3,0.4-0.3,0.7l0,0.1h-3.1l0-0.1c0-0.6-0.4-1-1-1
	h-0.8v-0.4h6.7v0.4H23.6z M15.7,55.6h-2.3c0,0,0,0,0-0.1v-2.4c0-0.6-0.4-1-1-1h-0.7l0-24.3h0.8c0.6,0,1-0.4,1-1v-2.4
	c0,0,0-0.1,0-0.1h2.3c0,0,0,0.1,0,0.1v2.4c0,0.6,0.4,1,1,1h0.8l0,24.3h-0.8c-0.6,0-1,0.4-1,1L15.7,55.6
	C15.6,55.6,15.7,55.6,15.7,55.6z M6.5,53.2h3.2c0,0.5,0.5,0.9,1,0.9h0.7v0.4H4.6v-0.4h0.8c0.3,0,0.5-0.1,0.7-0.3
	C6.4,53.7,6.4,53.5,6.5,53.2z M6.4,28h1.1v24.2h-1L6.4,28z M8.5,52.2V28h1.1l0,24.2H8.5z M10.6,25.9c-0.3,0-0.5,0.1-0.7,0.3
	c-0.2,0.2-0.3,0.4-0.3,0.7l0,0.1H6.4l0-0.1c0-0.6-0.4-1-1-1H4.7v-0.4h6.7v0.4H10.6z M3.4,58.1v-1.4h25.9h6.4h25.9v1.4c0,0,0,0,0,0.1
	L3.4,58.1C3.4,58.1,3.4,58.1,3.4,58.1z M2.4,60.8v-1.7h60.3l0,1.7H2.4z"/>
</svg>
