<?xml version="1.0" encoding="UTF-8"?>
<svg width="81px" height="60px" viewBox="0 0 81 60" version="1.1" xmlns="http://www.w3.org/2000/svg" xmlns:xlink="http://www.w3.org/1999/xlink">
    <!-- Generator: Sketch 42 (36781) - http://www.bohemiancoding.com/sketch -->
    <title>card</title>
    <desc>Created with Sketch.</desc>
    <defs></defs>
    <g id="BP-Card-Onboarding" stroke="none" stroke-width="1" fill="none" fill-rule="evenodd" stroke-opacity="0.5" stroke-linecap="round" stroke-linejoin="round">
        <g id="Card_Got-Bitcoin" transform="translate(-654.000000, -288.000000)" stroke="#4A4A4A" stroke-width="0.907199942">
            <g id="card" transform="translate(655.000000, 289.000000)">
                <g id="Group">
                    <path d="M73.6136364,58 L5.38636364,58 C2.33409091,58 0,55.64375 0,52.5625 L0,5.4375 C0,2.35625 2.33409091,0 5.38636364,0 L53.8636364,0 L73.6136364,0 C76.6659091,0 79,2.35625 79,5.4375 L79,52.5625 C79,55.64375 76.6659091,58 73.6136364,58 L73.6136364,58 Z" id="Shape" fill="#F1F8FF"></path>
                    <path d="M0,14.5 L79,14.5" id="Shape"></path>
                    <path d="M0,29 L79,29" id="Shape"></path>
                    <path d="M14.3636364,43.5 L32.3181818,43.5" id="Shape"></path>
                    <path d="M59.25,43.5 L64.6363636,43.5" id="Shape"></path>
                </g>
            </g>
        </g>
    </g>
</svg>