<?xml version="1.0" encoding="UTF-8" standalone="no"?>
<svg width="41px" height="42px" viewBox="0 0 41 42" version="1.1" xmlns="http://www.w3.org/2000/svg" xmlns:xlink="http://www.w3.org/1999/xlink" xmlns:sketch="http://www.bohemiancoding.com/sketch/ns">
    <!-- Generator: Sketch 3.3.2 (12043) - http://www.bohemiancoding.com/sketch -->
    <title>envelope-invoice</title>
    <desc>Created with Sketch.</desc>
    <defs></defs>
    <g id="Page-1" stroke="none" stroke-width="1" fill="none" fill-rule="evenodd" sketch:type="MSPage">
        <g id="01-copy-3" sketch:type="MSArtboardGroup" transform="translate(-533.000000, -346.500000)" fill="#3555A6">
            <g id="envelope-invoice" sketch:type="MSLayerGroup" transform="translate(533.000000, 346.000000)">
                <path d="M39.4,15.6 L36.6,13.3 L36.6,6.7 C36.6,6 36,5.4 35.3,5.4 L27,5.4 L21.5,0.9 C20.8,0.4 19.9,0.4 19.3,0.9 L13.8,5.4 L5,5.4 C4.2,5.4 3.6,6 3.6,6.7 L3.6,13.7 L1.3,15.6 C0.6,16.2 0.1,17.1 0.1,18.1 L0.1,40.4 C0.1,41.3 0.8,42 1.7,42 L39,42 C39.9,42 40.6,41.3 40.6,40.4 L40.6,18.1 C40.6,17.1 40.2,16.2 39.4,15.6 L39.4,15.6 Z M38.6,19.6 L38.6,38.1 L23.4,27.9 L38.6,19.6 L38.6,19.6 Z M38.4,17.5 L36.6,18.5 L36.6,16 C36.6,15.9 38.3,17.3 38.4,17.5 L38.4,17.5 Z M20.4,2.5 L23.9,5.4 L16.9,5.4 L20.4,2.5 L20.4,2.5 Z M34.6,7.4 L34.6,19.5 L20.7,27.1 C20.5,27.2 20.2,27.2 19.9,27.1 L5.6,19.3 L5.6,7.4 L34.6,7.4 L34.6,7.4 Z M17.3,27.9 L2.1,38.2 L2.1,19.7 L17.3,27.9 L17.3,27.9 Z M3.6,16.3 L3.6,18.2 L2.3,17.5 C2.4,17.4 3.6,16.3 3.6,16.3 L3.6,16.3 Z M2.1,40 L2.1,39.4 L18.2,28.5 L18.9,28.9 C19.3,29.1 19.8,29.2 20.2,29.2 C20.7,29.2 21.1,29.1 21.5,28.9 L22.3,28.5 L38.5,39.4 L38.5,40 L2.1,40 L2.1,40 Z" id="Shape" sketch:type="MSShapeGroup"></path>
                <rect id="Rectangle-path" sketch:type="MSShapeGroup" x="8.4" y="16.6" width="24.1" height="1"></rect>
                <g id="Group" transform="translate(14.000000, 17.000000)" sketch:type="MSShapeGroup">
                    <rect id="Rectangle-path" x="0.3" y="0" width="1" height="8.4"></rect>
                    <rect id="Rectangle-path" x="11.5" y="0" width="1" height="7.9"></rect>
                </g>
                <rect id="Rectangle-path" sketch:type="MSShapeGroup" x="8.4" y="19.6" width="3.7" height="1"></rect>
                <rect id="Rectangle-path" sketch:type="MSShapeGroup" x="18.2" y="19.6" width="3.7" height="1"></rect>
                <rect id="Rectangle-path" sketch:type="MSShapeGroup" x="18.2" y="22.9" width="3.7" height="1"></rect>
                <rect id="Rectangle-path" sketch:type="MSShapeGroup" x="28.9" y="19.6" width="3.6" height="1"></rect>
                <rect id="Rectangle-path" sketch:type="MSShapeGroup" x="26" y="10.3" width="5.6" height="1"></rect>
                <rect id="Rectangle-path" sketch:type="MSShapeGroup" x="27.2" y="12.6" width="4.5" height="1"></rect>
                <path d="M12.1,13.8 L10.9,13.8 C9.8,13.8 8.9,12.9 8.9,11.8 C8.9,10.7 9.8,9.8 10.9,9.8 L12.1,9.8 C13.2,9.8 14.1,10.7 14.1,11.8 C14.1,12.9 13.2,13.8 12.1,13.8 L12.1,13.8 Z M10.9,10.8 C10.4,10.8 9.9,11.2 9.9,11.8 C9.9,12.4 10.3,12.8 10.9,12.8 L12.1,12.8 C12.6,12.8 13.1,12.4 13.1,11.8 C13.1,11.2 12.7,10.8 12.1,10.8 L10.9,10.8 L10.9,10.8 Z" id="Shape" sketch:type="MSShapeGroup"></path>
            </g>
        </g>
    </g>
</svg>