<?xml version="1.0" encoding="utf-8"?>
<!-- Generator: Adobe Illustrator 18.0.0, SVG Export Plug-In . SVG Version: 6.00 Build 0)  -->
<!DOCTYPE svg PUBLIC "-//W3C//DTD SVG 1.1//EN" "http://www.w3.org/Graphics/SVG/1.1/DTD/svg11.dtd">
<svg version="1.1" id="Layer_1" xmlns="http://www.w3.org/2000/svg" xmlns:xlink="http://www.w3.org/1999/xlink" x="0px" y="0px"
	 viewBox="0 0 65 65" enable-background="new 0 0 65 65" xml:space="preserve">
<g>
	<path fill="#FFFFFF" d="M11.6,57.5c1.2,0,19.8-12.9,19.8-12.9"/>
	<path fill="#FFFFFF" d="M56.5,57.5c-1.2,0-19.8-12.9-19.8-12.9"/>
	<path fill="#3555A6" d="M59.5,24.4c-0.7-0.5-1.4-0.9-2-1.4V4.8c0-1.4-1.1-2.5-2.5-2.5H13.1c-1.4,0-2.5,1.1-2.5,2.5v18.1
		c-0.7,0.5-1.4,1-2.1,1.5c-1.1,0.7-1.7,1.9-1.7,3.2v32.9c0,1.2,1,2.2,2.2,2.2h50c1.2,0,2.2-1,2.2-2.2v-33
		C61.1,26.3,60.5,25.1,59.5,24.4z M57.5,25.4c0.3,0.2,0.6,0.4,0.9,0.6c0.5,0.3,0.8,0.9,0.8,1.5v1.3c-0.2,0.2-0.3,0.4-0.5,0.5
		c-0.3,0.2-0.7,0.5-1.1,0.7V25.4z M12.6,4.8c0-0.3,0.2-0.5,0.5-0.5H55c0.3,0,0.5,0.2,0.5,0.5l0.1,26.6c0,0-15.1,10.2-19.1,12.8
		c0,0,0,0-0.1,0c-1.3,0.8-2.1,1.3-2.5,1.4c-1.4-0.5-12.6-8-21.5-14L12.6,4.8z M8.8,27.6c0-0.6,0.3-1.2,0.8-1.5
		c0.3-0.2,0.7-0.5,1-0.7v5c-0.5-0.3-0.9-0.6-1.3-0.9c-0.2-0.1-0.3-0.3-0.5-0.5V27.6z M58.9,60.7h-50c-0.1,0-0.2-0.1-0.2-0.2V30.3
		c0.6,0.4,16.7,11.4,21.7,14.5c-7,4.8-17.7,12-18.8,12.3c-0.3,0-0.5,0.2-0.5,0.5c0,0.3,0.2,0.5,0.5,0.5c0,0,0,0,0,0
		c1.2,0,13.9-8.7,19.8-12.7c1.4,0.8,2.3,1.4,2.6,1.4h0c0.3,0,1.3-0.5,2.7-1.4c5.8,4,18.6,12.8,19.9,12.8c0,0,0,0,0,0
		c0.3,0,0.5-0.2,0.5-0.5c0-0.3-0.2-0.5-0.5-0.5c-1.1-0.2-12-7.5-19-12.3c5.6-3.5,16.2-10.8,21.5-14.4v30.3
		C59.1,60.6,59,60.7,58.9,60.7z"/>
</g>
<g>
	<path fill="#3555A6" d="M34,29.3c-0.3,0-0.7-0.1-0.9-0.4l-5.3-5.1c-0.4-0.4-0.4-1,0-1.4l2.8-3.4c0.4-0.4,1-0.4,1.4-0.1l1.8,1.9
		l4.9-5.1c0.3-0.4,1-0.4,1.4,0l3.2,3c0.4,0.4,0.4,1,0,1.4L35,28.9C34.7,29.2,34.3,29.3,34,29.3z M31.2,19.7l-2.7,3.4l5.2,5.1
		c0.1,0.1,0.4,0.1,0.5,0l8.3-8.7l-3.2-3L34,22.1l-0.3,0c-0.1,0-0.3-0.1-0.4-0.2L31.2,19.7z"/>
</g>
</svg>
