<?xml version="1.0" encoding="UTF-8" standalone="no"?>
<svg width="63px" height="61px" viewBox="0 0 63 61" version="1.1" xmlns="http://www.w3.org/2000/svg" xmlns:xlink="http://www.w3.org/1999/xlink" xmlns:sketch="http://www.bohemiancoding.com/sketch/ns">
    <!-- Generator: Sketch 3.3.2 (12043) - http://www.bohemiancoding.com/sketch -->
    <title>envelope-tick</title>
    <desc>Created with Sketch.</desc>
    <defs></defs>
    <g id="Page-1" stroke="none" stroke-width="1" fill="none" fill-rule="evenodd" sketch:type="MSPage">
        <g id="developers-copy-32" sketch:type="MSArtboardGroup" transform="translate(-521.000000, -384.000000)" fill="#1DB670">
            <g id="envelope-tick" sketch:type="MSLayerGroup" transform="translate(521.000000, 384.000000)">
                <g id="Group" sketch:type="MSShapeGroup">
                    <path d="M5.6,55.5 C6.8,55.5 25.4,42.6 25.4,42.6" id="Shape"></path>
                    <path d="M50.5,55.5 C49.3,55.5 30.7,42.6 30.7,42.6" id="Shape"></path>
                    <path d="M28,27.3 C27.7,27.3 27.3,27.2 27.1,26.9 L21.8,21.8 C21.4,21.4 21.4,20.8 21.8,20.4 L24.6,17 C25,16.6 25.6,16.6 26,16.9 L27.8,18.8 L32.7,13.7 C33,13.3 33.7,13.3 34.1,13.7 L37.3,16.7 C37.7,17.1 37.7,17.7 37.3,18.1 L29,26.9 C28.7,27.2 28.3,27.3 28,27.3 L28,27.3 Z M25.2,17.7 L22.5,21.1 L27.7,26.2 C27.8,26.3 28.1,26.3 28.2,26.2 L36.5,17.5 L33.3,14.5 L28,20.1 L27.7,20.1 C27.6,20.1 27.4,20 27.3,19.9 L25.2,17.7 L25.2,17.7 Z" id="Shape"></path>
                    <path d="M51.9,26.9 C46.2,26.9 41.6,31.5 41.6,37.2 C41.6,42.9 46.2,47.5 51.9,47.5 C57.6,47.5 62.2,42.9 62.2,37.2 C62.2,31.4 57.6,26.9 51.9,26.9 L51.9,26.9 Z M57.7,35 L51.2,41.9 C50.9,42.2 50.5,42.2 50.2,41.9 L46.1,37.9 C46,37.8 45.9,37.5 46.1,37.4 L48.3,34.7 C48.4,34.6 48.7,34.5 48.8,34.7 L50.4,36.4 L50.5,36.4 L54.6,32.1 C54.7,32 55,31.9 55.1,32.1 L57.7,34.5 C57.9,34.7 57.9,34.9 57.7,35 L57.7,35 Z" id="Shape"></path>
                    <path d="M53.1,47.3 L53.1,58.5 C53.1,58.6 53,58.7 52.9,58.7 L2.9,58.7 C2.8,58.7 2.7,58.6 2.7,58.5 L2.7,28.3 C3.3,28.7 19.4,39.7 24.4,42.8 C17.4,47.6 6.7,54.8 5.6,55.1 C5.3,55.1 5.1,55.3 5.1,55.6 C5.1,55.9 5.3,56.1 5.6,56.1 L5.6,56.1 C6.8,56.1 19.5,47.4 25.4,43.4 C26.8,44.2 27.7,44.8 28,44.8 L28,44.8 C28.3,44.8 29.3,44.3 30.7,43.4 C36.5,47.4 49.3,56.2 50.6,56.2 L50.6,56.2 C50.9,56.2 51.1,56 51.1,55.7 C51.1,55.4 50.9,55.2 50.6,55.2 C49.5,55 38.6,47.7 31.6,42.9 C34.2,41 38,38.5 41.7,36 C41.8,35.5 41.9,35 42,34.6 C37.6,37.6 32.6,40.9 30.4,42.3 C30.4,42.3 30.4,42.3 30.3,42.3 C29,43.1 28.2,43.6 27.8,43.7 C26.4,43.2 15.2,35.7 6.3,29.7 L6.6,2.8 C6.6,2.5 6.8,2.3 7.1,2.3 L49,2.3 C49.3,2.3 49.5,2.5 49.5,2.8 L49.6,27.1 C50.2,27 50.9,26.9 51.5,26.8 L51.5,23.4 C51.8,23.6 52.1,23.8 52.4,24 C52.9,24.3 53.2,24.9 53.2,25.5 L53.2,26.8 C53.2,26.8 53.2,26.9 53.1,26.9 C53.8,27 54.5,27.1 55.2,27.4 L55.2,25.6 C55.2,24.4 54.6,23.2 53.6,22.5 C52.9,22 52.2,21.6 51.6,21.1 L51.6,2.8 C51.6,1.4 50.5,0.3 49.1,0.3 L7.1,0.3 C5.7,0.3 4.6,1.4 4.6,2.8 L4.6,20.9 L2.5,22.4 C1.4,23.1 0.8,24.3 0.8,25.6 L0.8,58.5 C0.8,59.7 1.8,60.7 3,60.7 L53,60.7 C54.2,60.7 55.2,59.7 55.2,58.5 L55.2,46.8 C54.5,47 53.8,47.2 53.1,47.3 L53.1,47.3 Z M2.8,25.6 C2.8,25 3.1,24.4 3.6,24.1 C3.9,23.9 4.3,23.6 4.6,23.4 L4.6,28.4 C4.1,28.1 3.7,27.8 3.3,27.5 C3.1,27.4 3,27.2 2.8,27 L2.8,25.6 L2.8,25.6 Z" id="Shape"></path>
                </g>
            </g>
        </g>
    </g>
</svg>