<?xml version="1.0" encoding="utf-8"?>
<!-- Generator: Adobe Illustrator 16.0.0, SVG Export Plug-In . SVG Version: 6.00 Build 0)  -->
<!DOCTYPE svg PUBLIC "-//W3C//DTD SVG 1.1//EN" "http://www.w3.org/Graphics/SVG/1.1/DTD/svg11.dtd">
<svg version="1.1" id="Layer_1" xmlns="http://www.w3.org/2000/svg" xmlns:xlink="http://www.w3.org/1999/xlink" x="0px" y="0px"
	 width="400px" height="280px" viewBox="0 0 400 280" enable-background="new 0 0 400 280" xml:space="preserve">
<g>
	<g>
		<g>
			<path fill="#F7F8F8" d="M26.763,213.796v2.521c0,3.739,3.04,6.771,6.789,6.771h256.817c3.749,0,6.789-3.031,6.789-6.771v-2.521
				H26.763z"/>
			<path fill="#F7F8F8" d="M262.848,188.875V64.109c0-3.741-3.031-6.771-6.772-6.771H67.77c-3.74,0-6.772,3.03-6.772,6.771v124.766
				H57.78l-30.29,24.55l269.667,0.371l-30.414-24.921H262.848z"/>
			<path fill="#B0B1B1" d="M263.157,188.728h0.529V63.598c-0.002-3.797-3.078-6.873-6.874-6.873H67.162
				c-3.798,0-6.874,3.076-6.874,6.873v125.658h203.399v-0.528H263.157v-0.528H61.343V63.598c0.002-1.609,0.65-3.059,1.705-4.113
				c1.054-1.053,2.504-1.704,4.114-1.704h189.651c1.606,0,3.058,0.65,4.112,1.704c1.054,1.054,1.703,2.504,1.703,4.113v125.13
				H263.157v-0.528V188.728z"/>
			<polygon fill="#B0B1B1" points="254.729,180.934 254.729,180.405 69.79,180.405 69.79,66.487 254.199,66.487 254.199,180.934 
				254.729,180.934 254.729,180.405 254.729,180.934 255.259,180.934 255.259,65.43 68.731,65.43 68.731,181.462 255.259,181.462 
				255.259,180.934 			"/>
			<polygon fill="#B0B1B1" points="296.997,213.343 296.997,212.813 28.727,212.813 57.732,189.256 266.353,189.256 
				296.664,213.754 296.997,213.343 296.997,212.813 296.997,213.343 297.772,213.329 266.728,188.199 57.356,188.199 
				26.41,213.329 27.472,213.871 296.716,213.871 297.772,213.329 			"/>
			<polygon fill="#B0B1B1" points="256.194,200.58 256.194,200.051 69.05,200.051 79.303,189.256 244.909,189.256 255.808,200.94 
				256.194,200.58 256.194,200.051 256.194,200.58 256.581,200.219 245.368,188.199 78.848,188.199 66.587,201.11 257.41,201.11 
				256.581,200.219 			"/>
			<polyline fill="#B0B1B1" points="126.681,200.382 121.526,213.115 122.508,213.512 127.661,200.778 			"/>
			<polyline fill="#B0B1B1" points="196.609,200.778 201.764,213.512 202.743,213.115 197.589,200.382 			"/>
			<path fill="#B0B1B1" d="M296.716,213.329v1.059v2.015c0,1.608-0.65,3.061-1.703,4.113c-1.057,1.054-2.506,1.704-4.115,1.704
				H33.284c-1.608,0-3.059-0.65-4.114-1.704c-1.054-1.053-1.703-2.505-1.704-4.113v-2.015v-1.059H26.41v3.073
				c0,3.798,3.077,6.874,6.874,6.874h257.614c3.798,0,6.875-3.076,6.875-6.874v-3.073H296.716z"/>
		</g>
		<g>
			<polygon fill="#787878" points="171.632,124.741 170.432,124.741 170.432,125.946 170.432,127.151 171.632,127.151 
				171.632,125.946 			"/>
			<polygon fill="#787878" points="153.556,130.75 153.556,131.955 154.765,131.955 154.765,130.75 155.966,130.75 155.966,129.545 
				154.765,129.545 154.765,128.356 153.556,128.356 153.556,129.545 152.355,129.545 152.355,130.75 			"/>
			<rect x="157.174" y="116.339" fill="#787878" width="1.202" height="1.205"/>
			<rect x="166.813" y="117.544" fill="#787878" width="1.209" height="1.189"/>
			<polygon fill="#787878" points="163.203,118.733 163.203,117.544 163.203,116.339 163.203,115.135 161.994,115.135 
				160.786,115.135 160.786,116.339 161.994,116.339 161.994,117.544 160.786,117.544 160.786,118.733 161.994,118.733 			"/>
			<polygon fill="#787878" points="152.355,124.741 151.146,124.741 151.146,125.946 151.146,127.151 151.146,128.356 
				151.146,129.545 152.355,129.545 152.355,128.356 152.355,127.151 153.556,127.151 153.556,125.946 152.355,125.946 			"/>
			<rect x="151.146" y="122.347" fill="#787878" width="1.208" height="1.191"/>
			<polygon fill="#787878" points="159.584,115.135 159.584,113.93 159.584,112.741 159.584,111.536 159.584,110.331 
				158.376,110.331 157.174,110.331 157.174,111.536 157.174,112.741 158.376,112.741 158.376,113.93 157.174,113.93 
				157.174,112.741 155.966,112.741 155.966,113.93 155.966,115.135 157.174,115.135 158.376,115.135 158.376,116.339 
				159.584,116.339 			"/>
			<path fill="#787878" d="M152.355,133.158h-1.208h-1.202h-1.208h-1.201h-1.208v1.19v1.204v1.205v1.205v1.189v1.205v1.204h1.208
				h1.201h1.208h1.202h1.208h1.201h1.209v-1.204v-1.205v-1.189v-1.205v-1.205v-1.204v-1.19h-1.209H152.355z M153.556,135.553v1.205
				v1.205v1.189v1.205h-1.201h-1.208h-1.202h-1.208h-1.201v-1.205v-1.189v-1.205v-1.205v-1.204h1.201h1.208h1.202h1.208h1.201
				V135.553z"/>
			<polygon fill="#787878" points="165.612,135.553 165.612,134.349 164.403,134.349 164.403,135.553 164.403,136.758 
				164.403,137.963 165.612,137.963 165.612,136.758 			"/>
			<polygon fill="#787878" points="157.174,135.553 155.966,135.553 155.966,136.758 157.174,136.758 158.376,136.758 
				158.376,135.553 			"/>
			<polygon fill="#787878" points="172.842,121.143 172.842,119.938 171.632,119.938 170.432,119.938 170.432,121.143 
				169.223,121.143 169.223,122.347 170.432,122.347 171.632,122.347 171.632,121.143 			"/>
			<polygon fill="#787878" points="168.022,116.339 168.022,115.135 166.813,115.135 166.813,113.93 166.813,112.741 
				166.813,111.536 166.813,110.331 165.612,110.331 165.612,111.536 164.403,111.536 163.203,111.536 163.203,110.331 
				161.994,110.331 160.786,110.331 160.786,111.536 160.786,112.741 161.994,112.741 161.994,113.93 163.203,113.93 
				164.403,113.93 164.403,112.741 165.612,112.741 165.612,113.93 164.403,113.93 164.403,115.135 165.612,115.135 
				165.612,116.339 166.813,116.339 			"/>
			<polygon fill="#787878" points="166.813,127.151 168.022,127.151 168.022,125.946 168.022,124.741 168.022,123.538 
				168.022,122.347 166.813,122.347 165.612,122.347 165.612,123.538 166.813,123.538 166.813,124.741 165.612,124.741 
				165.612,125.946 166.813,125.946 			"/>
			<rect x="166.813" y="128.356" fill="#787878" width="1.209" height="1.189"/>
			<polygon fill="#787878" points="157.174,129.545 157.174,130.75 158.376,130.75 159.584,130.75 159.584,129.545 158.376,129.545 
							"/>
			<rect x="159.584" y="130.75" fill="#787878" width="1.201" height="1.205"/>
			<polygon fill="#787878" points="160.786,128.356 160.786,127.151 161.994,127.151 161.994,128.356 163.203,128.356 
				163.203,127.151 164.403,127.151 164.403,128.356 164.403,129.545 165.612,129.545 165.612,128.356 165.612,127.151 
				165.612,125.946 164.403,125.946 163.203,125.946 161.994,125.946 160.786,125.946 160.786,124.741 161.994,124.741 
				163.203,124.741 164.403,124.741 164.403,123.538 164.403,122.347 164.403,121.143 163.203,121.143 163.203,122.347 
				163.203,123.538 161.994,123.538 160.786,123.538 160.786,122.347 160.786,121.143 159.584,121.143 159.584,122.347 
				159.584,123.538 158.376,123.538 157.174,123.538 155.966,123.538 154.765,123.538 154.765,122.347 155.966,122.347 
				155.966,121.143 154.765,121.143 154.765,119.938 153.556,119.938 153.556,121.143 152.355,121.143 152.355,122.347 
				153.556,122.347 153.556,123.538 153.556,124.741 153.556,125.946 154.765,125.946 154.765,124.741 155.966,124.741 
				157.174,124.741 158.376,124.741 159.584,124.741 159.584,125.946 158.376,125.946 158.376,127.151 158.376,128.356 
				159.584,128.356 159.584,129.545 160.786,129.545 161.994,129.545 161.994,128.356 			"/>
			<polygon fill="#787878" points="163.203,129.545 161.994,129.545 161.994,130.75 163.203,130.75 164.403,130.75 164.403,129.545 
							"/>
			<rect x="169.223" y="123.538" fill="#787878" width="1.209" height="1.204"/>
			<rect x="169.223" y="133.158" fill="#787878" width="1.209" height="1.19"/>
			<polygon fill="#787878" points="157.174,127.151 157.174,125.946 155.966,125.946 155.966,127.151 155.966,128.356 
				157.174,128.356 			"/>
			<polygon fill="#787878" points="155.966,133.158 155.966,134.349 157.174,134.349 157.174,133.158 157.174,131.955 
				155.966,131.955 			"/>
			<rect x="161.994" y="119.938" fill="#787878" width="1.208" height="1.205"/>
			<polygon fill="#787878" points="157.174,119.938 158.376,119.938 158.376,121.143 159.584,121.143 159.584,119.938 
				159.584,118.733 159.584,117.544 158.376,117.544 158.376,118.733 157.174,118.733 155.966,118.733 155.966,119.938 
				155.966,121.143 157.174,121.143 			"/>
			<polygon fill="#787878" points="168.022,119.938 166.813,119.938 166.813,118.733 165.612,118.733 165.612,117.544 
				165.612,116.339 164.403,116.339 164.403,117.544 164.403,118.733 164.403,119.938 165.612,119.938 165.612,121.143 
				166.813,121.143 168.022,121.143 169.223,121.143 169.223,119.938 			"/>
			<rect x="168.022" y="127.151" fill="#787878" width="1.201" height="1.205"/>
			<polygon fill="#787878" points="148.737,125.946 149.945,125.946 149.945,124.741 148.737,124.741 147.536,124.741 
				146.327,124.741 146.327,125.946 147.536,125.946 			"/>
			<polygon fill="#787878" points="148.737,130.75 148.737,131.955 149.945,131.955 151.146,131.955 151.146,130.75 149.945,130.75 
				149.945,129.545 148.737,129.545 147.536,129.545 146.327,129.545 146.327,130.75 147.536,130.75 			"/>
			<path fill="#787878" d="M148.737,118.733h1.208h1.202h1.208h1.201h1.209v-1.189v-1.205v-1.204v-1.206v-1.188v-1.205v-1.205
				h-1.209h-1.201h-1.208h-1.202h-1.208h-1.201h-1.208v1.205v1.205v1.188v1.206v1.204v1.205v1.189h1.208H148.737z M147.536,116.339
				v-1.204v-1.206v-1.188v-1.205h1.201h1.208h1.202h1.208h1.201v1.205v1.188v1.206v1.204v1.205h-1.201h-1.208h-1.202h-1.208h-1.201
				V116.339z"/>
			<polygon fill="#787878" points="176.452,131.955 177.661,131.955 177.661,130.75 176.452,130.75 175.251,130.75 175.251,131.955 
							"/>
			<polygon fill="#787878" points="147.536,122.347 148.737,122.347 148.737,123.538 149.945,123.538 149.945,122.347 
				149.945,121.143 148.737,121.143 148.737,119.938 147.536,119.938 147.536,121.143 146.327,121.143 146.327,122.347 
				146.327,123.538 147.536,123.538 			"/>
			<rect x="146.327" y="127.151" fill="#787878" width="1.208" height="1.205"/>
			<polygon fill="#787878" points="176.452,134.349 175.251,134.349 175.251,135.553 174.043,135.553 174.043,136.758 
				175.251,136.758 176.452,136.758 176.452,137.963 177.661,137.963 177.661,136.758 177.661,135.553 177.661,134.349 
				177.661,133.158 176.452,133.158 			"/>
			<rect x="171.632" y="140.357" fill="#787878" width="1.209" height="1.204"/>
			<rect x="169.223" y="140.357" fill="#787878" width="1.209" height="1.204"/>
			<rect x="176.452" y="140.357" fill="#787878" width="1.208" height="1.204"/>
			<path fill="#787878" d="M176.452,110.331h-1.201h-1.208h-1.201h-1.209h-1.2h-1.209v1.205v1.205v1.188v1.206v1.204v1.205v1.189
				h1.209h1.2h1.209h1.201h1.208h1.201h1.208v-1.189v-1.205v-1.204v-1.206v-1.188v-1.205v-1.205H176.452z M176.452,112.741v1.188
				v1.206v1.204v1.205h-1.201h-1.208h-1.201h-1.209h-1.2v-1.205v-1.204v-1.206v-1.188v-1.205h1.2h1.209h1.201h1.208h1.201V112.741z"
				/>
			<rect x="176.452" y="119.938" fill="#787878" width="1.208" height="1.205"/>
			<polygon fill="#787878" points="176.452,123.538 175.251,123.538 174.043,123.538 174.043,122.347 172.842,122.347 
				171.632,122.347 171.632,123.538 172.842,123.538 172.842,124.741 172.842,125.946 172.842,127.151 171.632,127.151 
				171.632,128.356 172.842,128.356 174.043,128.356 174.043,129.545 174.043,130.75 175.251,130.75 175.251,129.545 
				175.251,128.356 176.452,128.356 176.452,129.545 177.661,129.545 177.661,128.356 177.661,127.151 176.452,127.151 
				176.452,125.946 175.251,125.946 175.251,127.151 174.043,127.151 174.043,125.946 174.043,124.741 175.251,124.741 
				176.452,124.741 176.452,125.946 177.661,125.946 177.661,124.741 177.661,123.538 177.661,122.347 176.452,122.347 			"/>
			<polygon fill="#787878" points="149.945,135.553 148.737,135.553 148.737,136.758 148.737,137.963 148.737,139.152 
				149.945,139.152 151.146,139.152 152.355,139.152 152.355,137.963 152.355,136.758 152.355,135.553 151.146,135.553 			"/>
			<rect x="149.945" y="119.938" fill="#787878" width="1.202" height="1.205"/>
			<polygon fill="#787878" points="151.146,116.339 152.355,116.339 152.355,115.135 152.355,113.93 152.355,112.741 
				151.146,112.741 149.945,112.741 148.737,112.741 148.737,113.93 148.737,115.135 148.737,116.339 149.945,116.339 			"/>
			<path fill="#787878" d="M170.432,139.152h1.2v-1.189v-1.205h1.209v-1.205v-1.204v-1.19v-1.203v-1.205v-1.205h-1.209v1.205h-1.2
				v-1.205v-1.189h-1.209v1.189v1.205h-1.201h-1.209h-1.202h-1.208v1.205h1.208h1.202v1.203v1.19v1.204v1.205h1.209h1.201h1.209
				v1.205V139.152z M169.223,135.553h-1.201v-1.204v-1.19v-1.203h1.201h1.209h1.2v1.203v1.19v1.204h-1.2H169.223z"/>
			<rect x="165.612" y="137.963" fill="#787878" width="1.202" height="1.189"/>
			<polygon fill="#787878" points="174.043,137.963 172.842,137.963 172.842,139.152 172.842,140.357 174.043,140.357 
				174.043,141.562 175.251,141.562 175.251,140.357 176.452,140.357 176.452,139.152 176.452,137.963 175.251,137.963 			"/>
			<rect x="155.966" y="137.963" fill="#787878" width="1.208" height="1.189"/>
			<polygon fill="#787878" points="163.203,137.963 163.203,136.758 163.203,135.553 163.203,134.349 163.203,133.158 
				163.203,131.955 161.994,131.955 161.994,133.158 160.786,133.158 160.786,134.349 161.994,134.349 161.994,135.553 
				160.786,135.553 160.786,134.349 159.584,134.349 159.584,133.158 158.376,133.158 158.376,134.349 158.376,135.553 
				159.584,135.553 159.584,136.758 158.376,136.758 158.376,137.963 158.376,139.152 159.584,139.152 159.584,140.357 
				159.584,141.562 160.786,141.562 160.786,140.357 160.786,139.152 160.786,137.963 160.786,136.758 161.994,136.758 
				161.994,137.963 161.994,139.152 161.994,140.357 161.994,141.562 163.203,141.562 164.403,141.562 164.403,140.357 
				164.403,139.152 163.203,139.152 			"/>
			<polygon fill="#787878" points="168.022,139.152 166.813,139.152 166.813,140.357 165.612,140.357 165.612,141.562 
				166.813,141.562 168.022,141.562 168.022,140.357 169.223,140.357 169.223,139.152 			"/>
			<polygon fill="#787878" points="157.174,140.357 157.174,141.562 158.376,141.562 158.376,140.357 158.376,139.152 
				157.174,139.152 			"/>
			<polygon fill="#787878" points="172.842,112.741 171.632,112.741 171.632,113.93 171.632,115.135 171.632,116.339 
				172.842,116.339 174.043,116.339 175.251,116.339 175.251,115.135 175.251,113.93 175.251,112.741 174.043,112.741 			"/>
			<polygon fill="#787878" points="175.251,121.143 175.251,119.938 174.043,119.938 174.043,121.143 174.043,122.347 
				175.251,122.347 			"/>
		</g>
		<path fill="none" stroke="#B0B1B1" stroke-miterlimit="10" d="M216.833,162.319c0,0.679-0.55,1.229-1.229,1.229H108.383
			c-0.679,0-1.229-0.551-1.229-1.229V90.211c0-0.679,0.55-1.229,1.229-1.229h107.221c0.679,0,1.229,0.55,1.229,1.229V162.319z"/>
		<path fill="#B0B1B1" d="M216.833,95.081v-4.87c0-0.679-0.55-1.229-1.229-1.229H108.383c-0.679,0-1.229,0.55-1.229,1.229v4.87
			H216.833z"/>
		<circle fill="#F7F8F8" cx="111.091" cy="92.032" r="0.753"/>
		<circle fill="#F7F8F8" cx="114.163" cy="92.032" r="0.753"/>
		<circle fill="#F7F8F8" cx="117.235" cy="92.032" r="0.753"/>
	</g>
	<g>
		<g>
			<path fill="#F7F8F8" d="M373.066,179.479c0,5.208-4.221,9.429-9.428,9.429h-35.438c-5.208,0-9.429-4.221-9.429-9.429V94.522
				c0-5.207,4.221-9.428,9.429-9.428h35.438c5.207,0,9.428,4.221,9.428,9.428V179.479z"/>
			<path fill="#B0B1B1" d="M373.066,179.479h-0.523c0,2.46-0.996,4.683-2.608,6.297c-1.612,1.612-3.835,2.606-6.296,2.607h-35.438
				c-2.461-0.001-4.684-0.995-6.296-2.607c-1.613-1.614-2.608-3.837-2.608-6.297V94.522c0-2.461,0.995-4.684,2.608-6.296
				c1.612-1.613,3.835-2.608,6.296-2.608h35.438c2.461,0,4.684,0.996,6.296,2.608s2.608,3.835,2.608,6.296v84.957H373.066h0.524
				V94.522c-0.001-5.497-4.455-9.952-9.952-9.952h-35.438c-5.497,0-9.951,4.455-9.952,9.952v84.957
				c0.001,5.497,4.455,9.95,9.952,9.952h35.438c5.497-0.002,9.951-4.455,9.952-9.952H373.066z"/>
			<polygon fill="#B0B1B1" points="369.744,177.147 369.744,176.625 322.619,176.625 322.619,95.35 369.22,95.35 369.22,177.147 
				369.744,177.147 369.744,176.625 369.744,177.147 370.268,177.147 370.268,94.302 321.571,94.302 321.571,177.672 
				370.268,177.672 370.268,177.147 			"/>
			<path fill="#B0B1B1" d="M338.48,180.932h-0.524V181c0.001,2.604,2.11,4.713,4.714,4.715h7.029
				c2.604-0.002,4.714-2.111,4.714-4.715v-0.068v-0.523h-16.457v0.523H338.48v0.524h15.408v-0.524h-0.523V181
				c-0.004,2.023-1.642,3.662-3.666,3.666h-7.029c-2.024-0.004-3.663-1.643-3.667-3.666v-0.068H338.48v0.524V180.932z"/>
			<path fill="#B0B1B1" d="M353.889,89.849h-0.523c0,0.281-0.227,0.508-0.507,0.508h-13.348c-0.28,0-0.506-0.227-0.508-0.508
				c0.002-0.279,0.228-0.506,0.508-0.506h13.348c0.28,0,0.507,0.228,0.507,0.506H353.889h0.524c0-0.858-0.695-1.554-1.555-1.554
				h-13.348c-0.859,0-1.554,0.696-1.555,1.554c0,0.86,0.695,1.556,1.555,1.556h13.348c0.859,0,1.555-0.696,1.555-1.556H353.889z"/>
		</g>
		<g>
			<polygon fill="#787878" points="354.34,135.751 353.325,135.751 353.325,136.771 353.325,137.79 354.34,137.79 354.34,136.771 
							"/>
			<polygon fill="#787878" points="339.045,140.836 339.045,141.855 340.067,141.855 340.067,140.836 341.084,140.836 
				341.084,139.816 340.067,139.816 340.067,138.81 339.045,138.81 339.045,139.816 338.028,139.816 338.028,140.836 			"/>
			<rect x="342.106" y="128.642" fill="#787878" width="1.017" height="1.02"/>
			<rect x="350.263" y="129.661" fill="#787878" width="1.022" height="1.006"/>
			<polygon fill="#787878" points="347.207,130.667 347.207,129.661 347.207,128.642 347.207,127.623 346.185,127.623 
				345.162,127.623 345.162,128.642 346.185,128.642 346.185,129.661 345.162,129.661 345.162,130.667 346.185,130.667 			"/>
			<polygon fill="#787878" points="338.028,135.751 337.006,135.751 337.006,136.771 337.006,137.79 337.006,138.81 
				337.006,139.816 338.028,139.816 338.028,138.81 338.028,137.79 339.045,137.79 339.045,136.771 338.028,136.771 			"/>
			<rect x="337.006" y="133.725" fill="#787878" width="1.022" height="1.008"/>
			<polygon fill="#787878" points="344.146,127.623 344.146,126.603 344.146,125.597 344.146,124.577 344.146,123.558 
				343.123,123.558 342.106,123.558 342.106,124.577 342.106,125.597 343.123,125.597 343.123,126.603 342.106,126.603 
				342.106,125.597 341.084,125.597 341.084,126.603 341.084,127.623 342.106,127.623 343.123,127.623 343.123,128.642 
				344.146,128.642 			"/>
			<path fill="#787878" d="M338.028,142.874h-1.022h-1.017h-1.021h-1.017h-1.023v1.007v1.02v1.02v1.02v1.006v1.02v1.02h1.023h1.017
				h1.021h1.017h1.022h1.017h1.022v-1.02v-1.02v-1.006v-1.02v-1.02v-1.02v-1.007h-1.022H338.028z M339.045,144.9v1.02v1.02v1.006
				v1.02h-1.017h-1.022h-1.017h-1.021h-1.017v-1.02v-1.006v-1.02v-1.02v-1.02h1.017h1.021h1.017h1.022h1.017V144.9z"/>
			<polygon fill="#787878" points="349.246,144.9 349.246,143.881 348.224,143.881 348.224,144.9 348.224,145.92 348.224,146.939 
				349.246,146.939 349.246,145.92 			"/>
			<polygon fill="#787878" points="342.106,144.9 341.084,144.9 341.084,145.92 342.106,145.92 343.123,145.92 343.123,144.9 			"/>
			<polygon fill="#787878" points="355.363,132.707 355.363,131.687 354.34,131.687 353.325,131.687 353.325,132.707 
				352.302,132.707 352.302,133.725 353.325,133.725 354.34,133.725 354.34,132.707 			"/>
			<polygon fill="#787878" points="351.285,128.642 351.285,127.623 350.263,127.623 350.263,126.603 350.263,125.597 
				350.263,124.577 350.263,123.558 349.246,123.558 349.246,124.577 348.224,124.577 347.207,124.577 347.207,123.558 
				346.185,123.558 345.162,123.558 345.162,124.577 345.162,125.597 346.185,125.597 346.185,126.603 347.207,126.603 
				348.224,126.603 348.224,125.597 349.246,125.597 349.246,126.603 348.224,126.603 348.224,127.623 349.246,127.623 
				349.246,128.642 350.263,128.642 			"/>
			<polygon fill="#787878" points="350.263,137.79 351.285,137.79 351.285,136.771 351.285,135.751 351.285,134.732 
				351.285,133.725 350.263,133.725 349.246,133.725 349.246,134.732 350.263,134.732 350.263,135.751 349.246,135.751 
				349.246,136.771 350.263,136.771 			"/>
			<rect x="350.263" y="138.81" fill="#787878" width="1.022" height="1.007"/>
			<polygon fill="#787878" points="342.106,139.816 342.106,140.836 343.123,140.836 344.146,140.836 344.146,139.816 
				343.123,139.816 			"/>
			<rect x="344.146" y="140.836" fill="#787878" width="1.017" height="1.02"/>
			<polygon fill="#787878" points="345.162,138.81 345.162,137.79 346.185,137.79 346.185,138.81 347.207,138.81 347.207,137.79 
				348.224,137.79 348.224,138.81 348.224,139.816 349.246,139.816 349.246,138.81 349.246,137.79 349.246,136.771 348.224,136.771 
				347.207,136.771 346.185,136.771 345.162,136.771 345.162,135.751 346.185,135.751 347.207,135.751 348.224,135.751 
				348.224,134.732 348.224,133.725 348.224,132.707 347.207,132.707 347.207,133.725 347.207,134.732 346.185,134.732 
				345.162,134.732 345.162,133.725 345.162,132.707 344.146,132.707 344.146,133.725 344.146,134.732 343.123,134.732 
				342.106,134.732 341.084,134.732 340.067,134.732 340.067,133.725 341.084,133.725 341.084,132.707 340.067,132.707 
				340.067,131.687 339.045,131.687 339.045,132.707 338.028,132.707 338.028,133.725 339.045,133.725 339.045,134.732 
				339.045,135.751 339.045,136.771 340.067,136.771 340.067,135.751 341.084,135.751 342.106,135.751 343.123,135.751 
				344.146,135.751 344.146,136.771 343.123,136.771 343.123,137.79 343.123,138.81 344.146,138.81 344.146,139.816 
				345.162,139.816 346.185,139.816 346.185,138.81 			"/>
			<polygon fill="#787878" points="347.207,139.816 346.185,139.816 346.185,140.836 347.207,140.836 348.224,140.836 
				348.224,139.816 			"/>
			<rect x="352.302" y="134.732" fill="#787878" width="1.023" height="1.019"/>
			<rect x="352.302" y="142.874" fill="#787878" width="1.023" height="1.007"/>
			<polygon fill="#787878" points="342.106,137.79 342.106,136.771 341.084,136.771 341.084,137.79 341.084,138.81 342.106,138.81 
							"/>
			<polygon fill="#787878" points="341.084,142.874 341.084,143.881 342.106,143.881 342.106,142.874 342.106,141.855 
				341.084,141.855 			"/>
			<rect x="346.185" y="131.687" fill="#787878" width="1.022" height="1.02"/>
			<polygon fill="#787878" points="342.106,131.687 343.123,131.687 343.123,132.707 344.146,132.707 344.146,131.687 
				344.146,130.667 344.146,129.661 343.123,129.661 343.123,130.667 342.106,130.667 341.084,130.667 341.084,131.687 
				341.084,132.707 342.106,132.707 			"/>
			<polygon fill="#787878" points="351.285,131.687 350.263,131.687 350.263,130.667 349.246,130.667 349.246,129.661 
				349.246,128.642 348.224,128.642 348.224,129.661 348.224,130.667 348.224,131.687 349.246,131.687 349.246,132.707 
				350.263,132.707 351.285,132.707 352.302,132.707 352.302,131.687 			"/>
			<rect x="351.285" y="137.79" fill="#787878" width="1.017" height="1.02"/>
			<polygon fill="#787878" points="334.968,136.771 335.989,136.771 335.989,135.751 334.968,135.751 333.951,135.751 
				332.928,135.751 332.928,136.771 333.951,136.771 			"/>
			<polygon fill="#787878" points="334.968,140.836 334.968,141.855 335.989,141.855 337.006,141.855 337.006,140.836 
				335.989,140.836 335.989,139.816 334.968,139.816 333.951,139.816 332.928,139.816 332.928,140.836 333.951,140.836 			"/>
			<path fill="#787878" d="M334.968,130.667h1.021h1.017h1.022h1.017h1.022v-1.006v-1.02v-1.019v-1.02v-1.006v-1.02v-1.02h-1.022
				h-1.017h-1.022h-1.017h-1.021h-1.017h-1.023v1.02v1.02v1.006v1.02v1.019v1.02v1.006h1.023H334.968z M333.951,128.642v-1.019
				v-1.02v-1.006v-1.02h1.017h1.021h1.017h1.022h1.017v1.02v1.006v1.02v1.019v1.02h-1.017h-1.022h-1.017h-1.021h-1.017V128.642z"/>
			<polygon fill="#787878" points="358.419,141.855 359.441,141.855 359.441,140.836 358.419,140.836 357.402,140.836 
				357.402,141.855 			"/>
			<polygon fill="#787878" points="333.951,133.725 334.968,133.725 334.968,134.732 335.989,134.732 335.989,133.725 
				335.989,132.707 334.968,132.707 334.968,131.687 333.951,131.687 333.951,132.707 332.928,132.707 332.928,133.725 
				332.928,134.732 333.951,134.732 			"/>
			<rect x="332.928" y="137.79" fill="#787878" width="1.023" height="1.02"/>
			<polygon fill="#787878" points="358.419,143.881 357.402,143.881 357.402,144.9 356.38,144.9 356.38,145.92 357.402,145.92 
				358.419,145.92 358.419,146.939 359.441,146.939 359.441,145.92 359.441,144.9 359.441,143.881 359.441,142.874 358.419,142.874 
							"/>
			<rect x="354.34" y="148.965" fill="#787878" width="1.023" height="1.02"/>
			<rect x="352.302" y="148.965" fill="#787878" width="1.023" height="1.02"/>
			<rect x="358.419" y="148.965" fill="#787878" width="1.022" height="1.02"/>
			<path fill="#787878" d="M358.419,123.558h-1.017h-1.022h-1.017h-1.023h-1.015h-1.023v1.02v1.02v1.006v1.02v1.019v1.02v1.006
				h1.023h1.015h1.023h1.017h1.022h1.017h1.022v-1.006v-1.02v-1.019v-1.02v-1.006v-1.02v-1.02H358.419z M358.419,125.597v1.006v1.02
				v1.019v1.02h-1.017h-1.022h-1.017h-1.023h-1.015v-1.02v-1.019v-1.02v-1.006v-1.02h1.015h1.023h1.017h1.022h1.017V125.597z"/>
			<rect x="358.419" y="131.687" fill="#787878" width="1.022" height="1.02"/>
			<polygon fill="#787878" points="358.419,134.732 357.402,134.732 356.38,134.732 356.38,133.725 355.363,133.725 354.34,133.725 
				354.34,134.732 355.363,134.732 355.363,135.751 355.363,136.771 355.363,137.79 354.34,137.79 354.34,138.81 355.363,138.81 
				356.38,138.81 356.38,139.816 356.38,140.836 357.402,140.836 357.402,139.816 357.402,138.81 358.419,138.81 358.419,139.816 
				359.441,139.816 359.441,138.81 359.441,137.79 358.419,137.79 358.419,136.771 357.402,136.771 357.402,137.79 356.38,137.79 
				356.38,136.771 356.38,135.751 357.402,135.751 358.419,135.751 358.419,136.771 359.441,136.771 359.441,135.751 
				359.441,134.732 359.441,133.725 358.419,133.725 			"/>
			<polygon fill="#787878" points="335.989,144.9 334.968,144.9 334.968,145.92 334.968,146.939 334.968,147.945 335.989,147.945 
				337.006,147.945 338.028,147.945 338.028,146.939 338.028,145.92 338.028,144.9 337.006,144.9 			"/>
			<rect x="335.989" y="131.687" fill="#787878" width="1.017" height="1.02"/>
			<polygon fill="#787878" points="337.006,128.642 338.028,128.642 338.028,127.623 338.028,126.603 338.028,125.597 
				337.006,125.597 335.989,125.597 334.968,125.597 334.968,126.603 334.968,127.623 334.968,128.642 335.989,128.642 			"/>
			<path fill="#787878" d="M353.325,147.945h1.015v-1.006v-1.02h1.023v-1.02v-1.02v-1.007v-1.019v-1.02v-1.02h-1.023v1.02h-1.015
				v-1.02v-1.007h-1.023v1.007v1.02h-1.017h-1.022h-1.017h-1.022v1.02h1.022h1.017v1.019v1.007v1.02v1.02h1.022h1.017h1.023v1.02
				V147.945z M352.302,144.9h-1.017v-1.02v-1.007v-1.019h1.017h1.023h1.015v1.019v1.007v1.02h-1.015H352.302z"/>
			<rect x="349.246" y="146.939" fill="#787878" width="1.017" height="1.006"/>
			<polygon fill="#787878" points="356.38,146.939 355.363,146.939 355.363,147.945 355.363,148.965 356.38,148.965 356.38,149.984 
				357.402,149.984 357.402,148.965 358.419,148.965 358.419,147.945 358.419,146.939 357.402,146.939 			"/>
			<rect x="341.084" y="146.939" fill="#787878" width="1.022" height="1.006"/>
			<polygon fill="#787878" points="347.207,146.939 347.207,145.92 347.207,144.9 347.207,143.881 347.207,142.874 347.207,141.855 
				346.185,141.855 346.185,142.874 345.162,142.874 345.162,143.881 346.185,143.881 346.185,144.9 345.162,144.9 345.162,143.881 
				344.146,143.881 344.146,142.874 343.123,142.874 343.123,143.881 343.123,144.9 344.146,144.9 344.146,145.92 343.123,145.92 
				343.123,146.939 343.123,147.945 344.146,147.945 344.146,148.965 344.146,149.984 345.162,149.984 345.162,148.965 
				345.162,147.945 345.162,146.939 345.162,145.92 346.185,145.92 346.185,146.939 346.185,147.945 346.185,148.965 
				346.185,149.984 347.207,149.984 348.224,149.984 348.224,148.965 348.224,147.945 347.207,147.945 			"/>
			<polygon fill="#787878" points="351.285,147.945 350.263,147.945 350.263,148.965 349.246,148.965 349.246,149.984 
				350.263,149.984 351.285,149.984 351.285,148.965 352.302,148.965 352.302,147.945 			"/>
			<polygon fill="#787878" points="342.106,148.965 342.106,149.984 343.123,149.984 343.123,148.965 343.123,147.945 
				342.106,147.945 			"/>
			<polygon fill="#787878" points="355.363,125.597 354.34,125.597 354.34,126.603 354.34,127.623 354.34,128.642 355.363,128.642 
				356.38,128.642 357.402,128.642 357.402,127.623 357.402,126.603 357.402,125.597 356.38,125.597 			"/>
			<polygon fill="#787878" points="357.402,132.707 357.402,131.687 356.38,131.687 356.38,132.707 356.38,133.725 357.402,133.725 
							"/>
		</g>
		<g>
			<path fill="#B0B1B1" d="M333.208,111.306c0,0.39-0.142,0.696-0.423,0.918c-0.282,0.222-0.672,0.333-1.167,0.333
				c-0.496,0-0.903-0.077-1.219-0.231v-0.678c0.2,0.094,0.413,0.168,0.638,0.222c0.226,0.054,0.435,0.081,0.629,0.081
				c0.284,0,0.493-0.054,0.629-0.162c0.134-0.108,0.202-0.253,0.202-0.435c0-0.164-0.063-0.303-0.187-0.417
				c-0.124-0.114-0.38-0.249-0.768-0.405c-0.4-0.162-0.683-0.347-0.847-0.555c-0.163-0.208-0.246-0.458-0.246-0.75
				c0-0.366,0.131-0.654,0.391-0.864c0.26-0.21,0.609-0.315,1.047-0.315c0.42,0,0.838,0.092,1.254,0.276l-0.228,0.585
				c-0.391-0.164-0.738-0.246-1.044-0.246c-0.232,0-0.408,0.05-0.528,0.151s-0.18,0.234-0.18,0.401c0,0.114,0.023,0.211,0.071,0.292
				c0.048,0.081,0.128,0.157,0.237,0.229c0.109,0.072,0.308,0.167,0.594,0.285c0.322,0.134,0.559,0.259,0.708,0.375
				c0.15,0.116,0.26,0.247,0.33,0.393C333.173,110.936,333.208,111.108,333.208,111.306z"/>
			<path fill="#B0B1B1" d="M335.923,108.663c-0.412,0-0.736,0.146-0.972,0.438c-0.236,0.292-0.354,0.695-0.354,1.209
				c0,0.539,0.114,0.945,0.341,1.221c0.228,0.276,0.556,0.414,0.985,0.414c0.187,0,0.366-0.019,0.54-0.055
				c0.175-0.037,0.355-0.084,0.543-0.143v0.615c-0.344,0.13-0.734,0.195-1.17,0.195c-0.642,0-1.135-0.194-1.479-0.583
				s-0.517-0.946-0.517-1.67c0-0.456,0.084-0.855,0.25-1.197c0.168-0.342,0.409-0.604,0.726-0.786
				c0.315-0.182,0.687-0.273,1.112-0.273c0.448,0,0.862,0.094,1.242,0.282l-0.258,0.597c-0.148-0.07-0.304-0.131-0.47-0.185
				C336.279,108.689,336.105,108.663,335.923,108.663z"/>
			<path fill="#B0B1B1" d="M340.673,112.498l-0.438-1.218h-1.677l-0.429,1.218h-0.757l1.642-4.404h0.78l1.641,4.404H340.673z
				 M340.046,110.661l-0.411-1.194c-0.03-0.08-0.071-0.206-0.125-0.378c-0.053-0.172-0.089-0.298-0.109-0.378
				c-0.054,0.246-0.133,0.515-0.237,0.807l-0.396,1.143H340.046z"/>
			<path fill="#B0B1B1" d="M345.668,112.498h-0.879l-2.157-3.496h-0.024l0.016,0.195c0.027,0.372,0.042,0.712,0.042,1.02v2.28
				h-0.651v-4.387h0.87l2.151,3.478h0.018c-0.003-0.046-0.012-0.213-0.023-0.502s-0.019-0.515-0.019-0.677v-2.298h0.657V112.498z"/>
			<path fill="#B0B1B1" d="M350.48,112.498h-0.879l-2.157-3.496h-0.024l0.016,0.195c0.027,0.372,0.042,0.712,0.042,1.02v2.28h-0.651
				v-4.387h0.87l2.151,3.478h0.018c-0.003-0.046-0.012-0.213-0.023-0.502s-0.019-0.515-0.019-0.677v-2.298h0.657V112.498z"/>
			<path fill="#B0B1B1" d="M351.639,112.498v-4.387h0.717v4.387H351.639z"/>
			<path fill="#B0B1B1" d="M357.168,112.498h-0.879l-2.157-3.496h-0.023l0.015,0.195c0.028,0.372,0.042,0.712,0.042,1.02v2.28
				h-0.651v-4.387h0.87l2.151,3.478h0.019c-0.005-0.046-0.013-0.213-0.024-0.502s-0.018-0.515-0.018-0.677v-2.298h0.656V112.498z"/>
			<path fill="#B0B1B1" d="M360.121,110.118h1.614v2.202c-0.265,0.086-0.518,0.147-0.762,0.183
				c-0.242,0.036-0.505,0.054-0.787,0.054c-0.663,0-1.176-0.197-1.536-0.589c-0.359-0.394-0.54-0.948-0.54-1.664
				c0-0.706,0.203-1.258,0.609-1.658c0.406-0.398,0.966-0.599,1.677-0.599c0.459,0,0.892,0.088,1.303,0.264l-0.252,0.597
				c-0.356-0.164-0.712-0.246-1.068-0.246c-0.468,0-0.838,0.147-1.11,0.441s-0.408,0.696-0.408,1.206
				c0,0.536,0.123,0.944,0.367,1.223c0.246,0.279,0.598,0.419,1.059,0.419c0.231,0,0.479-0.029,0.744-0.087v-1.131h-0.909V110.118z"
				/>
		</g>
		<rect x="326.48" y="131.609" fill="#ED7272" width="39.13" height="2.034"/>
	</g>
	<polygon fill="#B0B1B1" points="299.065,134.91 293.856,131.317 293.856,136.025 279.273,136.025 279.273,140.979 293.856,140.979 
		293.856,145.685 299.065,142.092 304.274,138.502 	"/>
</g>
<g>
</g>
<g>
</g>
<g>
</g>
<g>
</g>
<g>
</g>
<g>
</g>
</svg>
