<?xml version="1.0" encoding="UTF-8"?>
<svg width="216px" height="168px" viewBox="0 0 216 168" version="1.1" xmlns="http://www.w3.org/2000/svg" xmlns:xlink="http://www.w3.org/1999/xlink">
    <!-- Generator: Sketch 52.4 (67378) - http://www.bohemiancoding.com/sketch -->
    <title>passport-instruction-green</title>
    <desc>Created with Sketch.</desc>
    <g id="passport-instruction-green" stroke="none" stroke-width="1" fill="none" fill-rule="evenodd">
        <g fill-rule="nonzero">
            <g id="Group" transform="translate(27.000000, 0.000000)" fill="#505366">
                <path d="M131.380977,40.9234872 C131.423233,40.3728214 131.903892,39.9606745 132.454558,40.0029314 C133.005224,40.0451883 133.417371,40.5258471 133.375114,41.0765128 C133.099753,44.6648438 127.940102,55.3177265 124.526525,58.3937445 C123.794234,59.0536213 122.90785,59.8296096 121.605179,60.9558246 C121.595777,60.9639528 118.928801,63.2645479 118.140065,63.9490726 C117.941436,64.121458 117.749627,64.2882157 117.56295,64.4508322 C114.224445,67.3590494 112.077322,69.3413131 110.862247,70.6991503 C110.352096,71.2692593 109.776932,72.0047029 109.150896,72.8801309 C108.746082,73.4462082 108.32422,74.0648946 107.88932,74.7277599 C107.085145,75.953467 106.275271,77.2695025 105.500904,78.5858852 C105.22974,79.046851 104.982494,79.4747464 104.764228,79.8584301 C104.633762,80.0877703 104.542312,80.2507494 104.494592,80.3368335 C104.454839,80.4084342 104.376784,80.560352 104.273084,80.7822487 C104.096244,81.1606514 103.918556,81.5890099 103.752541,82.0566972 C103.110278,83.86604 102.829844,85.7006148 103.102307,87.3695372 C103.395123,89.1631296 104.312602,90.652851 106.012134,91.797514 C110.510273,94.827693 115.061117,92.1004551 119.43419,86.6528386 C120.424927,85.4185518 121.451099,84.5670213 123.414624,83.188584 C123.613058,83.0494372 123.613058,83.0494372 123.809888,82.9115571 C125.14568,81.9752445 125.802247,81.4736348 126.46748,80.8369335 C127.050909,80.2785275 131.664418,75.6349719 132.584145,74.7201966 C132.773724,74.5317211 132.773724,74.5317211 132.963508,74.3433929 C136.553089,70.7831036 138.784582,68.7109058 139.761788,68.1506351 C140.344077,67.8166735 143.881186,65.627903 143.677396,65.7525469 C143.850096,65.6469185 144.016681,65.5454722 144.17876,65.4472616 C146.342682,64.1360469 147.816276,63.3323559 148.775154,63.002104 C149.308946,62.8187056 156.826763,60.4400738 158.490759,59.9073285 C158.728371,59.8312307 158.728371,59.8312307 158.965803,59.7550902 C163.437189,58.3206914 166.433087,57.3174022 167.656379,56.8244055 C170.47508,55.6878147 178.254208,48.868673 181.207633,45.0325623 C181.544551,44.5949499 182.172432,44.513321 182.610044,44.8502391 C183.047657,45.1871572 183.129285,45.8150383 182.792367,46.2526507 C179.640901,50.3459918 171.608273,57.3873497 168.404147,58.6793564 C167.11537,59.1987443 164.107059,60.2061903 159.576727,61.6594985 C159.338731,61.7358202 159.338731,61.7358202 159.100587,61.8120883 C157.40488,62.3549862 149.931695,64.7194965 149.425729,64.8933341 C148.654834,65.1588421 147.245878,65.9272799 145.215217,67.157746 C145.055589,67.2544716 144.891355,67.3544857 144.720942,67.4587159 C144.960392,67.3122604 141.373027,69.53213 140.756691,69.885619 C140.01163,70.3127916 137.748342,72.4145148 134.371916,75.7633884 C134.183163,75.9506934 134.183163,75.9506934 133.994537,76.1382218 C133.092307,77.0355941 128.455172,81.7029296 127.850369,82.2817924 C127.089578,83.0099533 126.373864,83.5567503 124.957848,84.5492957 C124.760253,84.687712 124.760253,84.687712 124.563769,84.8254916 C122.745983,86.1016164 121.833394,86.8588944 120.99386,87.9048088 C119.184945,90.1582068 117.30498,92.0182956 115.044692,93.3728454 C111.630472,95.4189253 108.158718,95.6550417 104.894803,93.4562998 C102.72644,91.9958717 101.508167,90.0177493 101.128438,87.6917844 C100.793439,85.6398092 101.122489,83.4871987 101.867764,81.3876573 C102.191743,80.4749629 102.518387,79.7760094 102.745695,79.3665978 C102.796558,79.2748429 102.891599,79.1054648 103.02583,78.8695051 C103.248723,78.4776888 103.500786,78.0414556 103.77705,77.5718215 C104.566765,76.2293471 105.393122,74.8865256 106.217102,73.6306327 C106.665964,72.9464879 107.102714,72.3059666 107.524071,71.7167559 C108.189144,70.7867396 108.807038,69.9966589 109.371846,69.3654702 C110.662128,67.9235896 112.845824,65.90756 116.249264,62.9427779 C116.436897,62.7793282 116.62963,62.6117667 116.829162,62.438598 C117.620595,61.7517327 120.289756,59.4492524 120.297154,59.4428573 C121.590167,58.3249914 122.468155,57.5563538 123.187682,56.9079785 C126.216667,54.1785219 131.144577,44.0041038 131.380977,40.9234872 Z" id="Stroke-1"></path>
                <path d="M125,16.5297765 C125,15.1364779 123.884903,14 122.536629,14 L4.46337138,14 C3.11562537,14 2,15.1368199 1.99924799,16.4910021 L4.59752854,83.4702235 C4.59752854,84.8631801 5.71315391,86 7.06089992,86 L100.879473,86 C100.940394,84.7536527 101.112331,83.5612112 101.364046,82.4462365 C101.556774,81.5925449 101.752351,80.9617092 101.889565,80.6017306 L101.945965,80.4792805 C101.996216,80.3870957 102.09013,80.2168965 102.222774,79.9797805 C102.443041,79.5860283 102.692134,79.1476356 102.965143,78.6756742 C103.745554,77.3265434 104.562156,75.9770635 105.376378,74.7149534 C105.819603,74.0279191 106.250869,73.3846621 106.666939,72.7928914 C107.324008,71.8583495 107.934461,71.0643662 108.492581,70.429843 C109.767576,68.9807657 111.925388,66.9546863 115.288413,63.9751886 C115.473815,63.8109307 115.664255,63.6425408 115.861414,63.4685161 C116.643431,62.7782582 119.280809,60.4644263 119.288111,60.4580058 C120.565693,59.3346594 121.433196,58.5622595 122.143748,57.9110615 C122.702397,57.3985654 123.326597,56.6480618 123.987165,55.6988437 L125,16.5297765 Z M103.627732,81.7059194 C103.521739,82.0477979 103.414994,82.4435143 103.314948,82.8866685 C103.027641,84.1592999 102.855009,85.5475337 102.855009,87 C102.855009,87.5522847 102.407294,88 101.855009,88 L7.06089992,88 C4.60007196,88 2.59752854,85.9594125 2.59828055,83.5089979 L-1.20792265e-13,16.5297765 C-1.20792265e-13,14.0405875 2.00254342,12 4.46337138,12 L122.536629,12 C124.998063,12 127,14.040321 126.999666,16.5556175 L125.978837,56.0467572 C125.97389,56.2381473 125.914106,56.4240944 125.806587,56.5825064 C125.005208,57.7632136 124.230702,58.7106301 123.495404,59.3851796 C122.771796,60.0483438 121.895941,60.8281806 120.608753,61.9599725 C120.599457,61.9681469 117.964253,64.2800711 117.184919,64.9679605 C116.988659,65.1411926 116.799138,65.3087692 116.614688,65.4721842 C113.316065,68.3946238 111.194639,70.3865387 109.99421,71.7508687 C109.490081,72.3240105 108.921685,73.0632929 108.303022,73.9432094 C107.90319,74.5118859 107.486529,75.1333574 107.056997,75.799167 C106.262194,77.0311765 105.461742,78.3539676 104.696365,79.6771078 C104.428348,80.1404413 104.183969,80.5705367 103.968228,80.9561969 C103.866227,81.1385355 103.788348,81.2791486 103.737057,81.3725084 C103.711539,81.4445269 103.674038,81.5565593 103.627732,81.7059194 Z" id="Stroke-3"></path>
                <path d="M7.18940636,88 C5.83779971,88 4.72980212,89.0982223 4.72943867,90.4560406 L3,154.570918 C3,155.9023 4.10766114,157 5.45960424,157 L122.540396,157 C123.892867,157 125,155.902635 125.000363,154.597877 L123.270561,90.4560406 L123.270198,90.429082 C123.270198,89.4262858 122.634931,88.5306093 121.705815,88.1684895 C121.099353,88.272874 119.880355,89.0262134 118.698575,90.1799785 C118.569729,90.3057702 117.935372,90.9698418 117.858041,91.049216 C117.409804,91.5093002 117.004855,91.8964253 116.565484,92.2721566 C113.186266,95.161923 109.337995,95.9395409 104.782501,93.3710857 C102.84955,92.2812595 101.976061,91.0477256 101.069466,88 L7.18940636,88 Z M127,154.570918 C127,157.011191 124.993489,159 122.540396,159 L5.45960424,159 C3.00711599,159 1,157.010935 1.00036345,154.543959 L2.72980212,90.429082 C2.72980212,87.989666 4.73717814,86 7.18940636,86 L101.823769,86 C102.273864,86 102.668495,86.3006974 102.787924,86.7346577 C103.647991,89.8598202 104.219458,90.7576487 105.764763,91.6289143 C109.507488,93.7391182 112.473652,93.1397472 115.265641,90.752154 C115.652974,90.4209232 116.016255,90.0736326 116.425504,89.6535667 C116.480448,89.5971709 117.143131,88.9034457 117.301425,88.7489044 C118.917548,87.1710934 120.636413,86.1560232 121.838096,86.1560232 C121.938688,86.1560232 122.038705,86.171201 122.134769,86.2010439 C123.975234,86.7728001 125.263854,88.473671 125.270175,90.414737 L127,154.570918 Z" id="Stroke-5"></path>
                <path d="M127.629154,18.7772803 C127.199874,19.1247527 126.570192,19.0584345 126.22272,18.6291545 C125.875247,18.1998744 125.941565,17.5701921 126.370846,17.2227197 C128.00491,15.9000582 133.421783,13.8893388 142.320431,11.0913401 C143.479227,10.7269801 144.692567,10.3509428 145.967348,9.96068725 C148.693875,9.12600052 164.553868,4.43852495 165.346707,4.10361014 C165.795929,3.91370771 166.296542,3.66060444 166.838174,3.35230978 C167.32331,3.07617186 167.834169,2.75990461 168.362702,2.41125205 C169.088515,1.93246202 169.810288,1.41787319 170.493263,0.903228827 C170.732246,0.723147644 170.949039,0.556130258 171.139406,0.406602831 C171.252435,0.317821947 171.330699,0.255287833 171.36999,0.223413242 C171.798887,-0.124531852 172.428642,-0.0589073462 172.776587,0.369989677 C173.124532,0.798886701 173.058907,1.42864166 172.63001,1.77658676 C172.582784,1.81489941 172.496344,1.88396637 172.37481,1.97942699 C172.17424,2.13696874 171.946896,2.31211414 171.696872,2.50051597 C170.982684,3.0386802 170.227765,3.57689997 169.463992,4.0807313 C168.900841,4.4522196 168.353314,4.79118817 167.827524,5.09046534 C167.222208,5.43500905 166.653434,5.72257378 166.12521,5.94587285 C165.211166,6.33198786 149.061543,11.1050644 146.552799,11.8730802 C145.282653,12.2619171 144.074094,12.6364725 142.920334,12.999249 C134.406185,15.67635 128.9648,17.6961677 127.629154,18.7772803 Z" id="Stroke-7"></path>
                <path d="M138.938511,72.097656 C139.23769,71.6334252 139.856556,71.4996246 140.320787,71.7988038 C140.785018,72.0979831 140.918819,72.7168492 140.619639,73.18108 C140.182867,73.8588117 139.917404,75.1621094 139.76538,77.145996 C139.725354,77.6683344 139.71713,77.807882 139.646478,79.0850636 C139.56925,80.4811096 139.513314,81.136736 139.394873,81.7204194 C138.730251,85.0029586 138.598629,85.7007496 138.470714,86.8064926 C138.434028,87.1221609 138.41371,87.4386826 138.380052,88.1314405 C138.370634,88.3257936 138.366142,88.4172836 138.360684,88.523488 C138.307918,89.5502205 138.245619,90.170702 138.107137,90.731488 C138.10265,90.7495807 137.960782,91.2889849 137.89622,91.5468409 C137.775384,92.0294474 137.662212,92.5220871 137.555589,93.045601 C137.18782,94.8513123 136.978679,96.622962 137.001681,98.2643828 C137.048993,101.640642 138.059511,103.888628 140.229399,104.73703 C142.46401,105.610977 144.465979,104.212879 146.238595,100.915287 C147.536767,98.5003025 148.590795,95.0639124 148.759314,93.4887682 C148.779546,93.3004737 148.796607,93.1011039 148.811702,92.8816909 C148.829863,92.6177028 148.840043,92.4237883 148.864333,91.9129737 C148.951263,90.0848313 149.051126,89.3286804 149.450711,88.5030151 C150.109938,87.139794 150.700754,85.4651663 150.897874,84.2118664 C151.241168,82.0304158 151.88239,79.1036356 152.552604,76.99297 C153.290429,74.6702308 158.654274,65.2616574 159.926906,63.8602693 C160.828022,62.8679146 161.370869,62.2545577 162.013677,61.4791543 C162.284605,61.1523418 162.537636,60.837343 162.771175,60.5351078 C163.377626,59.7502685 163.836054,59.072617 164.112147,58.5398726 C164.366268,58.0495249 164.96978,57.8580258 165.460127,58.1121471 C165.950475,58.3662685 166.141974,58.9697798 165.887853,59.4601274 C165.546453,60.1188864 165.027199,60.8864517 164.35376,61.7579829 C164.105479,62.0792961 163.838271,62.4119444 163.553397,62.7555803 C162.88599,63.5606566 162.327839,64.1913054 161.407523,65.2048038 C160.330205,66.3911171 155.110374,75.54708 154.458778,77.5983612 C153.822982,79.6006393 153.20238,82.4333001 152.873573,84.5226931 C152.641414,85.9987778 151.988892,87.8483043 151.251102,89.3739863 C151.016741,89.8582492 150.934791,90.4787647 150.862076,92.0079688 C150.837089,92.5334325 150.826465,92.7358197 150.806986,93.0189592 C150.790233,93.262467 150.771029,93.486874 150.747917,93.70198 C150.552103,95.5322484 149.421555,99.2181146 148.000208,101.86224 C145.808577,105.939324 142.938144,107.943925 139.501024,106.599681 C136.407022,105.389962 135.059324,102.391889 135.001877,98.2924064 C134.976599,96.488505 135.201725,94.5814388 135.595822,92.6464563 C135.708751,92.0919883 135.828455,91.5709104 135.956109,91.0610732 C136.024706,90.7871033 136.165811,90.2505965 136.165703,90.2510352 C136.263483,89.8550736 136.317009,89.3219671 136.36332,88.4208395 C136.36864,88.3173151 136.373011,88.2282943 136.382409,88.0343857 C136.41833,87.2950217 136.440358,86.9518625 136.484024,86.5761375 C136.621485,85.3878767 136.754348,84.6835036 137.434734,81.3231073 C137.526272,80.8720061 137.578308,80.2620868 137.649531,78.9745942 C137.721209,77.6788754 137.729621,77.5361391 137.771227,76.9931855 C137.948357,74.681661 138.260343,73.1499568 138.938511,72.097656 Z" id="Stroke-9"></path>
                <path d="M123.314378,92.1689638 C123.221062,91.6246197 123.586692,91.1076939 124.131036,91.0143777 C124.67538,90.9210616 125.192306,91.286692 125.285622,91.8310362 C125.691437,94.1982907 126.281452,96.6367572 127.035206,99.2081395 C127.622971,101.213261 129.299985,106.219847 129.399963,106.683797 C129.444779,106.890701 129.476168,107.127894 129.512843,107.493093 C129.524109,107.605271 129.572705,108.120272 129.587127,108.264733 C129.61942,108.588215 129.65088,108.863606 129.688062,109.136327 C129.782562,109.829462 129.907671,110.447325 130.081588,111.024936 C130.713323,113.123056 131.908215,114.444178 134.006751,114.904835 C136.232885,115.393065 137.599232,113.90634 138.394655,110.742981 C138.73167,109.402688 138.876995,108.223694 139.002627,106.493734 C139.042629,105.9429 139.521596,105.528789 140.07243,105.568791 C140.623265,105.608794 141.037376,106.087761 140.997373,106.638595 C140.863823,108.477596 140.707357,109.746973 140.334277,111.230697 C139.309797,115.305004 137.160207,117.643978 133.578116,116.858363 C130.695966,116.225692 128.991347,114.340995 128.166514,111.601557 C127.959258,110.913218 127.814037,110.196036 127.706394,109.406502 C127.665573,109.107087 127.631514,108.808936 127.597019,108.46341 C127.581859,108.311552 127.533337,107.797332 127.522853,107.692939 C127.493381,107.399471 127.469481,107.218863 127.445067,107.106152 C127.372625,106.769981 125.731377,101.87017 125.115964,99.7707308 C124.342048,97.1305677 123.734477,94.6195452 123.314378,92.1689638 Z" id="Stroke-11"></path>
                <path d="M126.275026,113.961437 C125.744039,114.11333 125.190456,113.806013 125.038563,113.275026 C124.88667,112.744039 125.193987,112.190456 125.724974,112.038563 C126.298794,111.874418 126.743274,110.814464 126.91386,109.010453 C126.988477,108.221351 127.004489,107.538615 127.000723,106.329203 C127.000183,106.15903 127.000183,106.15903 127,106 C127,105.447715 127.447715,105 128,105 C128.552285,105 129,105.447715 129,106 C129.000176,106.153465 129.000176,106.153465 129.000713,106.322975 C129.004674,107.594847 128.987533,108.325673 128.904978,109.198732 C128.661462,111.774003 127.944441,113.483888 126.275026,113.961437 Z" id="Stroke-13"></path>
                <path d="M171,57 C170.447715,57 170,56.5522847 170,56 C170,55.4477153 170.447715,55 171,55 C173.633436,55 184.458394,51.0045843 187.476043,49.1482553 C187.946448,48.8588818 188.562371,49.0056373 188.851745,49.4760429 C189.141118,49.9464485 188.994363,50.5623712 188.523957,50.8517447 C185.219675,52.8843984 174.069091,57 171,57 Z" id="Stroke-15"></path>
                <path d="M36.5,126 C28.4918711,126 22,119.508129 22,111.5 C22,103.491871 28.4918711,97 36.5,97 C44.5081289,97 51,103.491871 51,111.5 C51,119.508129 44.5081289,126 36.5,126 Z M36.5,124 C43.4035594,124 49,118.403559 49,111.5 C49,104.596441 43.4035594,99 36.5,99 C29.5964406,99 24,104.596441 24,111.5 C24,118.403559 29.5964406,124 36.5,124 Z" id="Oval-5"></path>
                <path d="M36,148 C42.9753055,148 49.9518663,147.267107 56.9317629,145.800586 C56.1230498,136.387747 48.2261806,129 38.6038106,129 L33.3961894,129 C23.7738194,129 15.8769502,136.387747 15.0682371,145.800586 C22.0481337,147.267107 29.0246945,148 36,148 Z M33.3961894,127 L38.6038106,127 C49.868315,127 59,136.131685 59,147.396189 C51.3333333,149.132063 43.6666667,150 36,150 C28.3333333,150 20.6666667,149.132063 13,147.396189 C13,136.131685 22.131685,127 33.3961894,127 Z" id="Rectangle-15"></path>
                <path d="M70.2177419,103.5 C69.6654572,103.5 69.2177419,103.052285 69.2177419,102.5 C69.2177419,101.947715 69.6654572,101.5 70.2177419,101.5 L96.7858274,101.5 C97.3381121,101.5 97.7858274,101.947715 97.7858274,102.5 C97.7858274,103.052285 97.3381121,103.5 96.7858274,103.5 L70.2177419,103.5 Z" id="Line-3"></path>
                <path d="M70.244186,112.5 C69.6919013,112.5 69.244186,112.052285 69.244186,111.5 C69.244186,110.947715 69.6919013,110.5 70.244186,110.5 L90.5130989,110.5 C91.0653836,110.5 91.5130989,110.947715 91.5130989,111.5 C91.5130989,112.052285 91.0653836,112.5 90.5130989,112.5 L70.244186,112.5 Z" id="Line-3-Copy"></path>
                <path d="M70.2197802,147.5 C69.6674955,147.5 69.2197802,147.052285 69.2197802,146.5 C69.2197802,145.947715 69.6674955,145.5 70.2197802,145.5 L109.610135,145.5 C110.16242,145.5 110.610135,145.947715 110.610135,146.5 C110.610135,147.052285 110.16242,147.5 109.610135,147.5 L70.2197802,147.5 Z" id="Line-3-Copy-2"></path>
                <path d="M70.2197802,137.5 C69.6674955,137.5 69.2197802,137.052285 69.2197802,136.5 C69.2197802,135.947715 69.6674955,135.5 70.2197802,135.5 L109.610135,135.5 C110.16242,135.5 110.610135,135.947715 110.610135,136.5 C110.610135,137.052285 110.16242,137.5 109.610135,137.5 L70.2197802,137.5 Z" id="Line-3-Copy-3"></path>
            </g>
            <path d="M18.6218905,31 C17.5393025,31 16.6616915,30.1045695 16.6616915,29 C16.6616915,27.8954305 17.5393025,27 18.6218905,27 L28.4228856,27 C29.5054736,27 30.3830846,27.8954305 30.3830846,29 C30.3830846,30.1045695 29.5054736,31 28.4228856,31 L18.6218905,31 Z M38.2238806,31 C37.1412926,31 36.2636816,30.1045695 36.2636816,29 C36.2636816,27.8954305 37.1412926,27 38.2238806,27 L48.0248756,27 C49.1074636,27 49.9850746,27.8954305 49.9850746,29 C49.9850746,30.1045695 49.1074636,31 48.0248756,31 L38.2238806,31 Z M57.8258706,31 C56.7432826,31 55.8656716,30.1045695 55.8656716,29 C55.8656716,27.8954305 56.7432826,27 57.8258706,27 L67.6268657,27 C68.7094537,27 69.5870647,27.8954305 69.5870647,29 C69.5870647,30.1045695 68.7094537,31 67.6268657,31 L57.8258706,31 Z M77.4278607,31 C76.3452727,31 75.4676617,30.1045695 75.4676617,29 C75.4676617,27.8954305 76.3452727,27 77.4278607,27 L87.2288557,27 C88.3114437,27 89.1890547,27.8954305 89.1890547,29 C89.1890547,30.1045695 88.3114437,31 87.2288557,31 L77.4278607,31 Z M97.0298507,31 C95.9472627,31 95.0696517,30.1045695 95.0696517,29 C95.0696517,27.8954305 95.9472627,27 97.0298507,27 L106.830846,27 C107.913434,27 108.791045,27.8954305 108.791045,29 C108.791045,30.1045695 107.913434,31 106.830846,31 L97.0298507,31 Z M116.631841,31 C115.549253,31 114.671642,30.1045695 114.671642,29 C114.671642,27.8954305 115.549253,27 116.631841,27 L126.432836,27 C127.515424,27 128.393035,27.8954305 128.393035,29 C128.393035,30.1045695 127.515424,31 126.432836,31 L116.631841,31 Z M136.233831,31 C135.151243,31 134.273632,30.1045695 134.273632,29 C134.273632,27.8954305 135.151243,27 136.233831,27 L146.034826,27 C147.117414,27 147.995025,27.8954305 147.995025,29 C147.995025,30.1045695 147.117414,31 146.034826,31 L136.233831,31 Z M155.835821,31 C154.753233,31 153.875622,30.1045695 153.875622,29 C153.875622,27.8954305 154.753233,27 155.835821,27 L165.636816,27 C166.719404,27 167.597015,27.8954305 167.597015,29 C167.597015,30.1045695 166.719404,31 165.636816,31 L155.835821,31 Z M175.437811,31 C174.355223,31 173.477612,30.1045695 173.477612,29 C173.477612,27.8954305 174.355223,27 175.437811,27 L178.378109,27 C180.994358,27 183.538189,27.5519791 185.883365,28.6068164 C186.873967,29.0523798 187.322997,30.2329276 186.886301,31.2436437 C186.449604,32.2543598 185.29255,32.7125066 184.301947,32.2669433 C182.452704,31.4351716 180.447187,31 178.378109,31 L175.437811,31 Z M190.771803,37.9279044 C190.188326,36.9974941 190.454562,35.7606422 191.366456,35.1653184 C192.278351,34.5699945 193.490589,34.8416357 194.074066,35.772046 C195.955666,38.7724414 196.980166,42.2578843 196.999744,45.903829 L197,46.4635082 C197.000505,47.5680776 196.123304,48.4639258 195.040716,48.4644412 C193.958128,48.4649566 193.080107,47.5699441 193.079602,46.4653747 L193.079376,45.9157332 C193.063926,43.0421169 192.25662,40.2955903 190.771803,37.9279044 Z M193.079602,56.4644414 C193.079602,55.3598719 193.957213,54.4644414 195.039801,54.4644414 C196.122389,54.4644414 197,55.3598719 197,56.4644414 L197,66.4644414 C197,67.5690109 196.122389,68.4644414 195.039801,68.4644414 C193.957213,68.4644414 193.079602,67.5690109 193.079602,66.4644414 L193.079602,56.4644414 Z M193.079602,76.4644414 C193.079602,75.3598719 193.957213,74.4644414 195.039801,74.4644414 C196.122389,74.4644414 197,75.3598719 197,76.4644414 L197,86.4644414 C197,87.5690109 196.122389,88.4644414 195.039801,88.4644414 C193.957213,88.4644414 193.079602,87.5690109 193.079602,86.4644414 L193.079602,76.4644414 Z M193.079602,96.4644414 C193.079602,95.3598719 193.957213,94.4644414 195.039801,94.4644414 C196.122389,94.4644414 197,95.3598719 197,96.4644414 L197,106.464441 C197,107.569011 196.122389,108.464441 195.039801,108.464441 C193.957213,108.464441 193.079602,107.569011 193.079602,106.464441 L193.079602,96.4644414 Z M193.079602,116.464441 C193.079602,115.359872 193.957213,114.464441 195.039801,114.464441 C196.122389,114.464441 197,115.359872 197,116.464441 L197,126.464441 C197,127.569011 196.122389,128.464441 195.039801,128.464441 C193.957213,128.464441 193.079602,127.569011 193.079602,126.464441 L193.079602,116.464441 Z M193.079602,136.464441 C193.079602,135.359872 193.957213,134.464441 195.039801,134.464441 C196.122389,134.464441 197,135.359872 197,136.464441 L197,146.464441 C197,147.569011 196.122389,148.464441 195.039801,148.464441 C193.957213,148.464441 193.079602,147.569011 193.079602,146.464441 L193.079602,136.464441 Z M191.666652,155.425754 C192.131054,154.427977 193.300286,154.003235 194.278207,154.477066 C195.256127,154.950897 195.672416,156.14387 195.208015,157.141647 C193.626819,160.538881 191.082908,163.39009 187.920638,165.318813 C186.991417,165.88556 185.787839,165.576423 185.23237,164.628334 C184.676901,163.680246 184.979886,162.452229 185.909107,161.885482 C188.407243,160.361826 190.418327,158.107808 191.666652,155.425754 Z M177.467712,164 C178.5503,164 179.427911,164.895431 179.427911,166 C179.427911,167.104569 178.5503,168 177.467712,168 L167.666717,168 C166.584129,168 165.706518,167.104569 165.706518,166 C165.706518,164.895431 166.584129,164 167.666717,164 L177.467712,164 Z M157.865722,164 C158.94831,164 159.825921,164.895431 159.825921,166 C159.825921,167.104569 158.94831,168 157.865722,168 L148.064727,168 C146.982139,168 146.104528,167.104569 146.104528,166 C146.104528,164.895431 146.982139,164 148.064727,164 L157.865722,164 Z M138.263732,164 C139.34632,164 140.223931,164.895431 140.223931,166 C140.223931,167.104569 139.34632,168 138.263732,168 L128.462737,168 C127.380149,168 126.502538,167.104569 126.502538,166 C126.502538,164.895431 127.380149,164 128.462737,164 L138.263732,164 Z M118.661742,164 C119.74433,164 120.621941,164.895431 120.621941,166 C120.621941,167.104569 119.74433,168 118.661742,168 L108.860747,168 C107.778159,168 106.900548,167.104569 106.900548,166 C106.900548,164.895431 107.778159,164 108.860747,164 L118.661742,164 Z M99.0597516,164 C100.14234,164 101.019951,164.895431 101.019951,166 C101.019951,167.104569 100.14234,168 99.0597516,168 L89.2587566,168 C88.1761686,168 87.2985576,167.104569 87.2985576,166 C87.2985576,164.895431 88.1761686,164 89.2587566,164 L99.0597516,164 Z M79.4577615,164 C80.5403496,164 81.4179606,164.895431 81.4179606,166 C81.4179606,167.104569 80.5403496,168 79.4577615,168 L69.6567665,168 C68.5741785,168 67.6965675,167.104569 67.6965675,166 C67.6965675,164.895431 68.5741785,164 69.6567665,164 L79.4577615,164 Z M59.8557715,164 C60.9383595,164 61.8159705,164.895431 61.8159705,166 C61.8159705,167.104569 60.9383595,168 59.8557715,168 L50.0547765,168 C48.9721885,168 48.0945775,167.104569 48.0945775,166 C48.0945775,164.895431 48.9721885,164 50.0547765,164 L59.8557715,164 Z M40.2537815,164 C41.3363695,164 42.2139805,164.895431 42.2139805,166 C42.2139805,167.104569 41.3363695,168 40.2537815,168 L30.4527864,168 C29.3701984,168 28.4925874,167.104569 28.4925874,166 C28.4925874,164.895431 29.3701984,164 30.4527864,164 L40.2537815,164 Z M20.6517914,164 C21.7343794,164 22.6119904,164.895431 22.6119904,166 C22.6119904,167.104569 21.7343794,168 20.6517914,168 L18.6218905,168 C15.6472292,168 12.768644,167.286226 10.173626,165.936254 C9.20916517,165.434525 8.8259525,164.230068 9.31769651,163.246025 C9.80944053,162.261981 10.9899278,161.870987 11.9543886,162.372716 C14.0010535,163.437425 16.269864,164 18.6218905,164 L20.6517914,164 Z M5.81100203,156.364688 C6.3434069,157.326453 6.01085779,158.54648 5.0682328,159.089695 C4.12560782,159.63291 2.92985986,159.293609 2.39745499,158.331844 C0.850980224,155.538209 0.0181010128,152.382484 0.000261869497,149.096683 L3.22132653e-08,147.607034 C-0.000194119276,146.502465 0.877259464,145.606874 1.95984746,145.606676 C3.04243546,145.606478 3.92020383,146.501748 3.92039798,147.606317 L3.92062968,149.085228 C3.934707,151.674037 4.59106151,154.160922 5.81100203,156.364688 Z M3.92039801,137.606676 C3.92039801,138.711245 3.04278702,139.606676 1.96019901,139.606676 C0.877610989,139.606676 7.04454717e-10,138.711245 7.04454717e-10,137.606676 L7.04454717e-10,127.606676 C7.04454717e-10,126.502106 0.877610989,125.606676 1.96019901,125.606676 C3.04278702,125.606676 3.92039801,126.502106 3.92039801,127.606676 L3.92039801,137.606676 Z M3.92039801,117.606676 C3.92039801,118.711245 3.04278702,119.606676 1.96019901,119.606676 C0.877610989,119.606676 7.04454717e-10,118.711245 7.04454717e-10,117.606676 L7.04454717e-10,107.606676 C7.04454717e-10,106.502106 0.877610989,105.606676 1.96019901,105.606676 C3.04278702,105.606676 3.92039801,106.502106 3.92039801,107.606676 L3.92039801,117.606676 Z M3.92039801,97.6066757 C3.92039801,98.7112452 3.04278702,99.6066757 1.96019901,99.6066757 C0.877610989,99.6066757 7.04454717e-10,98.7112452 7.04454717e-10,97.6066757 L7.04454717e-10,87.6066757 C7.04454717e-10,86.5021062 0.877610989,85.6066757 1.96019901,85.6066757 C3.04278702,85.6066757 3.92039801,86.5021062 3.92039801,87.6066757 L3.92039801,97.6066757 Z M3.92039801,77.6066757 C3.92039801,78.7112452 3.04278702,79.6066757 1.96019901,79.6066757 C0.877610989,79.6066757 7.04454717e-10,78.7112452 7.04454717e-10,77.6066757 L7.04454717e-10,67.6066757 C7.04454717e-10,66.5021062 0.877610989,65.6066757 1.96019901,65.6066757 C3.04278702,65.6066757 3.92039801,66.5021062 3.92039801,67.6066757 L3.92039801,77.6066757 Z M3.92039801,57.6066757 C3.92039801,58.7112452 3.04278702,59.6066757 1.96019901,59.6066757 C0.877610989,59.6066757 7.04454717e-10,58.7112452 7.04454717e-10,57.6066757 L7.04454717e-10,47.6066757 C7.04454717e-10,46.5021062 0.877610989,45.6066757 1.96019901,45.6066757 C3.04278702,45.6066757 3.92039801,46.5021062 3.92039801,47.6066757 L3.92039801,57.6066757 Z M5.68072731,38.8757743 C5.1657152,39.8473482 3.97627307,40.2089875 3.02403395,39.6835183 C2.07179483,39.1580491 1.7173523,37.9444558 2.23236441,36.9728819 C3.98540498,33.6657587 6.67019663,30.9515672 9.92794188,29.1939187 C10.8849651,28.6775768 12.0710337,29.0505723 12.5771002,30.0270275 C13.0831667,31.0034827 12.717594,32.2136339 11.7605707,32.7299758 C9.18783534,34.1180415 7.0652412,36.2638792 5.68072731,38.8757743 Z" id="Rectangle" fill="#B2D6C7"></path>
        </g>
    </g>
</svg>