<?xml version="1.0" encoding="UTF-8" standalone="no"?>
<svg width="45px" height="43px" viewBox="0 0 45 43" version="1.1" xmlns="http://www.w3.org/2000/svg" xmlns:xlink="http://www.w3.org/1999/xlink" xmlns:sketch="http://www.bohemiancoding.com/sketch/ns">
    <!-- Generator: Sketch 3.3.2 (12043) - http://www.bohemiancoding.com/sketch -->
    <title>website-btc</title>
    <desc>Created with Sketch.</desc>
    <defs></defs>
    <g id="Page-1" stroke="none" stroke-width="1" fill="none" fill-rule="evenodd" sketch:type="MSPage">
        <g id="01-copy-3" sketch:type="MSArtboardGroup" transform="translate(-533.000000, -452.500000)" fill="#3555A6">
            <g id="website-btc" sketch:type="MSLayerGroup" transform="translate(533.000000, 453.000000)">
                <g id="Bitcoin_Logo_5_" transform="translate(16.000000, 20.000000)" sketch:type="MSShapeGroup">
                    <path d="M11,6.7 C11.4,6.4 11.7,5.9 11.7,5.4 C11.7,3.8 10.4,2.9 8.2,2.9 L8.2,2.9 L8.2,1 C8.2,0.9 8.2,1 8.2,0.9 L7,0.9 L6.8,0.9 L6.8,2.9 L5.4,2.9 L5.4,1 L5.4,0.9 L4,0.9 L4,1 L4,2.9 L0.8,2.9 L0.8,3 L0.8,3.9 L1,3.9 L1.2,3.9 C2,3.9 2.6,4.4 2.6,4.9 L2.6,8.9 C2.6,9.4 2.6,9.9 1.7,9.9 L0.9,9.9 L0.9,10.8 L0.9,11 L1.1,11 L4.1,11 L4.1,13 L5.5,13 L5.5,12.9 L5.5,11 L6.9,11 L6.9,13 L7.1,13 L8.2,13 L8.4,13 L8.4,11 L9.1,11 C11.3,11 12.7,10.1 12.7,8.5 C12.4,7.7 11.8,7.1 11,6.7 L11,6.7 Z M5.3,4.4 L7.4,4.4 C8.2,4.4 8.8,4.9 8.8,5.4 C8.8,6 8.2,6.4 7.4,6.4 L5.3,6.4 L5.3,4.4 L5.3,4.4 Z M8.1,9.4 L5.3,9.4 L5.3,7.4 L8.1,7.4 C8.9,7.4 9.5,7.9 9.5,8.4 C9.5,9 8.9,9.4 8.1,9.4 L8.1,9.4 Z" id="Bitcoin_4_"></path>
                </g>
                <path d="M6.4,7.7 C5.4,7.7 4.6,6.9 4.6,5.9 C4.6,4.9 5.4,4.1 6.4,4.1 C7.4,4.1 8.2,4.9 8.2,5.9 C8.2,6.9 7.4,7.7 6.4,7.7 L6.4,7.7 Z M6.4,5.1 C5.9,5.1 5.6,5.5 5.6,5.9 C5.6,6.4 6,6.7 6.4,6.7 C6.9,6.7 7.2,6.3 7.2,5.9 C7.2,5.4 6.9,5.1 6.4,5.1 L6.4,5.1 Z" id="Shape" sketch:type="MSShapeGroup"></path>
                <path d="M14.8,7.7 C13.8,7.7 13,6.9 13,5.9 C13,4.9 13.8,4.1 14.8,4.1 C15.8,4.1 16.6,4.9 16.6,5.9 C16.6,6.9 15.8,7.7 14.8,7.7 L14.8,7.7 Z M14.8,5.1 C14.3,5.1 14,5.5 14,5.9 C14,6.4 14.4,6.7 14.8,6.7 C15.3,6.7 15.6,6.3 15.6,5.9 C15.6,5.4 15.2,5.1 14.8,5.1 L14.8,5.1 Z" id="Shape" sketch:type="MSShapeGroup"></path>
                <path d="M10.6,7.7 C9.6,7.7 8.8,6.9 8.8,5.9 C8.8,4.9 9.6,4.1 10.6,4.1 C11.6,4.1 12.4,4.9 12.4,5.9 C12.4,6.9 11.6,7.7 10.6,7.7 L10.6,7.7 Z M10.6,5.1 C10.1,5.1 9.8,5.5 9.8,5.9 C9.8,6.4 10.2,6.7 10.6,6.7 C11.1,6.7 11.4,6.3 11.4,5.9 C11.4,5.4 11,5.1 10.6,5.1 L10.6,5.1 Z" id="Shape" sketch:type="MSShapeGroup"></path>
                <g id="Group" sketch:type="MSShapeGroup">
                    <path d="M42.8,0 L2,0 C1.1,0 0.3,0.8 0.3,1.7 L0.3,35.4 C0.3,36.3 1.1,37.1 2,37.1 L7.1,37.1 L7.1,37 C10.5,40.1 16,42.2 22.4,42.2 C28.7,42.2 34.3,40.1 37.7,37 L37.7,37.1 L42.8,37.1 C43.7,37.1 44.5,36.3 44.5,35.4 L44.5,1.7 C44.5,0.8 43.7,0 42.8,0 L42.8,0 Z M42.5,2 L42.5,10.4 L2.3,10.4 L2.3,2 L42.5,2 L42.5,2 Z M7.6,34.6 C6.8,33.7 6.3,32.6 6,31.5 C6.5,32.1 7,32.7 7.6,33.3 L7.6,34.6 L7.6,34.6 Z M10.8,37.3 C10,36.8 9.3,36.3 8.6,35.7 L8.6,34.2 C9.3,34.7 10,35.2 10.8,35.6 L10.8,37.3 L10.8,37.3 Z M13.7,38.6 C13,38.3 12.4,38.1 11.8,37.8 L11.8,36 C12.4,36.3 13,36.6 13.7,36.8 L13.7,38.6 L13.7,38.6 Z M16.8,39.6 C16.1,39.4 15.3,39.3 14.6,39 L14.6,37.1 C15.3,37.3 16,37.5 16.8,37.7 L16.8,39.6 L16.8,39.6 Z M20,40 C19.3,39.9 18.5,39.8 17.8,39.7 L17.8,37.8 C18.5,37.9 19.2,38 20,38.1 L20,40 L20,40 Z M23.2,40.1 L22.4,40.1 L21,40.1 L21,38.2 L22.4,38.2 L23.2,38.2 L23.2,40.1 L23.2,40.1 Z M26.3,39.9 C25.6,40 24.9,40.1 24.1,40.1 L24.1,38.2 C24.8,38.2 25.6,38.1 26.3,38 L26.3,39.9 L26.3,39.9 Z M29.5,39.2 C28.8,39.4 28.1,39.6 27.3,39.7 L27.3,37.8 C28,37.7 28.8,37.5 29.5,37.3 L29.5,39.2 L29.5,39.2 Z M32.6,38 C31.9,38.3 31.2,38.6 30.4,38.9 L30.4,37 C31.1,36.8 31.9,36.5 32.6,36.2 L32.6,38 L32.6,38 Z M35.8,36 C35.2,36.5 34.4,37 33.6,37.5 L33.6,35.8 C34.4,35.4 35.1,35 35.8,34.5 L35.8,36 L35.8,36 Z M36.8,35.1 L36.8,33.8 L36.7,33.8 C37.5,33.1 38.2,32.4 38.8,31.6 C38.5,32.8 37.8,34 36.8,35.1 L36.8,35.1 Z M39,29.2 C37.2,33.8 30.5,37.2 22.4,37.2 C14.3,37.2 7.7,33.8 5.8,29.2 L5.8,26.7 C5.8,21.2 13.2,16.7 22.4,16.7 C31.5,16.7 39,21.2 39,26.7 L39,29.2 L39,29.2 Z M39.3,35.1 C40.3,33.6 40.9,31.9 40.9,30.2 L40.9,26.8 C40.9,20.2 32.6,14.8 22.3,14.8 C12,14.8 3.7,20.2 3.7,26.8 L3.7,30.2 C3.7,31.9 4.3,33.6 5.3,35.1 L2.3,35.1 L2.3,11.5 L42.5,11.5 L42.5,35.1 L39.3,35.1 L39.3,35.1 Z" id="Shape"></path>
                    <path d="M22.5,17.4 C13.9,17.4 7,21.7 7,26.9 C7,32.1 14,36.4 22.6,36.4 C31.2,36.4 38.2,32.1 38.2,26.9 C38.2,21.7 31.1,17.4 22.5,17.4 L22.5,17.4 Z M22.5,35.4 C14.5,35.4 7.9,31.6 7.9,26.9 C7.9,22.2 14.4,18.4 22.5,18.4 C30.6,18.4 37.1,22.2 37.1,26.9 C37.1,31.6 30.6,35.4 22.5,35.4 L22.5,35.4 Z" id="Shape"></path>
                </g>
            </g>
        </g>
    </g>
</svg>