<?xml version="1.0" encoding="UTF-8" standalone="no"?>
<svg width="120px" height="120px" viewBox="0 0 120 120" version="1.1" xmlns="http://www.w3.org/2000/svg" xmlns:xlink="http://www.w3.org/1999/xlink" xmlns:sketch="http://www.bohemiancoding.com/sketch/ns">
    <!-- Generator: Sketch 3.3.2 (12043) - http://www.bohemiancoding.com/sketch -->
    <title>lack-of-payment</title>
    <desc>Created with Sketch.</desc>
    <defs>
        <linearGradient x1="-120.604649%" y1="-223.591922%" x2="294.851221%" y2="386.856395%" id="linearGradient-1">
            <stop stop-color="#2A4897" offset="0%"></stop>
            <stop stop-color="#26386F" offset="100%"></stop>
        </linearGradient>
        <linearGradient x1="88.7898067%" y1="103.115991%" x2="28.5909163%" y2="0%" id="linearGradient-2">
            <stop stop-color="#2A4897" offset="0%"></stop>
            <stop stop-color="#5F83E3" offset="100%"></stop>
        </linearGradient>
    </defs>
    <g id="Page-1" stroke="none" stroke-width="1" fill="none" fill-rule="evenodd" sketch:type="MSPage">
        <g id="developers-copy-20" sketch:type="MSArtboardGroup" transform="translate(-813.000000, -285.000000)">
            <g id="lack-of-payment" sketch:type="MSLayerGroup" transform="translate(813.000000, 284.964355)">
                <path d="M62.1425287,67.1494253 L62.1425287,67.1494253 L61.7252874,67.1494253 L61.7252874,65.7586207 L62.0034483,65.7586207 L62.9770115,65.7586207 L63.116092,67.1494253 L62.1425287,67.1494253 L62.1425287,67.1494253 Z M58.8045977,66.5931034 C58.3873563,66.454023 57.8310345,66.1758621 57.4137931,65.8977011 L58.1091954,64.645977 C58.5264368,64.9241379 58.8045977,65.0632184 59.2218391,65.2022989 L58.8045977,66.5931034 L58.8045977,66.5931034 Z M66.1758621,66.3149425 L65.6195402,65.0632184 C66.0367816,64.9241379 66.3149425,64.645977 66.7321839,64.3678161 L67.5666667,65.4804598 C67.0103448,65.7586207 66.5931034,66.0367816 66.1758621,66.3149425 L66.1758621,66.3149425 Z M55.1885057,64.0896552 C54.9103448,63.6724138 54.4931034,63.2551724 54.2149425,62.837931 L55.3275862,62.1425287 C55.6057471,62.5597701 55.883908,62.837931 56.162069,63.116092 L55.1885057,64.0896552 L55.1885057,64.0896552 Z M69.5137931,63.3942529 L68.4011494,62.5597701 C68.6793103,62.2816092 68.8183908,61.8643678 69.0965517,61.4471264 L70.3482759,62.1425287 C70.2091954,62.5597701 69.9310345,63.116092 69.5137931,63.3942529 L69.5137931,63.3942529 Z M53.1022989,60.1954023 C52.9632184,59.7781609 52.9632184,59.2218391 52.8241379,58.6655172 L54.2149425,58.5264368 C54.2149425,58.9436782 54.354023,59.3609195 54.4931034,59.7781609 L53.1022989,60.1954023 L53.1022989,60.1954023 Z M71.3218391,59.3609195 L69.9310345,59.0827586 C69.9310345,58.6655172 70.0701149,58.2482759 70.0701149,57.8310345 L71.4609195,57.691954 L71.4609195,57.8310345 C71.4609195,58.3873563 71.4609195,58.8045977 71.3218391,59.3609195 L71.3218391,59.3609195 Z M54.354023,56.0229885 L52.9632184,55.7448276 C53.1022989,55.1885057 53.2413793,54.7712644 53.3804598,54.354023 L54.6321839,54.9103448 C54.6321839,55.1885057 54.4931034,55.6057471 54.354023,56.0229885 L54.354023,56.0229885 Z M69.6528736,55.1885057 C69.5137931,54.7712644 69.3747126,54.354023 69.0965517,54.0758621 L70.3482759,53.3804598 C70.6264368,53.7977011 70.7655172,54.2149425 70.9045977,54.7712644 L69.6528736,55.1885057 L69.6528736,55.1885057 Z M56.162069,52.6850575 L55.0494253,51.7114943 C55.3275862,51.2942529 55.7448276,51.016092 56.162069,50.5988506 L56.9965517,51.7114943 C56.7183908,51.9896552 56.4402299,52.2678161 56.162069,52.6850575 L56.162069,52.6850575 Z M67.5666667,52.1287356 C67.2885057,51.8505747 66.8712644,51.5724138 66.5931034,51.2942529 L67.4275862,50.1816092 C67.8448276,50.4597701 68.262069,50.737931 68.5402299,51.1551724 L67.5666667,52.1287356 L67.5666667,52.1287356 Z M59.2218391,50.4597701 L58.6655172,49.208046 C59.0827586,49.0689655 59.6390805,48.9298851 60.0563218,48.7908046 L60.3344828,50.1816092 C60.0563218,50.1816092 59.6390805,50.3206897 59.2218391,50.4597701 L59.2218391,50.4597701 Z M64.2287356,50.1816092 C63.8114943,50.0425287 63.3942529,50.0425287 62.9770115,49.9034483 L63.116092,48.5126437 C63.6724138,48.5126437 64.0896552,48.6517241 64.645977,48.7908046 L64.2287356,50.1816092 L64.2287356,50.1816092 Z" id="Shape" fill="url(#linearGradient-1)" sketch:type="MSShapeGroup"></path>
                <path d="M82.0310345,46.9827586 L82.0310345,46.9827586 L81.6137931,46.9827586 L81.6137931,45.591954 L81.891954,45.591954 L82.8655172,45.591954 L83.0045977,46.9827586 L82.0310345,46.9827586 L82.0310345,46.9827586 Z M78.6931034,46.4264368 C78.2758621,46.2873563 77.7195402,46.0091954 77.3022989,45.7310345 L77.9977011,44.4793103 C78.4149425,44.7574713 78.6931034,44.8965517 79.1103448,45.0356322 L78.6931034,46.4264368 L78.6931034,46.4264368 Z M86.0643678,46.1482759 L85.508046,44.8965517 C85.9252874,44.7574713 86.2034483,44.4793103 86.6206897,44.2011494 L87.4551724,45.3137931 C86.8988506,45.591954 86.4816092,45.8701149 86.0643678,46.1482759 L86.0643678,46.1482759 Z M75.0770115,43.9229885 C74.7988506,43.5057471 74.3816092,43.0885057 74.1034483,42.6712644 L75.216092,41.9758621 C75.4942529,42.3931034 75.7724138,42.6712644 76.0505747,42.9494253 L75.0770115,43.9229885 L75.0770115,43.9229885 Z M89.5413793,43.2275862 L88.4287356,42.3931034 C88.7068966,42.1149425 88.845977,41.6977011 89.1241379,41.2804598 L90.3758621,41.9758621 C90.0977011,42.3931034 89.8195402,42.9494253 89.5413793,43.2275862 L89.5413793,43.2275862 Z M72.9908046,40.0287356 C72.8517241,39.6114943 72.8517241,39.0551724 72.7126437,38.4988506 L74.1034483,38.3597701 C74.1034483,38.7770115 74.2425287,39.1942529 74.3816092,39.6114943 L72.9908046,40.0287356 L72.9908046,40.0287356 Z M91.2103448,39.1942529 L89.8195402,38.916092 C89.8195402,38.4988506 89.9586207,38.0816092 89.9586207,37.6643678 L91.3494253,37.5252874 C91.3494253,38.2206897 91.3494253,38.637931 91.2103448,39.1942529 L91.2103448,39.1942529 Z M74.2425287,35.8563218 L72.8517241,35.5781609 C72.9908046,35.0218391 73.1298851,34.6045977 73.2689655,34.1873563 L74.5206897,34.7436782 C74.5206897,35.0218391 74.3816092,35.4390805 74.2425287,35.8563218 L74.2425287,35.8563218 Z M89.5413793,35.0218391 C89.4022989,34.6045977 89.2632184,34.1873563 88.9850575,33.9091954 L90.2367816,33.2137931 C90.5149425,33.6310345 90.654023,34.0482759 90.7931034,34.6045977 L89.5413793,35.0218391 L89.5413793,35.0218391 Z M76.0505747,32.5183908 L74.937931,31.5448276 C75.216092,31.1275862 75.6333333,30.8494253 76.0505747,30.4321839 L76.8850575,31.5448276 C76.6068966,31.8229885 76.3287356,32.1011494 76.0505747,32.5183908 L76.0505747,32.5183908 Z M87.4551724,31.962069 C87.1770115,31.683908 86.7597701,31.4057471 86.4816092,31.1275862 L87.316092,30.0149425 C87.7333333,30.2931034 88.1505747,30.5712644 88.4287356,30.9885057 L87.4551724,31.962069 L87.4551724,31.962069 Z M79.1103448,30.2931034 L78.554023,29.0413793 C78.9712644,28.9022989 79.5275862,28.7632184 79.9448276,28.6241379 L80.2229885,30.0149425 C79.9448276,30.0149425 79.5275862,30.154023 79.1103448,30.2931034 L79.1103448,30.2931034 Z M84.1172414,30.0149425 C83.7,29.8758621 83.2827586,29.8758621 82.8655172,29.7367816 L83.0045977,28.345977 C83.5609195,28.345977 83.9781609,28.4850575 84.5344828,28.6241379 L84.1172414,30.0149425 L84.1172414,30.0149425 Z" id="Shape" fill="url(#linearGradient-1)" sketch:type="MSShapeGroup"></path>
                <path d="M59.7781609,28.9022989 L59.7781609,28.9022989 L59.3609195,28.9022989 L59.3609195,27.5114943 L59.6390805,27.5114943 L60.6126437,27.5114943 L60.7517241,28.9022989 L59.7781609,28.9022989 L59.7781609,28.9022989 Z M56.4402299,28.345977 C56.0229885,28.2068966 55.4666667,27.9287356 55.0494253,27.6505747 L55.7448276,26.3988506 C56.162069,26.6770115 56.4402299,26.816092 56.8574713,26.9551724 L56.4402299,28.345977 L56.4402299,28.345977 Z M63.8114943,28.0678161 L63.2551724,26.816092 C63.6724138,26.6770115 63.9505747,26.3988506 64.3678161,26.1206897 L65.2022989,27.2333333 C64.645977,27.5114943 64.2287356,27.7896552 63.8114943,28.0678161 L63.8114943,28.0678161 Z M52.8241379,25.8425287 C52.545977,25.4252874 52.1287356,25.008046 51.8505747,24.5908046 L52.9632184,23.8954023 C53.2413793,24.3126437 53.5195402,24.5908046 53.7977011,24.8689655 L52.8241379,25.8425287 L52.8241379,25.8425287 Z M67.2885057,25.1471264 L66.1758621,24.3126437 C66.454023,24.0344828 66.5931034,23.6172414 66.8712644,23.2 L68.1229885,23.8954023 C67.8448276,24.3126437 67.5666667,24.8689655 67.2885057,25.1471264 L67.2885057,25.1471264 Z M50.737931,21.9482759 C50.5988506,21.5310345 50.5988506,20.9747126 50.4597701,20.4183908 L51.8505747,20.2793103 C51.8505747,20.6965517 51.9896552,21.1137931 52.1287356,21.5310345 L50.737931,21.9482759 L50.737931,21.9482759 Z M68.9574713,21.1137931 L67.5666667,20.8356322 C67.5666667,20.4183908 67.7057471,20.0011494 67.7057471,19.583908 L69.0965517,19.4448276 C69.0965517,20.1402299 69.0965517,20.5574713 68.9574713,21.1137931 L68.9574713,21.1137931 Z M51.9896552,17.7758621 L50.5988506,17.4977011 C50.737931,16.9413793 50.8770115,16.5241379 51.016092,16.1068966 L52.2678161,16.6632184 C52.2678161,16.9413793 52.1287356,17.3586207 51.9896552,17.7758621 L51.9896552,17.7758621 Z M67.2885057,16.9413793 C67.1494253,16.5241379 67.0103448,16.1068966 66.7321839,15.8287356 L67.983908,15.1333333 C68.262069,15.5505747 68.4011494,15.9678161 68.5402299,16.5241379 L67.2885057,16.9413793 L67.2885057,16.9413793 Z M53.7977011,14.437931 L52.6850575,13.4643678 C52.9632184,13.0471264 53.3804598,12.7689655 53.7977011,12.3517241 L54.6321839,13.4643678 C54.354023,13.7425287 54.0758621,14.0206897 53.7977011,14.437931 L53.7977011,14.437931 Z M65.2022989,13.8816092 C64.9241379,13.6034483 64.5068966,13.3252874 64.2287356,13.0471264 L65.0632184,11.9344828 C65.4804598,12.2126437 65.8977011,12.4908046 66.1758621,12.908046 L65.2022989,13.8816092 L65.2022989,13.8816092 Z M56.8574713,12.2126437 L56.3011494,10.9609195 C56.7183908,10.8218391 57.2747126,10.6827586 57.691954,10.5436782 L57.9701149,11.9344828 C57.691954,11.9344828 57.2747126,12.0735632 56.8574713,12.2126437 L56.8574713,12.2126437 Z M61.8643678,11.9344828 C61.4471264,11.7954023 61.0298851,11.7954023 60.6126437,11.6563218 L60.7517241,10.2655172 C61.308046,10.2655172 61.7252874,10.4045977 62.2816092,10.5436782 L61.8643678,11.9344828 L61.8643678,11.9344828 Z" id="Shape" fill="url(#linearGradient-1)" sketch:type="MSShapeGroup"></path>
                <path d="M102.475862,17.9149425 C90.5149425,5.81494253 74.3816092,-0.582758621 57.2747126,0.251724138 C27.2333333,1.50344828 2.89425287,25.1471264 0.390804598,55.0494253 C-0.304597701,63.116092 0.668965517,71.0436782 3.17241379,78.6931034 C4.00689655,81.0574713 6.37126437,82.5873563 8.87471264,82.3091954 C16.5241379,81.1965517 30.154023,79.1103448 35.1609195,76.745977 C38.637931,75.0770115 41.9758621,74.2425287 45.1747126,74.2425287 C52.2678161,74.2425287 55.883908,78.554023 56.0229885,78.6931034 L56.4402299,79.2494253 L65.7586207,79.6666667 L65.8977011,79.6666667 C67.4275862,79.3885057 68.8183908,79.3885057 70.2091954,79.3885057 C74.3816092,79.3885057 76.3287356,80.362069 76.3287356,80.362069 L76.6068966,80.5011494 C78.2758621,81.0574713 79.3885057,81.891954 79.8057471,82.8655172 C80.083908,83.4218391 80.083908,83.9781609 79.9448276,84.3954023 L58.2482759,85.2298851 L57.9701149,85.3689655 C54.7712644,87.316092 50.737931,87.1770115 50.737931,87.1770115 L50.5988506,89.9586207 L50.737931,89.9586207 C51.5724138,89.9586207 55.4666667,89.8195402 58.9436782,87.8724138 L82.0310345,86.8988506 L82.4482759,86.2034483 C82.5873563,85.9252874 83.5609195,83.9781609 82.5873563,81.6137931 C82.1701149,80.6402299 81.4747126,79.8057471 80.6402299,79.1103448 C81.4747126,78.9712644 82.1701149,78.9712644 82.7264368,78.9712644 C83.8390805,78.9712644 84.6735632,79.1103448 84.6735632,79.1103448 L84.9517241,79.2494253 L85.2298851,79.1103448 C91.6275862,77.3022989 96.6344828,76.4678161 100.528736,76.4678161 C105.257471,76.4678161 106.370115,77.8586207 106.509195,78.4149425 C106.509195,78.8321839 106.231034,79.8057471 106.091954,80.2229885 C99.137931,81.4747126 82.4482759,88.7068966 75.216092,91.7666667 C74.1034483,92.3229885 73.1298851,92.6011494 72.7126437,92.8793103 C69.791954,94.1310345 65.7586207,94.6873563 60.3344828,94.6873563 C55.6057471,94.6873563 50.4597701,94.2701149 46.0091954,93.8528736 C42.6712644,93.5747126 39.4724138,93.2965517 36.9689655,93.2965517 L36.8298851,93.2965517 C33.0747126,93.2965517 25.1471264,94.6873563 19.583908,95.8 C18.1931034,96.0781609 17.2195402,97.0517241 16.8022989,98.3034483 C16.3850575,99.5551724 16.8022989,100.945977 17.7758621,101.91954 C29.0413793,113.324138 44.062069,119.443678 60.0563218,119.443678 L60.0563218,119.443678 C61.1689655,119.443678 62.4206897,119.443678 63.5333333,119.304598 C94.5482759,117.496552 119.304598,91.7666667 119.721839,60.6126437 C119.86092,44.6183908 113.88046,29.4586207 102.475862,17.9149425 L102.475862,17.9149425 Z M63.3942529,116.662069 C62.2816092,116.662069 61.1689655,116.801149 60.0563218,116.801149 L60.0563218,116.801149 C44.7574713,116.801149 30.4321839,110.82069 19.7229885,99.9724138 C19.4448276,99.6942529 19.4448276,99.2770115 19.4448276,99.137931 C19.4448276,98.9988506 19.583908,98.5816092 20.1402299,98.4425287 C27.2333333,96.9126437 33.9091954,95.9390805 36.8298851,95.9390805 L36.9689655,95.9390805 C39.3333333,95.9390805 42.5321839,96.2172414 45.7310345,96.4954023 C50.3206897,96.9126437 55.4666667,97.3298851 60.3344828,97.3298851 C66.1758621,97.3298851 70.6264368,96.6344828 73.8252874,95.3827586 C74.3816092,95.1045977 75.216092,94.8264368 76.4678161,94.2701149 C83.0045977,91.4885057 100.528736,83.8390805 106.926437,82.8655172 C109.012644,82.5873563 109.708046,79.2494253 109.429885,77.9977011 C109.290805,77.0241379 108.317241,73.6862069 100.667816,73.6862069 C96.6344828,73.6862069 91.3494253,74.6597701 84.9517241,76.4678161 C84.5344828,76.4678161 83.8390805,76.3287356 82.8655172,76.3287356 C81.4747126,76.3287356 79.3885057,76.4678161 77.3022989,77.4413793 C76.1896552,77.0241379 73.9643678,76.3287356 70.4873563,76.3287356 C69.0965517,76.3287356 67.4275862,76.4678161 65.8977011,76.6068966 L58.1091954,76.3287356 C56.8574713,74.937931 52.545977,71.3218391 45.4528736,71.3218391 C41.9758621,71.3218391 38.2206897,72.2954023 34.3264368,74.1034483 C29.4586207,76.3287356 14.8551724,78.554023 8.73563218,79.3885057 C7.34482759,79.6666667 6.23218391,78.8321839 5.95402299,77.7195402 C3.45057471,70.4873563 2.61609195,62.837931 3.17241379,55.1885057 C5.53678161,26.6770115 28.7632184,4.28505747 57.4137931,3.03333333 C73.8252874,2.19885057 89.1241379,8.3183908 100.528736,19.862069 C111.377011,30.8494253 117.07931,45.3137931 116.94023,60.7517241 C116.383908,90.3758621 92.8793103,114.993103 63.3942529,116.662069 L63.3942529,116.662069 Z" id="Shape" fill="url(#linearGradient-2)" sketch:type="MSShapeGroup"></path>
            </g>
        </g>
    </g>
</svg>