<svg xmlns="http://www.w3.org/2000/svg" xmlns:xlink="http://www.w3.org/1999/xlink" width="188" height="73" viewBox="0 0 188 73" id="svgcontent" overflow="visible" x="520.5" y="257.5"><defs style="pointer-events: inherit"><rect id="bp-btn-pay-currencies-a" width="188" height="50" rx="4"></rect></defs><g style="pointer-events:all"><title style="pointer-events: inherit">Layer 1</title><g fill="none" fill-rule="evenodd" id="svg_1"><mask id="bp-btn-pay-currencies-b" style="pointer-events: inherit"><use xlink:href="#bp-btn-pay-currencies-a" id="svg_2"></use></mask><use fill="#293C92" xlink:href="#bp-btn-pay-currencies-a" id="svg_3" style="pointer-events: inherit"></use><g fill="#1A3B8B" mask="url(#bp-btn-pay-currencies-b)" id="svg_4" style="pointer-events: inherit"><rect width="188" height="50" id="svg_5"></rect></g><g id="svg_6"><g fill-rule="nonzero" id="svg_7"><path fill="#97AAFF" d="M39.44715118408203,20.428670406341553 C40.14126205444336,20.428670406341553 40.73727035522461,20.547240734100342 41.23522186279297,20.784390926361084 C41.73316955566406,21.021539211273193 42.11040115356445,21.349969387054443 42.366912841796875,21.769700527191162 C42.62343215942383,22.189429759979248 42.75168991088867,22.674209117889404 42.75168991088867,23.224050045013428 C42.75168991088867,23.81166982650757 42.62451171875,24.313239574432373 42.37015151977539,24.72877073287964 C42.11579132080078,25.14429998397827 41.741790771484375,25.460139751434326 41.24816131591797,25.676299571990967 C40.754520416259766,25.892459392547607 40.15419006347656,26.000539302825928 39.44715118408203,26.000539302825928 L37.22256088256836,26.000539302825928 L37.22256088256836,29.595500469207764 L35.96800231933594,29.595500469207764 L35.96800231933594,20.428670406341553 L39.44715118408203,20.428670406341553 zM39.44715118408203,25.018378734588623 C40.145572662353516,25.018378734588623 40.66183090209961,24.858890056610107 40.99595260620117,24.539889812469482 C41.33007049560547,24.22089910507202 41.49713134765625,23.78649091720581 41.49713134765625,23.236640453338623 C41.49713134765625,22.905059337615967 41.424922943115234,22.601809978485107 41.28049087524414,22.326880931854248 C41.13606262207031,22.05195951461792 40.909732818603516,21.83160924911499 40.601470947265625,21.665820598602295 C40.29322052001953,21.500020503997803 39.908451080322266,21.417130947113037 39.44715118408203,21.417130947113037 L37.22256088256836,21.417130947113037 L37.22256088256836,25.018378734588623 L39.44715118408203,25.018378734588623 zM49.16889953613281,28.109660625457764 C49.16889953613281,28.348910808563232 49.190460205078125,28.595500469207764 49.23357009887695,28.849429607391357 C49.27667999267578,29.103370189666748 49.337039947509766,29.318480968475342 49.414642333984375,29.494760036468506 L49.414642333984375,29.595500469207764 L48.15361022949219,29.595500469207764 C48.080322265625,29.431800365447998 48.024269104003906,29.19465970993042 47.985469818115234,28.8840594291687 C47.744041442871094,29.135900020599365 47.45412063598633,29.338408946990967 47.115692138671875,29.491611003875732 C46.777252197265625,29.64482069015503 46.405418395996094,29.721408367156982 46.000160217285156,29.721408367156982 C45.534549713134766,29.721408367156982 45.12174987792969,29.63222074508667 44.76177215576172,29.453839778900146 C44.40177917480469,29.27544927597046 44.12371063232422,29.03305959701538 43.92755126953125,28.726659297943115 C43.731380462646484,28.420260906219482 43.6333122253418,28.080289363861084 43.6333122253418,27.706729412078857 C43.6333122253418,27.224040508270264 43.761558532714844,26.814809322357178 44.01808166503906,26.4790301322937 C44.274600982666016,26.143249034881592 44.63888931274414,25.89035940170288 45.11096954345703,25.720370769500732 C45.58304977416992,25.55038022994995 46.1402702331543,25.465388774871826 46.782649993896484,25.465388774871826 L47.95960998535156,25.465388774871826 L47.95960998535156,24.923940181732178 C47.95960998535156,24.508409023284912 47.833499908447266,24.18208074569702 47.581298828125,23.94493055343628 C47.3290901184082,23.707780361175537 46.96586990356445,23.589210033416748 46.49163818359375,23.589210033416748 C46.202789306640625,23.589210033416748 45.944122314453125,23.638530254364014 45.71562194824219,23.737170696258545 C45.48712158203125,23.83579969406128 45.30929183959961,23.96800947189331 45.18210983276367,24.133809566497803 C45.054931640625,24.29960012435913 44.99134063720703,24.4790301322937 44.99134063720703,24.672109127044678 L43.782039642333984,24.672109127044678 C43.782039642333984,24.34052038192749 43.898441314697266,24.019429683685303 44.131248474121094,23.708829402923584 C44.36405944824219,23.398229122161865 44.69171142578125,23.14535093307495 45.11421203613281,22.95017957687378 C45.536712646484375,22.755000591278076 46.019561767578125,22.65742063522339 46.56277084350586,22.65742063522339 C47.08012008666992,22.65742063522339 47.533870697021484,22.74241018295288 47.924041748046875,22.912400722503662 C48.31420135498047,23.08238935470581 48.61922073364258,23.338420391082764 48.839088439941406,23.68049955368042 C49.0589714050293,24.02258062362671 49.16889953613281,24.44124937057495 49.16889953613281,24.936530590057373 L49.16889953613281,28.109660625457764 zM46.17475891113281,28.71406888961792 C46.450679779052734,28.71406888961792 46.708282470703125,28.666850566864014 46.94755172729492,28.572410106658936 C47.18682098388672,28.477969646453857 47.39268112182617,28.353110790252686 47.56513214111328,28.197810649871826 C47.737579345703125,28.042510509490967 47.86907196044922,27.874619960784912 47.95960998535156,27.694139003753662 L47.95960998535156,26.28385877609253 L46.97665023803711,26.28385877609253 C46.28684997558594,26.28385877609253 45.758731842041016,26.389838695526123 45.39228057861328,26.60179853439331 C45.02582931518555,26.81376028060913 44.84260177612305,27.12750005722046 44.84260177612305,27.543029308319092 C44.84260177612305,27.765489101409912 44.89432907104492,27.964858531951904 44.997802734375,28.1411395072937 C45.10127258300781,28.317430019378662 45.252159118652344,28.45698881149292 45.45048141479492,28.55981969833374 C45.648799896240234,28.662660121917725 45.890220642089844,28.71406888961792 46.17475891113281,28.71406888961792 zM56.00645065307617,22.783339977264404 L53.199859619140625,30.646911144256592 C53.02741241455078,31.104419231414795 52.7784423828125,31.50209951400757 52.45294189453125,31.839980602264404 C52.12744140625,32.17785978317261 51.684471130371094,32.34679937362671 51.12400817871094,32.34679937362671 C51.033470153808594,32.34679937362671 50.915992736816406,32.33525991439819 50.771568298339844,32.31217908859253 C50.627140045166016,32.2890887260437 50.518280029296875,32.26705884933472 50.44499206542969,32.24607038497925 L50.44499206542969,31.307979106903076 C50.4924201965332,31.31636953353882 50.546302795410156,31.323718547821045 50.606658935546875,31.330020427703857 C50.667022705078125,31.336310863494873 50.720909118652344,31.339459896087646 50.76832962036133,31.339459896087646 C51.17790222167969,31.339459896087646 51.495849609375,31.256560802459717 51.722190856933594,31.09077024459839 C51.94853210449219,30.92497968673706 52.13282775878906,30.634318828582764 52.27510070800781,30.21878957748413 L52.54024124145508,29.51995038986206 L50.04405212402344,22.783339977264404 L51.36328125,22.783339977264404 L53.09638977050781,27.883010387420654 L54.71955871582031,22.783339977264404 L56.00645065307617,22.783339977264404 zM68.62100219726562,22.783339977264404 L66.59042358398438,29.595500469207764 L65.61392974853516,29.595500469207764 L63.91963195800781,24.451749324798584 L62.264122009277344,29.595500469207764 L61.287628173828125,29.595500469207764 L59.257049560546875,22.783339977264404 L60.45988082885742,22.783339977264404 L61.830841064453125,27.83893918991089 L63.454017639160156,22.783339977264404 L64.43051147460938,22.783339977264404 L66.07954406738281,27.952270030975342 L67.42464447021484,22.783339977264404 L68.62100219726562,22.783339977264404 zM70.31744384765625,20.302751064300537 C70.54161834716797,20.302751064300537 70.71730041503906,20.365710735321045 70.844482421875,20.491631031036377 C70.9716567993164,20.617550373077393 71.03524780273438,20.77704095840454 71.03524780273438,20.970120906829834 C71.03524780273438,21.158999919891357 70.9716567993164,21.3153395652771 70.844482421875,21.43916082382202 C70.71730041503906,21.56298017501831 70.54161834716797,21.62489080429077 70.31744384765625,21.62489080429077 C70.09325408935547,21.62489080429077 69.91973114013672,21.56298017501831 69.79685974121094,21.43916082382202 C69.67398834228516,21.3153395652771 69.612548828125,21.158999919891357 69.612548828125,20.970120906829834 C69.612548828125,20.77704095840454 69.67398834228516,20.617550373077393 69.79685974121094,20.491631031036377 C69.91973114013672,20.365710735321045 70.09325408935547,20.302751064300537 70.31744384765625,20.302751064300537 zM69.70308685302734,29.595500469207764 L69.70308685302734,22.783339977264404 L70.91239166259766,22.783339977264404 L70.91239166259766,29.595500469207764 L69.70308685302734,29.595500469207764 zM75.55122375488281,29.595500469207764 C75.27529907226562,29.679439067840576 74.96704864501953,29.721408367156982 74.62647247314453,29.721408367156982 C74.13929748535156,29.721408367156982 73.74806213378906,29.578710079193115 73.45274353027344,29.293288707733154 C73.15741729736328,29.007880687713623 73.00975799560547,28.544089794158936 73.00975799560547,27.90190076828003 L73.00975799560547,23.67106008529663 L71.73580169677734,23.67106008529663 L71.73580169677734,22.783339977264404 L73.00975799560547,22.783339977264404 L73.00975799560547,21.12752103805542 L74.21906280517578,21.12752103805542 L74.21906280517578,22.783339977264404 L75.52535247802734,22.783339977264404 L75.52535247802734,23.67106008529663 L74.21906280517578,23.67106008529663 L74.21906280517578,27.908198833465576 C74.21906280517578,28.23138952255249 74.28803253173828,28.448588848114014 74.42598724365234,28.55981969833374 C74.56394958496094,28.671050548553467 74.7514877319336,28.726659297943115 74.98860931396484,28.726659297943115 C75.07913970947266,28.726659297943115 75.17829895019531,28.719319820404053 75.28607940673828,28.70462942123413 C75.39385986328125,28.689940929412842 75.4800796508789,28.67419958114624 75.54475402832031,28.657409191131592 L75.55122375488281,29.595500469207764 zM79.9443130493164,22.65742063522339 C81.4403076171875,22.65742063522339 82.18830108642578,23.48216962814331 82.18830108642578,25.131709575653076 L82.18830108642578,29.595500469207764 L80.97901153564453,29.595500469207764 L80.97901153564453,25.119109630584717 C80.97901153564453,24.598649501800537 80.86367797851562,24.22089910507202 80.6330337524414,23.98585081100464 C80.40238189697266,23.750810146331787 80.05425262451172,23.63327932357788 79.58863830566406,23.63327932357788 C79.2178726196289,23.63327932357788 78.88484191894531,23.731919765472412 78.58952331542969,23.929189205169678 C78.29419708251953,24.126460552215576 78.06031799316406,24.390889644622803 77.88787078857422,24.722468852996826 L77.88787078857422,29.595500469207764 L76.67858123779297,29.595500469207764 L76.67858123779297,19.92500066757202 L77.88787078857422,19.92500066757202 L77.88787078857422,23.589210033416748 C78.14222717285156,23.291200160980225 78.44400787353516,23.061410427093506 78.79322052001953,22.899810314178467 C79.1424331665039,22.738219738006592 79.52613067626953,22.65742063522339 79.9443130493164,22.65742063522339 z" id="svg_13"></path></g></g><g fill-rule="nonzero" id="svg_14" style="pointer-events: inherit"><g id="svg_15"><path fill="#F7931A" d="M128.78192138671875,65.24676513671875 C127.96490478515625,68.46624755859375 124.64581298828125,70.43138885498047 121.36074829101562,69.62860870361328 C118.08419799804688,68.8258285522461 116.084228515625,65.56452941894531 116.90122985839844,62.34504699707031 C117.71824645996094,59.125572204589844 121.03733825683594,57.160430908203125 124.31390380859375,57.96321105957031 C127.59895324707031,58.75762176513672 129.5989227294922,62.02728271484375 128.78192138671875,65.24676513671875 zM124.98153686523438,64.22929382324219 C125.22541809082031,64.0502700805664 125.41145324707031,63.78997802734375 125.48483276367188,63.470977783203125 C125.71585083007812,62.46681213378906 125.25323486328125,61.725006103515625 124.25120544433594,61.49285125732422 L124.25184631347656,61.49299621582031 L124.52842712402344,60.28784942626953 C124.53863525390625,60.24346160888672 124.53340148925781,60.258331298828125 124.54551696777344,60.205711364746094 L123.98577880859375,60.07750701904297 C123.94256591796875,60.06749725341797 123.90849304199219,60.05812072753906 123.90849304199219,60.05812072753906 L123.61053466796875,61.34442138671875 L122.96923828125,61.19584655761719 L123.24581909179688,59.990692138671875 C123.25602722167969,59.94629669189453 123.25350952148438,59.956512451171875 123.26446533203125,59.908912658691406 L122.62396240234375,59.760520935058594 C122.60749816894531,59.83209991455078 122.61744689941406,59.79670715332031 122.60588073730469,59.83912658691406 L122.32794189453125,61.047271728515625 L120.88188171386719,60.71113586425781 C120.88188171386719,60.71113586425781 120.87582397460938,60.748870849609375 120.86546325683594,60.79296875 L120.73381042480469,61.354766845703125 L120.89662170410156,61.392486572265625 C121.25077819824219,61.47454833984375 121.47172546386719,61.828826904296875 121.39007568359375,62.183738708496094 L120.79954528808594,64.75463104248047 C120.72227478027344,65.09054565429688 120.65182495117188,65.38006591796875 120.23097229003906,65.28255462646484 C120.19682312011719,65.27465057373047 119.95954895019531,65.22107696533203 119.85017395019531,65.19572448730469 L119.72320556640625,65.74762725830078 C119.71511840820312,65.77989196777344 119.69839477539062,65.85547637939453 119.69839477539062,65.85547637939453 C119.69839477539062,65.85547637939453 119.7796630859375,65.87218475341797 119.80435180664062,65.8779067993164 L121.14515686035156,66.18854522705078 L120.84881591796875,67.47373962402344 L121.4901123046875,67.622314453125 L121.50860595703125,67.54198455810547 L121.78646850585938,66.33712768554688 L122.42776489257812,66.48571014404297 L122.13209533691406,67.77972412109375 L122.68681335449219,67.90824890136719 L122.76910400390625,67.92731475830078 L123.06906127929688,66.63428497314453 L123.38906860351562,66.70842742919922 C124.39111328125,66.9405746459961 125.13093566894531,66.47737121582031 125.36195373535156,65.47319793701172 C125.47016906738281,65.00279998779297 125.3072509765625,64.53910064697266 124.98153686523438,64.22929382324219 zM122.7515869140625,62.15849304199219 L123.71353149414062,62.38136291503906 C124.06768798828125,62.463409423828125 124.28863525390625,62.81768798828125 124.20698547363281,63.172607421875 C124.12533569335938,63.52751922607422 123.77198791503906,63.748748779296875 123.41783142089844,63.66669464111328 L122.45588684082031,63.44383239746094 L122.7515869140625,62.15849304199219 zM123.28549194335938,65.6681900024414 L122.00288391113281,65.37102508544922 L122.298583984375,64.08568572998047 L123.58119201660156,64.38285064697266 C123.93534851074219,64.46489715576172 124.15629577636719,64.81917572021484 124.07464599609375,65.1740951538086 C123.99299621582031,65.52900695800781 123.6396484375,65.75023651123047 123.28549194335938,65.6681900024414 z" id="svg_19"></path></g><path fill="#000" d="M26.756150722503662,68.13149929046631 C26.718580722808838,68.54753971099854 26.600831031799316,68.91512966156006 26.40290069580078,69.23427963256836 C26.204960823059082,69.55342960357666 25.92685079574585,69.80276012420654 25.568541049957275,69.98227977752686 C25.210240840911865,70.16180992126465 24.779700994491577,70.2515697479248 24.27691102027893,70.2515697479248 C23.75968098640442,70.2515697479248 23.308920979499817,70.13116931915283 22.92461097240448,69.89038944244385 C22.5403009057045,69.6496000289917 22.244120955467224,69.30694007873535 22.036070942878723,68.8624095916748 C21.828020930290222,68.41788005828857 21.724000930786133,67.89783954620361 21.724000930786133,67.30227947235107 L21.724000930786133,66.81073951721191 C21.724000930786133,66.21517944335938 21.830190934240818,65.69513988494873 22.042570918798447,65.25060987472534 C22.2549609541893,64.80607986450195 22.556910932064056,64.46270942687988 22.948450922966003,64.22049951553345 C23.339980959892273,63.97827959060669 23.797250986099243,63.85717964172363 24.320261001586914,63.85717964172363 C24.81437087059021,63.85717964172363 25.23624086380005,63.94764947891235 25.585880994796753,64.12859964370728 C25.935521125793457,64.3095498085022 26.20785093307495,64.56172943115234 26.40290069580078,64.88514947891235 C26.597940921783447,65.20857954025269 26.717141151428223,65.58257961273193 26.760480880737305,66.00715970993042 L25.642230987548828,66.00715970993042 C25.593101024627686,65.59112977981567 25.468130826950073,65.27838945388794 25.267310857772827,65.06894969940186 C25.06648087501526,64.85950946807861 24.750800848007202,64.75478982925415 24.320261001586914,64.75478982925415 C23.837700843811035,64.75478982925415 23.472900986671448,64.93073987960815 23.22584092617035,65.28266954421997 C22.97878098487854,65.63458967208862 22.855260968208313,66.14108943939209 22.855260968208313,66.80218982696533 L22.855260968208313,67.30227947235107 C22.855260968208313,67.951979637146 22.970120906829834,68.45634937286377 23.199840903282166,68.81538963317871 C23.429560899734497,69.17443943023682 23.788580894470215,69.35396003723145 24.27691102027893,69.35396003723145 C24.577430963516235,69.35396003723145 24.82232093811035,69.30764961242676 25.01158094406128,69.21503925323486 C25.20085096359253,69.12242984771729 25.343880891799927,68.98707962036133 25.440680980682373,68.80897998809814 C25.53748083114624,68.63087940216064 25.60322093963623,68.40505981445312 25.637890815734863,68.13149929046631 L26.756150722503662,68.13149929046631 zM31.347620964050293,65.541259765625 L31.347620964050293,70.1660795211792 L30.32905101776123,70.1660795211792 L30.303050994873047,69.70872974395752 C29.996750831604004,70.07061958312988 29.558990955352783,70.2515697479248 28.989750862121582,70.2515697479248 C28.504301071166992,70.2515697479248 28.12433099746704,70.11193943023682 27.849821090698242,69.83267974853516 C27.575310707092285,69.55342960357666 27.438060760498047,69.11886978149414 27.438060760498047,68.52900981903076 L27.438060760498047,65.541259765625 L28.517311096191406,65.541259765625 L28.517311096191406,68.53755950927734 C28.517311096191406,68.83961963653564 28.58449077606201,69.05546951293945 28.71885108947754,69.18511962890625 C28.85322093963623,69.31477928161621 29.030200958251953,69.37959957122803 29.249810695648193,69.37959957122803 C29.74970054626465,69.37959957122803 30.087780952453613,69.20436000823975 30.26404094696045,68.85385990142822 L30.26404094696045,65.541259765625 L31.347620964050293,65.541259765625 zM34.3527307510376,65.45577955245972 C34.413411140441895,65.45577955245972 34.482041358947754,65.46147966384888 34.558610916137695,65.47286987304688 C34.63518047332764,65.48426961898804 34.692251205444336,65.49708986282349 34.72981071472168,65.51133966445923 L34.72115135192871,66.51581001281738 C34.57667064666748,66.49300956726074 34.433640480041504,66.48160934448242 34.29205131530762,66.48160934448242 C33.80949115753174,66.48160934448242 33.48587131500244,66.65970993041992 33.3211612701416,67.01589965820312 L33.3211612701416,70.1660795211792 L32.24191093444824,70.1660795211792 L32.24191093444824,65.541259765625 L33.269150733947754,65.541259765625 L33.2994909286499,66.06272983551025 C33.41796112060547,65.86895942687988 33.565330505371094,65.71935987472534 33.74159049987793,65.61392974853516 C33.917850494384766,65.50848960876465 34.12156105041504,65.45577955245972 34.3527307510376,65.45577955245972 zM37.331830978393555,65.45577955245972 C37.392520904541016,65.45577955245972 37.461140632629395,65.46147966384888 37.53771114349365,65.47286987304688 C37.614291191101074,65.48426961898804 37.67136096954346,65.49708986282349 37.7089204788208,65.51133966445923 L37.70025062561035,66.51581001281738 C37.55577087402344,66.49300956726074 37.41274070739746,66.48160934448242 37.27115058898926,66.48160934448242 C36.78860092163086,66.48160934448242 36.46497058868408,66.65970993041992 36.30027103424072,67.01589965820312 L36.30027103424072,70.1660795211792 L35.22102069854736,70.1660795211792 L35.22102069854736,65.541259765625 L36.24825096130371,65.541259765625 L36.27859115600586,66.06272983551025 C36.39707088470459,65.86895942687988 36.54443073272705,65.71935987472534 36.72069072723389,65.61392974853516 C36.8969612121582,65.50848960876465 37.10067081451416,65.45577955245972 37.331830978393555,65.45577955245972 zM42.16603088378906,68.1870698928833 L39.11033058166504,68.1870698928833 C39.13056182861328,68.42357921600342 39.19268035888672,68.63301944732666 39.29671096801758,68.81538963317871 C39.40073013305664,68.99776935577393 39.54160118103027,69.14023971557617 39.71930122375488,69.24282932281494 C39.897010803222656,69.34540939331055 40.10433006286621,69.39669990539551 40.34127998352051,69.39669990539551 C40.826730728149414,69.39669990539551 41.21681022644043,69.2086296081543 41.51155090332031,68.83248996734619 L42.08801078796387,69.38387966156006 C41.91753005981445,69.6317892074585 41.680580139160156,69.83837985992432 41.377180099487305,70.00364971160889 C41.07378005981445,70.16893005371094 40.706809997558594,70.2515697479248 40.27627182006836,70.2515697479248 C39.819711685180664,70.2515697479248 39.42096138000488,70.15396976470947 39.07999038696289,69.95876979827881 C38.73902130126953,69.76357936859131 38.47751998901367,69.49643993377686 38.295480728149414,69.15734004974365 C38.113441467285156,68.81823921203613 38.02242088317871,68.43782997131348 38.02242088317871,68.01609992980957 L38.02242088317871,67.84084987640381 C38.02242088317871,67.36496925354004 38.11488151550293,66.94679927825928 38.2998104095459,66.58632946014404 C38.484750747680664,66.22585964202881 38.73902130126953,65.94731950759888 39.062660217285156,65.75069952011108 C39.38628005981445,65.55407953262329 39.750370025634766,65.45577955245972 40.1549015045166,65.45577955245972 C40.59701156616211,65.45577955245972 40.96831130981445,65.55123949050903 41.268821716308594,65.74215984344482 C41.5693416595459,65.93307971954346 41.79400062561035,66.20021963119507 41.94281005859375,66.54358959197998 C42.09162139892578,66.88696002960205 42.16603088378906,67.28518009185791 42.16603088378906,67.73825931549072 L42.16603088378906,68.1870698928833 zM41.09979057312012,67.33648014068604 C41.08534049987793,67.03726959228516 41.00299072265625,66.79150009155273 40.852731704711914,66.59915924072266 C40.702470779418945,66.40680980682373 40.46842002868652,66.31063938140869 40.15057182312012,66.31063938140869 C39.86739158630371,66.31063938140869 39.63912010192871,66.40751934051514 39.46575164794922,66.60128974914551 C39.29237174987793,66.79505920410156 39.18113136291504,67.06718921661377 39.132001876831055,67.4176893234253 L41.09979057312012,67.4176893234253 L41.09979057312012,67.33648014068604 zM45.205810546875,65.45577955245972 C45.68259048461914,65.45577955245972 46.0502815246582,65.59183979034424 46.30890083312988,65.86396980285645 C46.5675106048584,66.13610982894897 46.696821212768555,66.57564926147461 46.696821212768555,67.1826000213623 L46.696821212768555,70.1660795211792 L45.617570877075195,70.1660795211792 L45.617570877075195,67.1740493774414 C45.617570877075195,66.86629962921143 45.55039024353027,66.64759922027588 45.41603088378906,66.5179500579834 C45.281660079956055,66.38828945159912 45.07579040527344,66.32345962524414 44.798391342163086,66.32345962524414 C44.596120834350586,66.32345962524414 44.4155216217041,66.37191009521484 44.256601333618164,66.46879005432129 C44.09767150878906,66.5656795501709 43.97053146362305,66.70102977752686 43.87518119812012,66.87484931945801 L43.87518119812012,70.1660795211792 L42.79593086242676,70.1660795211792 L42.79593086242676,65.541259765625 L43.81016159057617,65.541259765625 L43.84484100341797,66.07554960250854 C44.01243019104004,65.87607955932617 44.21181106567383,65.72291946411133 44.442970275878906,65.61605978012085 C44.67414093017578,65.50919961929321 44.92842102050781,65.45577955245972 45.205810546875,65.45577955245972 zM51.45300102233887,68.6273193359375 C51.4443302154541,68.92367935180664 51.35331153869629,69.19580936431885 51.179931640625,69.4437198638916 C51.006561279296875,69.69162940979004 50.775400161743164,69.88824939727783 50.486440658569336,70.03357982635498 C50.19749069213867,70.17889976501465 49.881080627441406,70.2515697479248 49.5372314453125,70.2515697479248 C49.0720100402832,70.2515697479248 48.67831039428711,70.14898014068604 48.35612106323242,69.94380950927734 C48.0339412689209,69.73864936828613 47.79339027404785,69.46010971069336 47.63446044921875,69.10818004608154 C47.47553062438965,68.75625991821289 47.39607048034668,68.36231994628906 47.39607048034668,67.92632961273193 L47.39607048034668,67.78100967407227 C47.39607048034668,67.34501934051514 47.476261138916016,66.95107936859131 47.63663101196289,66.59915924072266 C47.797000885009766,66.24724006652832 48.03755187988281,65.96869945526123 48.35829162597656,65.76352977752686 C48.67903137207031,65.55835962295532 49.070560455322266,65.45577955245972 49.53289031982422,65.45577955245972 C49.9056510925293,65.45577955245972 50.23577117919922,65.52914953231812 50.52328109741211,65.67589950561523 C50.810800552368164,65.82265949249268 51.03544998168945,66.02852964401245 51.1972713470459,66.29354000091553 C51.35909080505371,66.55854988098145 51.4443302154541,66.86203002929688 51.45300102233887,67.20396995544434 L50.434431076049805,67.20396995544434 C50.42576026916504,67.03870010375977 50.38386154174805,66.88838958740234 50.30874061584473,66.75302982330322 C50.23361015319824,66.61767959594727 50.12886047363281,66.51010990142822 49.9945011138916,66.43031978607178 C49.860130310058594,66.35052967071533 49.70193099975586,66.31063938140869 49.5198917388916,66.31063938140869 C49.13558006286621,66.31063938140869 48.86541175842285,66.44883918762207 48.70937156677246,66.72524929046631 C48.55333137512207,67.00165939331055 48.47532081604004,67.35356998443604 48.47532081604004,67.78100967407227 L48.47532081604004,67.92632961273193 C48.47532081604004,68.90657997131348 48.824951171875,69.39669990539551 49.524221420288086,69.39669990539551 C49.68893051147461,69.39669990539551 49.83917999267578,69.36392974853516 49.97499084472656,69.29838943481445 C50.110801696777344,69.23285007476807 50.219160079956055,69.14166927337646 50.300071716308594,69.02482986450195 C50.3809700012207,68.9079999923706 50.42576026916504,68.77549934387207 50.434431076049805,68.6273193359375 L51.45300102233887,68.6273193359375 zM52.689701080322266,63.771689891815186 C52.87753105163574,63.771689891815186 53.02634048461914,63.825119495391846 53.13614082336426,63.93197965621948 C53.245941162109375,64.03883981704712 53.30084037780762,64.17489957809448 53.30084037780762,64.34017944335938 C53.30084037780762,64.50259971618652 53.245941162109375,64.6365294456482 53.13614082336426,64.74195957183838 C53.02634048461914,64.84739971160889 52.87753105163574,64.90010976791382 52.689701080322266,64.90010976791382 C52.50188064575195,64.90010976791382 52.353071212768555,64.84810972213745 52.24327087402344,64.7440996170044 C52.13347053527832,64.64008951187134 52.078561782836914,64.5054497718811 52.078561782836914,64.34017944335938 C52.078561782836914,64.17489957809448 52.13347053527832,64.03883981704712 52.24327087402344,63.93197965621948 C52.353071212768555,63.825119495391846 52.50188064575195,63.771689891815186 52.689701080322266,63.771689891815186 zM52.147911071777344,70.1660795211792 L52.147911071777344,65.541259765625 L53.2271614074707,65.541259765625 L53.2271614074707,70.1660795211792 L52.147911071777344,70.1660795211792 zM58.16538047790527,68.1870698928833 L55.10968208312988,68.1870698928833 C55.12991142272949,68.42357921600342 55.19202995300293,68.63301944732666 55.29606056213379,68.81538963317871 C55.40007972717285,68.99776935577393 55.54094123840332,69.14023971557617 55.71865272521973,69.24282932281494 C55.89636039733887,69.34540939331055 56.103681564331055,69.39669990539551 56.34063148498535,69.39669990539551 C56.82607078552246,69.39669990539551 57.21616172790527,69.2086296081543 57.51090049743652,68.83248996734619 L58.08736228942871,69.38387966156006 C57.91687202453613,69.6317892074585 57.679941177368164,69.83837985992432 57.37653160095215,70.00364971160889 C57.073129653930664,70.16893005371094 56.706159591674805,70.2515697479248 56.27560997009277,70.2515697479248 C55.81905937194824,70.2515697479248 55.42030906677246,70.15396976470947 55.0793399810791,69.95876979827881 C54.73837089538574,69.76357936859131 54.47686958312988,69.49643993377686 54.29483222961426,69.15734004974365 C54.11279106140137,68.81823921203613 54.021772384643555,68.43782997131348 54.021772384643555,68.01609992980957 L54.021772384643555,67.84084987640381 C54.021772384643555,67.36496925354004 54.11422920227051,66.94679927825928 54.29916191101074,66.58632946014404 C54.48410224914551,66.22585964202881 54.73837089538574,65.94731950759888 55.06200981140137,65.75069952011108 C55.38564109802246,65.55407953262329 55.749711990356445,65.45577955245972 56.15424919128418,65.45577955245972 C56.59636116027832,65.45577955245972 56.967660903930664,65.55123949050903 57.268171310424805,65.74215984344482 C57.56868934631348,65.93307971954346 57.793352127075195,66.20021963119507 57.94215965270996,66.54358959197998 C58.09097099304199,66.88696002960205 58.16538047790527,67.28518009185791 58.16538047790527,67.73825931549072 L58.16538047790527,68.1870698928833 zM57.099130630493164,67.33648014068604 C57.08469200134277,67.03726959228516 57.00234031677246,66.79150009155273 56.85207939147949,66.59915924072266 C56.70182228088379,66.40680980682373 56.46777153015137,66.31063938140869 56.149919509887695,66.31063938140869 C55.86673927307129,66.31063938140869 55.638471603393555,66.40751934051514 55.46510124206543,66.60128974914551 C55.29171943664551,66.79505920410156 55.180471420288086,67.06718921661377 55.13134956359863,67.4176893234253 L57.099130630493164,67.4176893234253 L57.099130630493164,67.33648014068604 zM60.42931938171387,68.2340898513794 C59.89185905456543,68.12294960021973 59.47722053527832,67.95909976959229 59.18536949157715,67.74253940582275 C58.89352989196777,67.52596950531006 58.747602462768555,67.23246955871582 58.747602462768555,66.86203002929688 C58.747602462768555,66.60841941833496 58.822011947631836,66.37403964996338 58.9708194732666,66.15889978408813 C59.11963081359863,65.94375944137573 59.33201026916504,65.772789478302 59.607961654663086,65.64597988128662 C59.883920669555664,65.5191798210144 60.20248985290527,65.45577955245972 60.56368064880371,65.45577955245972 C60.94799995422363,65.45577955245972 61.282461166381836,65.51988983154297 61.56707954406738,65.64811944961548 C61.851701736450195,65.77634954452515 62.07058143615723,65.95230960845947 62.22373008728027,66.17599964141846 C62.37687110900879,66.39968967437744 62.45345115661621,66.65115928649902 62.45345115661621,66.930419921875 L61.37420082092285,66.930419921875 C61.37420082092285,66.80788993835449 61.34314155578613,66.69462013244629 61.2810115814209,66.59060955047607 C61.218889236450195,66.48659992218018 61.12714195251465,66.40324974060059 61.005781173706055,66.34055995941162 C60.88442039489746,66.27786922454834 60.73706245422363,66.2465295791626 60.56368064880371,66.2465295791626 C60.318071365356445,66.2465295791626 60.12881278991699,66.30066967010498 59.99588966369629,66.40894985198975 C59.86297035217285,66.51723003387451 59.79651069641113,66.65258979797363 59.79651069641113,66.81501007080078 C59.79651069641113,66.91759967803955 59.82468223571777,67.00450992584229 59.88102912902832,67.07573986053467 C59.93737983703613,67.14697933197021 60.03489112854004,67.21109962463379 60.173601150512695,67.2680892944336 C60.31229209899902,67.32507991790771 60.50444984436035,67.3792200088501 60.75005912780762,67.43050956726074 C61.131479263305664,67.51029968261719 61.4478816986084,67.60717964172363 61.69928169250488,67.72116947174072 C61.95067024230957,67.83514976501465 62.144269943237305,67.98331928253174 62.280080795288086,68.16569995880127 C62.41588020324707,68.348069190979 62.48378944396973,68.57602977752686 62.48378944396973,68.84958934783936 C62.48378944396973,69.12029933929443 62.40505027770996,69.36250972747803 62.24757194519043,69.57621955871582 C62.09008979797363,69.7899398803711 61.866872787475586,69.95591926574707 61.57792091369629,70.07417964935303 C61.28896141052246,70.19244003295898 60.95522117614746,70.2515697479248 60.57669258117676,70.2515697479248 C60.166372299194336,70.2515697479248 59.81096076965332,70.17747974395752 59.51044273376465,70.02929973602295 C59.20993232727051,69.88111972808838 58.98166084289551,69.68877983093262 58.82562065124512,69.45226955413818 C58.66958045959473,69.21574974060059 58.591569900512695,68.9664192199707 58.591569900512695,68.70425987243652 L59.63614082336426,68.70425987243652 C59.6476993560791,68.96356964111328 59.745222091674805,69.15448951721191 59.928701400756836,69.27701950073242 C60.112192153930664,69.39954948425293 60.33395957946777,69.46081924438477 60.59402275085449,69.46081924438477 C60.85696983337402,69.46081924438477 61.061410903930664,69.41023921966553 61.20733070373535,69.30908012390137 C61.35325050354004,69.20792007446289 61.42621040344238,69.07327938079834 61.42621040344238,68.90514945983887 C61.42621040344238,68.7968692779541 61.40020942687988,68.70425987243652 61.34819984436035,68.6273193359375 C61.29618263244629,68.5503797531128 61.197221755981445,68.47914981842041 61.05129051208496,68.4136095046997 C60.90537071228027,68.348069190979 60.698049545288086,68.28822994232178 60.42931938171387,68.2340898513794 zM67.34541130065918,67.49034976959229 C66.68081092834473,67.28802967071533 66.16792106628418,67.03870010375977 65.80673027038574,66.74234962463379 C65.44553184509277,66.44598960876465 65.26494026184082,66.05987977981567 65.26494026184082,65.58400964736938 C65.26494026184082,65.25060987472534 65.35957145690918,64.95282983779907 65.54884147644043,64.69066953659058 C65.73810005187988,64.42850971221924 66.00322151184082,64.22405958175659 66.34419059753418,64.07730960845947 C66.68515205383301,63.93054962158203 67.07523918151855,63.85717964172363 67.51445198059082,63.85717964172363 C67.97389030456543,63.85717964172363 68.37626075744629,63.94194984436035 68.72155952453613,64.11149978637695 C69.06686210632324,64.28104972839355 69.33197975158691,64.5104398727417 69.51691246032715,64.79966974258423 C69.70184135437012,65.08889961242676 69.79430198669434,65.40875959396362 69.79430198669434,65.75924968719482 L68.67605018615723,65.75924968719482 C68.67605018615723,65.44864988327026 68.57708168029785,65.20073986053467 68.37915229797363,65.01551961898804 C68.18121147155762,64.83029985427856 67.88865089416504,64.73768949508667 67.50145149230957,64.73768949508667 C67.13736152648926,64.73768949508667 66.86068916320801,64.8153395652771 66.67143058776855,64.97063970565796 C66.4821605682373,65.12593984603882 66.38752937316895,65.32896947860718 66.38752937316895,65.57972955703735 C66.38752937316895,65.80199956893921 66.49444007873535,65.99006986618042 66.7082691192627,66.14393949508667 C66.9221019744873,66.29782009124756 67.25872993469238,66.44028949737549 67.71817207336426,66.5713701248169 C68.19783210754395,66.71099948883057 68.59008979797363,66.87057971954346 68.89492988586426,67.05009937286377 C69.19978141784668,67.2296199798584 69.42733192443848,67.44190979003906 69.57758903503418,67.68696975708008 C69.72784996032715,67.9320297241211 69.80298042297363,68.21840953826904 69.80298042297363,68.54610919952393 C69.80298042297363,68.89375972747803 69.71051216125488,69.19580936431885 69.52557945251465,69.45226955413818 C69.34065055847168,69.70872974395752 69.07842063903809,69.90605926513672 68.73890113830566,70.04426002502441 C68.39937019348145,70.1824598312378 68.0027904510498,70.2515697479248 67.54913139343262,70.2515697479248 C67.12725257873535,70.2515697479248 66.72633171081543,70.1767692565918 66.34634971618652,70.02715969085693 C65.96637153625488,69.87755966186523 65.65863990783691,69.65316009521484 65.42313957214355,69.35396003723145 C65.1876392364502,69.05474948883057 65.06990242004395,68.6942892074585 65.06990242004395,68.27254962921143 L66.19249153137207,68.27254962921143 C66.19249153137207,68.64584922790527 66.31601142883301,68.92295932769775 66.56307029724121,69.10390949249268 C66.81012916564941,69.2848596572876 67.1388111114502,69.37532997131348 67.54913139343262,69.37532997131348 C67.91320991516113,69.37532997131348 68.19204902648926,69.30123996734619 68.38565254211426,69.15306949615479 C68.57925224304199,69.00488948822021 68.67605018615723,68.805419921875 68.67605018615723,68.55465984344482 C68.67605018615723,68.3836898803711 68.63993263244629,68.24049949645996 68.56768989562988,68.12508964538574 C68.49545097351074,68.00967979431152 68.36470222473145,67.90211009979248 68.17543983459473,67.8023796081543 C67.98616981506348,67.70263957977295 67.70950126647949,67.59863948822021 67.34541130065918,67.49034976959229 zM74.38144111633301,65.541259765625 L74.38144111633301,70.1660795211792 L73.36288261413574,70.1660795211792 L73.33687019348145,69.70872974395752 C73.03058052062988,70.07061958312988 72.59282112121582,70.2515697479248 72.02356910705566,70.2515697479248 C71.53812980651855,70.2515697479248 71.15815162658691,70.11193943023682 70.8836498260498,69.83267974853516 C70.60914039611816,69.55342960357666 70.47189140319824,69.11886978149414 70.47189140319824,68.52900981903076 L70.47189140319824,65.541259765625 L71.5511302947998,65.541259765625 L71.5511302947998,68.53755950927734 C71.5511302947998,68.83961963653564 71.61831092834473,69.05546951293945 71.7526798248291,69.18511962890625 C71.88704109191895,69.31477928161621 72.06403160095215,69.37959957122803 72.28363227844238,69.37959957122803 C72.78352165222168,69.37959957122803 73.1215991973877,69.20436000823975 73.29786109924316,68.85385990142822 L73.29786109924316,65.541259765625 L74.38144111633301,65.541259765625 zM77.56426048278809,65.45577955245972 C77.9543514251709,65.45577955245972 78.2873706817627,65.55265951156616 78.56332206726074,65.74642944335938 C78.83928108215332,65.94019985198975 79.04804039001465,66.21374988555908 79.18963050842285,66.56709957122803 C79.33122062683105,66.92044925689697 79.40200996398926,67.3336296081543 79.40200996398926,67.80664920806885 L79.40200996398926,67.89640998840332 C79.40200996398926,68.34948921203613 79.33049964904785,68.75412940979004 79.18745994567871,69.11032009124756 C79.04443168640137,69.46651935577393 78.83566093444824,69.74576950073242 78.5611515045166,69.94808959960938 C78.28664207458496,70.15040969848633 77.95869255065918,70.2515697479248 77.57726097106934,70.2515697479248 C77.0744800567627,70.2515697479248 76.66706275939941,70.08486938476562 76.35499000549316,69.75146961212158 L76.35499000549316,71.94419956207275 L75.2757396697998,71.94419956207275 L75.2757396697998,65.541259765625 L76.26830101013184,65.541259765625 L76.3116397857666,66.00715970993042 C76.62660026550293,65.6395697593689 77.04414176940918,65.45577955245972 77.56426048278809,65.45577955245972 zM78.3227710723877,67.80664920806885 C78.3227710723877,67.36781978607178 78.23536109924316,67.01091957092285 78.0605411529541,66.73593997955322 C77.88572120666504,66.46094989776611 77.6206111907959,66.32345962524414 77.26519203186035,66.32345962524414 C76.84332084655762,66.32345962524414 76.5399227142334,66.49586009979248 76.35499000549316,66.84066009521484 L76.35499000549316,68.87095928192139 C76.54281044006348,69.22145938873291 76.84910011291504,69.39669990539551 77.27385902404785,69.39669990539551 C77.62639045715332,69.39669990539551 77.88932991027832,69.25706958770752 78.06271171569824,68.97781944274902 C78.23608207702637,68.69855976104736 78.3227710723877,68.3380994796753 78.3227710723877,67.89640998840332 L78.3227710723877,67.80664920806885 zM82.40279197692871,65.45577955245972 C82.79287910461426,65.45577955245972 83.12590217590332,65.55265951156616 83.4018497467041,65.74642944335938 C83.67780113220215,65.94019985198975 83.88657188415527,66.21374988555908 84.02816200256348,66.56709957122803 C84.16975212097168,66.92044925689697 84.24054145812988,67.3336296081543 84.24054145812988,67.80664920806885 L84.24054145812988,67.89640998840332 C84.24054145812988,68.34948921203613 84.16903114318848,68.75412940979004 84.02599143981934,69.11032009124756 C83.88295936584473,69.46651935577393 83.67419242858887,69.74576950073242 83.39967918395996,69.94808959960938 C83.12518119812012,70.15040969848633 82.79722023010254,70.2515697479248 82.41579246520996,70.2515697479248 C81.91301155090332,70.2515697479248 81.50559043884277,70.08486938476562 81.19351005554199,69.75146961212158 L81.19351005554199,71.94419956207275 L80.11427116394043,71.94419956207275 L80.11427116394043,65.541259765625 L81.10683250427246,65.541259765625 L81.15017127990723,66.00715970993042 C81.46513175964355,65.6395697593689 81.88266944885254,65.45577955245972 82.40279197692871,65.45577955245972 zM83.16129112243652,67.80664920806885 C83.16129112243652,67.36781978607178 83.07389259338379,67.01091957092285 82.89907264709473,66.73593997955322 C82.72425270080566,66.46094989776611 82.45914268493652,66.32345962524414 82.10371971130371,66.32345962524414 C81.68184089660645,66.32345962524414 81.37845039367676,66.49586009979248 81.19351005554199,66.84066009521484 L81.19351005554199,68.87095928192139 C81.3813419342041,69.22145938873291 81.68762016296387,69.39669990539551 82.11239051818848,69.39669990539551 C82.46492195129395,69.39669990539551 82.72786140441895,69.25706958770752 82.90123176574707,68.97781944274902 C83.07460975646973,68.69855976104736 83.16129112243652,68.3380994796753 83.16129112243652,67.89640998840332 L83.16129112243652,67.80664920806885 zM84.75774955749512,67.81092929840088 C84.75774955749512,67.36069965362549 84.84515953063965,66.95748996734619 85.01997947692871,66.60128974914551 C85.19479942321777,66.2451000213623 85.44691276550293,65.96512985229492 85.77630805969238,65.76138973236084 C86.1057300567627,65.55764961242676 86.49292182922363,65.45577955245972 86.93791389465332,65.45577955245972 C87.3886890411377,65.45577955245972 87.77949714660645,65.55764961242676 88.11035346984863,65.76138973236084 C88.44120216369629,65.96512985229492 88.69404029846191,66.2451000213623 88.86885261535645,66.60128974914551 C89.04367256164551,66.95748996734619 89.13108253479004,67.36069965362549 89.13108253479004,67.81092929840088 L89.13108253479004,67.90069007873535 C89.13108253479004,68.35091972351074 89.04367256164551,68.75412940979004 88.86885261535645,69.11032009124756 C88.69404029846191,69.46651935577393 88.44193458557129,69.74576950073242 88.11252021789551,69.94808959960938 C87.7830982208252,70.15040969848633 87.39446449279785,70.2515697479248 86.94658851623535,70.2515697479248 C86.49869728088379,70.2515697479248 86.10933876037598,70.15040969848633 85.77848243713379,69.94808959960938 C85.44762992858887,69.74576950073242 85.19479942321777,69.46651935577393 85.01997947692871,69.11032009124756 C84.84515953063965,68.75412940979004 84.75774955749512,68.35091972351074 84.75774955749512,67.90069007873535 L84.75774955749512,67.81092929840088 zM85.83699989318848,67.90069007873535 C85.83699989318848,68.33951950073242 85.9294605255127,68.69855976104736 86.11440467834473,68.97781944274902 C86.2993335723877,69.25706958770752 86.57672309875488,69.39669990539551 86.94658851623535,69.39669990539551 C87.19219398498535,69.39669990539551 87.39807319641113,69.3304500579834 87.56423377990723,69.1979398727417 C87.73037910461426,69.06543922424316 87.85318183898926,68.88663005828857 87.93264198303223,68.66152000427246 C88.0121021270752,68.43639945983887 88.05184364318848,68.18278980255127 88.05184364318848,67.90069007873535 L88.05184364318848,67.81092929840088 C88.05184364318848,67.53166961669922 88.0121021270752,67.27877998352051 87.93264198303223,67.05223941802979 C87.85318183898926,66.82569980621338 87.72965431213379,66.64546012878418 87.56205940246582,66.51152992248535 C87.39446449279785,66.37759971618652 87.1864185333252,66.31063938140869 86.93791389465332,66.31063938140869 C86.69230079650879,66.31063938140869 86.48715400695801,66.37759971618652 86.32244300842285,66.51152992248535 C86.15773963928223,66.64546012878418 86.03565406799316,66.82569980621338 85.9561939239502,67.05223941802979 C85.87673377990723,67.27877998352051 85.83699989318848,67.53166961669922 85.83699989318848,67.81092929840088 L85.83699989318848,67.90069007873535 zM91.95414924621582,65.45577955245972 C92.01483345031738,65.45577955245972 92.08345985412598,65.46147966384888 92.16004371643066,65.47286987304688 C92.23660469055176,65.48426961898804 92.29367256164551,65.49708986282349 92.33123970031738,65.51133966445923 L92.32257270812988,66.51581001281738 C92.17808723449707,66.49300956726074 92.03505897521973,66.48160934448242 91.89347267150879,66.48160934448242 C91.41091346740723,66.48160934448242 91.08728981018066,66.65970993041992 90.92259407043457,67.01589965820312 L90.92259407043457,70.1660795211792 L89.84333992004395,70.1660795211792 L89.84333992004395,65.541259765625 L90.87056922912598,65.541259765625 L90.90091133117676,66.06272983551025 C91.01938056945801,65.86895942687988 91.16674995422363,65.71935987472534 91.3430118560791,65.61392974853516 C91.51927375793457,65.50848960876465 91.72299385070801,65.45577955245972 91.95414924621582,65.45577955245972 zM94.86824226379395,69.37104988098145 C94.98382759094238,69.37104988098145 95.10663032531738,69.35680961608887 95.23665809631348,69.32831001281738 L95.23665809631348,70.14898014068604 C95.02861213684082,70.21737003326416 94.79455757141113,70.2515697479248 94.53450202941895,70.2515697479248 C94.15307807922363,70.2515697479248 93.85256385803223,70.1475601196289 93.63295936584473,69.9395399093628 C93.4133472442627,69.73151969909668 93.30355262756348,69.39954948425293 93.30355262756348,68.94361972808838 L93.30355262756348,66.32773971557617 L92.54071235656738,66.32773971557617 L92.54071235656738,65.541259765625 L93.30355262756348,65.541259765625 L93.30355262756348,64.41283988952637 L94.38279914855957,64.41283988952637 L94.38279914855957,65.541259765625 L95.20632362365723,65.541259765625 L95.20632362365723,66.32773971557617 L94.38279914855957,66.32773971557617 L94.38279914855957,68.87095928192139 C94.38279914855957,69.06472969055176 94.42325019836426,69.19651985168457 94.50415992736816,69.26632976531982 C94.58506965637207,69.33614921569824 94.70643043518066,69.37104988098145 94.86824226379395,69.37104988098145 zM99.80645942687988,68.1870698928833 L96.75075721740723,68.1870698928833 C96.7709903717041,68.42357921600342 96.8331241607666,68.63301944732666 96.93714332580566,68.81538963317871 C97.04116249084473,68.99776935577393 97.1820240020752,69.14023971557617 97.35972785949707,69.24282932281494 C97.53745460510254,69.34540939331055 97.7447681427002,69.39669990539551 97.98171424865723,69.39669990539551 C98.4671573638916,69.39669990539551 98.85724067687988,69.2086296081543 99.15197944641113,68.83248996734619 L99.72844123840332,69.38387966156006 C99.55794715881348,69.6317892074585 99.32102394104004,69.83837985992432 99.01761054992676,70.00364971160889 C98.71421241760254,70.16893005371094 98.34723854064941,70.2515697479248 97.91670417785645,70.2515697479248 C97.46015357971191,70.2515697479248 97.06138801574707,70.15396976470947 96.72042274475098,69.95876979827881 C96.37945747375488,69.76357936859131 96.11795234680176,69.49643993377686 95.9359073638916,69.15734004974365 C95.75387001037598,68.81823921203613 95.66285133361816,68.43782997131348 95.66285133361816,68.01609992980957 L95.66285133361816,67.84084987640381 C95.66285133361816,67.36496925354004 95.75531196594238,66.94679927825928 95.94024848937988,66.58632946014404 C96.12517738342285,66.22585964202881 96.37945747375488,65.94731950759888 96.70308876037598,65.75069952011108 C97.02672004699707,65.55407953262329 97.39078712463379,65.45577955245972 97.79532814025879,65.45577955245972 C98.2374439239502,65.45577955245972 98.60874366760254,65.55123949050903 98.90925788879395,65.74215984344482 C99.20977210998535,65.93307971954346 99.43442726135254,66.20021963119507 99.58323860168457,66.54358959197998 C99.73205757141113,66.88696002960205 99.80645942687988,67.28518009185791 99.80645942687988,67.73825931549072 L99.80645942687988,68.1870698928833 zM98.74021339416504,67.33648014068604 C98.72577095031738,67.03726959228516 98.64341926574707,66.79150009155273 98.4931583404541,66.59915924072266 C98.34289741516113,66.40680980682373 98.10885047912598,66.31063938140869 97.79100227355957,66.31063938140869 C97.50782203674316,66.31063938140869 97.27955055236816,66.40751934051514 97.10618019104004,66.60128974914551 C96.93280220031738,66.79505920410156 96.82155799865723,67.06718921661377 96.77243232727051,67.4176893234253 L98.74021339416504,67.4176893234253 L98.74021339416504,67.33648014068604 zM104.37626075744629,63.6007194519043 L104.37626075744629,70.1660795211792 L103.40104103088379,70.1660795211792 L103.34902381896973,69.68307971954346 C103.03695106506348,70.0620698928833 102.61941719055176,70.2515697479248 102.09641456604004,70.2515697479248 C101.72654151916504,70.2515697479248 101.40219306945801,70.15040969848633 101.12335395812988,69.94808959960938 C100.84450721740723,69.74576950073242 100.62996101379395,69.46651935577393 100.47970771789551,69.11032009124756 C100.32945442199707,68.75412940979004 100.25432014465332,68.35233974456787 100.25432014465332,67.9049596786499 L100.25432014465332,67.81519985198975 C100.25432014465332,67.34786987304688 100.3287296295166,66.93612003326416 100.47754096984863,66.57991981506348 C100.62635231018066,66.22373008728027 100.84017372131348,65.94731950759888 101.11902046203613,65.75069952011108 C101.39785957336426,65.55407953262329 101.72654151916504,65.45577955245972 102.10507392883301,65.45577955245972 C102.59630012512207,65.45577955245972 102.99360847473145,65.625319480896 103.2970142364502,65.96441984176636 L103.2970142364502,63.6007194519043 L104.37626075744629,63.6007194519043 zM102.36947059631348,69.37959957122803 C102.79712104797363,69.37959957122803 103.10630226135254,69.19437980651855 103.2970142364502,68.8239393234253 L103.2970142364502,66.86629962921143 C103.10919380187988,66.50440979003906 102.80290412902832,66.32345962524414 102.37813758850098,66.32345962524414 C102.02561378479004,66.32345962524414 101.76339149475098,66.461669921875 101.5914478302002,66.73806953430176 C101.41953468322754,67.014479637146 101.33357429504395,67.37351989746094 101.33357429504395,67.81519985198975 L101.33357429504395,67.9049596786499 C101.33357429504395,68.34379959106445 101.41807746887207,68.69926929473877 101.58712196350098,68.97140979766846 C101.75617408752441,69.24353981018066 102.01695442199707,69.37959957122803 102.36947059631348,69.37959957122803 z" opacity=".5" id="svg_20"></path></g></g><text fill="#ffffff" stroke="#000000" stroke-width="0" x="131.5" y="32" id="svg_22" font-size="24" font-family="serif" text-anchor="middle" xml:space="preserve">Pesaify</text></g></svg>