<?xml version="1.0" encoding="UTF-8" standalone="no"?>
<svg width="50px" height="41px" viewBox="0 0 50 41" version="1.1" xmlns="http://www.w3.org/2000/svg" xmlns:xlink="http://www.w3.org/1999/xlink" xmlns:sketch="http://www.bohemiancoding.com/sketch/ns">
    <!-- Generator: Sketch 3.3.2 (12043) - http://www.bohemiancoding.com/sketch -->
    <title>browser-iphone-android</title>
    <desc>Created with Sketch.</desc>
    <defs></defs>
    <g id="Page-1" stroke="none" stroke-width="1" fill="none" fill-rule="evenodd" sketch:type="MSPage">
        <g id="01-copy-3" sketch:type="MSArtboardGroup" transform="translate(-530.000000, -248.500000)" fill="#3555A6">
            <g id="browser-iphone-android" sketch:type="MSLayerGroup" transform="translate(530.000000, 249.000000)">
                <g id="Group" sketch:type="MSShapeGroup">
                    <circle id="Oval" cx="5" cy="4.4" r="1.1"></circle>
                    <circle id="Oval" cx="11.7" cy="4.4" r="1.1"></circle>
                    <circle id="Oval" cx="8.3" cy="4.4" r="1.1"></circle>
                    <path d="M24.1,37.4 C23.1,37.4 22.3,36.6 22.3,35.6 C22.3,34.6 23.1,33.8 24.1,33.8 C25.1,33.8 25.9,34.6 25.9,35.6 C25.9,36.6 25.1,37.4 24.1,37.4 L24.1,37.4 Z M24.1,34.7 C23.6,34.7 23.3,35.1 23.3,35.5 C23.3,35.9 23.7,36.3 24.1,36.3 C24.6,36.3 24.9,35.9 24.9,35.5 C24.9,35.1 24.5,34.7 24.1,34.7 L24.1,34.7 Z" id="Shape"></path>
                    <path d="M25.8,14.9 L22.1,14.9 C21.8,14.9 21.6,14.7 21.6,14.4 C21.6,14.1 21.8,13.9 22.1,13.9 L25.8,13.9 C26.1,13.9 26.3,14.1 26.3,14.4 C26.3,14.7 26.1,14.9 25.8,14.9 L25.8,14.9 Z" id="Shape"></path>
                    <path d="M46.4,11.2 L45.2,11.2 L45.2,1.9 C45.2,0.9 44.3,0 43.3,0 L1.9,0 C0.9,0 0,0.9 0,1.9 L0,34.8 C0,35.8 0.9,36.7 1.9,36.7 L16.3,36.7 L16.3,37.7 C16.3,38.8 17.2,39.7 18.3,39.7 L29.7,39.7 C30.8,39.7 31.7,38.8 31.7,37.7 L31.7,36.7 L33,36.7 L33,36.8 C33,38.4 34.3,39.7 35.9,39.7 L46.3,39.7 C47.9,39.7 49.2,38.4 49.2,36.8 L49.2,14.1 C49.3,12.5 48,11.2 46.4,11.2 L46.4,11.2 Z M2,2 L43.1,2 L43.1,7.6 L2,7.6 L2,2 L2,2 Z M29.7,37.7 L18.3,37.7 L18.3,33.5 L29.7,33.5 L29.7,37.7 L29.7,37.7 Z M29.7,32.6 L18.3,32.6 L18.3,16.6 L29.7,16.6 L29.7,32.6 L29.7,32.6 Z M29.7,15.6 L18.3,15.6 L18.3,13.2 L29.7,13.2 L29.7,15.6 L29.7,15.6 Z M33,14.1 L33,34.7 L31.7,34.7 L31.7,13.2 C31.7,12.1 30.8,11.2 29.7,11.2 L18.3,11.2 C17.2,11.2 16.3,12.1 16.3,13.2 L16.3,34.7 L2,34.7 L2,8.6 L43.1,8.6 L43.1,11.2 L35.9,11.2 C34.3,11.2 33,12.5 33,14.1 L33,14.1 Z M47.3,36.8 C47.3,37.3 46.9,37.7 46.4,37.7 L35.9,37.7 C35.4,37.7 35,37.3 35,36.8 L35,33.8 L47.3,33.8 L47.3,36.8 L47.3,36.8 Z M47.3,32.8 L35,32.8 L35,16.3 L47.3,16.3 L47.3,32.8 L47.3,32.8 Z M47.3,15.3 L35,15.3 L35,14.1 C35,13.6 35.4,13.2 35.9,13.2 L46.3,13.2 C46.8,13.2 47.2,13.6 47.2,14.1 L47.2,15.3 L47.3,15.3 Z" id="Shape"></path>
                    <path d="M43.4,14.9 L38.9,14.9 C38.6,14.9 38.4,14.7 38.4,14.4 C38.4,14.1 38.6,13.9 38.9,13.9 L43.4,13.9 C43.7,13.9 43.9,14.1 43.9,14.4 C43.9,14.7 43.7,14.9 43.4,14.9 L43.4,14.9 Z" id="Shape"></path>
                    <path d="M43.4,36.4 L38.9,36.4 C38.6,36.4 38.4,36.2 38.4,35.9 C38.4,35.6 38.6,35.4 38.9,35.4 L43.4,35.4 C43.7,35.4 43.9,35.6 43.9,35.9 C43.9,36.2 43.7,36.4 43.4,36.4 L43.4,36.4 Z" id="Shape"></path>
                </g>
            </g>
        </g>
    </g>
</svg>