<?xml version="1.0" encoding="UTF-8" standalone="no"?>
<svg width="36px" height="65px" viewBox="0 0 36 65" version="1.1" xmlns="http://www.w3.org/2000/svg" xmlns:xlink="http://www.w3.org/1999/xlink" xmlns:sketch="http://www.bohemiancoding.com/sketch/ns">
    <!-- Generator: Sketch 3.3.2 (12043) - http://www.bohemiancoding.com/sketch -->
    <title>stamp-tick</title>
    <desc>Created with Sketch.</desc>
    <defs/>
    <g id="Page-1" stroke="none" stroke-width="1" fill="none" fill-rule="evenodd" sketch:type="MSPage">
        <g id="developers-copy-32" sketch:type="MSArtboardGroup" transform="translate(-534.000000, -479.000000)" fill="#FFA25F">
            <g id="stamp-tick" sketch:type="MSLayerGroup" transform="translate(534.000000, 479.000000)">
                <path d="M14.5,64.7 C7.7,64.7 0.8,62.9 0.8,59.4 C0.8,55.9 7.7,54 14.5,54 C21.3,54 28.2,55.8 28.2,59.3 C28.2,62.8 21.3,64.7 14.5,64.7 L14.5,64.7 Z M14.5,56 C7.5,56 2.8,58 2.8,59.3 C2.8,60.6 7.5,62.6 14.5,62.6 C21.5,62.6 26.2,60.6 26.2,59.3 C26.2,58 21.5,56 14.5,56 L14.5,56 Z" id="Shape" sketch:type="MSShapeGroup"/>
                <path d="M13.1,61.8 L9.9,59.5 L11,57.9 L13.1,59.4 L17.8,56.4 L18.9,58.1 L13.1,61.8 Z" id="Shape" sketch:type="MSShapeGroup"/>
                <g id="Group" sketch:type="MSShapeGroup">
                    <path d="M25.6,44.9 L25.4,44.9 C23.8,46.1 19.9,47.2 14.7,47.2 C7.6,47.2 3.1,45.2 3.1,43.8 C3.1,42.1 3.4,40.8 3.9,39.6 C5.4,41.5 10.2,42.6 14.7,42.6 C16.1,42.6 17.5,42.5 18.8,42.3 L17.9,41.4 C16.9,41.5 15.8,41.6 14.7,41.6 C9.1,41.6 5.1,40.1 4.5,38.6 C5.4,37.3 6.8,36.5 8.7,36 L8.7,36.4 C8.7,38.4 11.7,39.2 14.7,39.2 C15.3,39.2 15.9,39.2 16.5,39.1 C16.2,38.5 16,37.8 15.8,37.2 L14.8,37.2 C12.4,37.2 11,36.6 10.8,36.3 C10.8,35 11.4,33.6 11.6,33.1 C11.8,32.7 12.3,29.4 12.3,28.6 C12.3,27.6 12.1,25.7 11.8,24.7 C11.8,24.6 11.7,24.5 11.7,24.4 C12.7,24.6 13.8,24.7 14.9,24.7 C16,24.7 17,24.6 18.1,24.4 C18.1,24.5 18,24.6 18,24.7 C17.7,25.7 17.5,27.6 17.5,28.6 L17.5,28.8 C18.1,27.9 18.8,27.2 19.7,26.5 C19.8,26 19.9,25.6 20,25.3 C20.1,25.1 20.3,24.7 20.5,24.3 C20.8,23.7 21.2,23.2 21.3,22.7 C21.4,22.3 21.4,21.9 21.3,21.5 L21.3,20.9 C21.3,20.8 21.5,20.3 22.4,18.9 C22.7,18.5 23,18.1 23.2,17.7 L23.3,17.6 C24.2,16 24.6,14.2 24.6,12.1 C24.6,8.5 23.2,5 20.8,2.8 C20.6,1.1 17.8,0.3 15,0.3 C12.2,0.3 9.4,1.1 9.2,2.8 C6.4,4.9 5,8.3 5,11.9 C5,14.6 6,16.8 6.3,17.4 C6.5,17.8 6.9,18.4 7.2,18.7 C8.1,20.1 8.3,20.6 8.3,20.7 L8.3,21.3 C8.3,21.7 8.2,22.2 8.3,22.5 C8.4,23 8.8,23.6 9.1,24.1 C9.3,24.4 9.6,24.9 9.6,25.1 C9.8,25.8 10,27.5 10,28.3 C10,29 9.5,31.9 9.4,32.1 C9.3,32.4 9.1,33 8.9,33.6 C3.6,34.6 0.9,37.8 0.9,43.5 C0.9,47.1 7.7,48.9 14.5,48.9 C20.7,48.9 26.9,47.3 27.9,44.3 C27.2,44.8 26.4,44.9 25.6,44.9 L25.6,44.9 Z M18.9,22.3 C18.8,22.5 18.6,23 18.3,23.4 C15.9,23.9 13.2,23.9 10.8,23.4 C10.6,23 10.3,22.5 10.2,22.3 L10.2,21.7 L10.2,21.2 C11.6,21.6 13,21.9 14.4,21.9 C15.9,21.9 17.3,21.7 18.6,21.2 L18.6,21.7 C18.9,21.9 18.9,22.2 18.9,22.3 L18.9,22.3 Z M14.5,1.6 C17.4,1.6 18.8,2.4 18.8,2.8 C18.8,3.2 17.3,4 14.5,4 C11.6,4 10.2,3.2 10.2,2.8 C10.2,2.4 11.6,1.6 14.5,1.6 L14.5,1.6 Z M8.9,17.7 L8.9,17.7 C8.6,17.3 8.3,16.8 8.2,16.6 C7.7,15.5 7.1,13.7 7.1,11.9 C7.1,8.8 8.3,5.9 10.2,4.1 C11.2,4.7 12.9,5 14.5,5 C16.2,5 18,4.7 19,4 C21,5.9 22.2,8.8 22.2,11.9 C22.2,13.6 21.8,15.2 21.1,16.5 L21.1,16.6 C20.9,17 20.7,17.3 20.4,17.6 L20.3,17.7 C19.5,18.9 19.2,19.6 19,20 C16.2,21.1 13,21.1 10.1,20 C10,19.6 9.7,19 8.9,17.7 L8.9,17.7 Z" id="Shape"/>
                    <path d="M25.6,24.4 C19.9,24.4 15.3,29 15.3,34.7 C15.3,40.4 19.9,45 25.6,45 C31.3,45 35.9,40.4 35.9,34.7 C35.9,29 31.2,24.4 25.6,24.4 L25.6,24.4 Z M31.4,32.6 L24.9,39.5 C24.6,39.8 24.2,39.8 23.9,39.5 L19.8,35.5 C19.7,35.4 19.6,35.1 19.8,35 L22,32.3 C22.1,32.2 22.4,32.1 22.5,32.3 L24.1,34 L24.2,34 L28.3,29.7 C28.4,29.6 28.7,29.5 28.8,29.7 L31.4,32.1 C31.5,32.2 31.5,32.4 31.4,32.6 L31.4,32.6 Z" id="Shape"/>
                </g>
            </g>
        </g>
    </g>
</svg>