<?xml version="1.0" encoding="utf-8"?>
<!-- Generator: Adobe Illustrator 18.0.0, SVG Export Plug-In . SVG Version: 6.00 Build 0)  -->
<!DOCTYPE svg PUBLIC "-//W3C//DTD SVG 1.1//EN" "http://www.w3.org/Graphics/SVG/1.1/DTD/svg11.dtd">
<svg version="1.1" id="Layer_1" xmlns="http://www.w3.org/2000/svg" xmlns:xlink="http://www.w3.org/1999/xlink" x="0px" y="0px"
	 viewBox="0 0 65 65" enable-background="new 0 0 65 65" xml:space="preserve">
<path fill="#3555A6" d="M34.5,64.7c-6.8,0-13.7-1.8-13.7-5.3S27.7,54,34.5,54c6.8,0,13.7,1.8,13.7,5.3S41.3,64.7,34.5,64.7z
	 M34.5,56c-7,0-11.7,2-11.7,3.3s4.7,3.3,11.7,3.3c7,0,11.7-2,11.7-3.3S41.5,56,34.5,56z"/>
<path fill="#3555A6" d="M48.1,43.3c0-5.2-2.7-8.3-8-9.4c-0.1-0.6-0.3-1.2-0.4-1.4c-0.1-0.3-0.6-3.2-0.6-3.9c0-0.8,0.2-2.5,0.4-3.2
	c0.1-0.2,0.3-0.6,0.5-1c0.3-0.6,0.7-1.1,0.8-1.6c0.1-0.4,0.1-0.8,0-1.2c0-0.2,0-0.5,0-0.6c0-0.1,0.2-0.6,1.1-2
	c0.3-0.4,0.6-0.8,0.8-1.2l0.1-0.1c0.9-1.6,1.3-3.4,1.3-5.5c0-3.6-1.4-7.1-3.8-9.3c-0.2-1.7-3-2.5-5.8-2.5c-2.8,0-5.6,0.8-5.8,2.5
	C26.4,4.9,25,8.3,25,11.9c0,2.7,1,4.9,1.3,5.5c0.2,0.4,0.6,1,0.9,1.3c0.9,1.4,1.1,1.9,1.1,2c0,0.1,0,0.4,0,0.6c0,0.4-0.1,0.9,0,1.2
	c0.1,0.5,0.5,1.1,0.8,1.6c0.2,0.3,0.5,0.8,0.5,1c0.2,0.7,0.4,2.4,0.4,3.2c0,0.7-0.5,3.6-0.6,3.8c-0.1,0.3-0.3,0.9-0.5,1.5
	c-5.3,1-8,4.2-8,9.9c0,3.6,6.8,5.4,13.6,5.4s13.6-1.9,13.6-5.4C48.2,43.6,48.2,43.4,48.1,43.3z M30.1,2.8c0-0.4,1.5-1.2,4.3-1.2
	c2.9,0,4.3,0.8,4.3,1.2S37.3,4,34.5,4C31.6,4,30.1,3.2,30.1,2.8z M28.9,17.7L28.9,17.7c-0.3-0.4-0.6-0.9-0.7-1.1
	c-0.5-1.1-1.1-2.9-1.1-4.7c0-3.1,1.2-6,3.1-7.8c1,0.6,2.7,0.9,4.3,0.9c1.7,0,3.5-0.3,4.5-1c2,1.9,3.2,4.8,3.2,7.9
	c0,1.7-0.4,3.3-1.1,4.6l0,0.1c-0.2,0.4-0.4,0.7-0.7,1l-0.1,0.1c-0.8,1.2-1.1,1.9-1.3,2.3c-2.8,1.1-6,1.1-8.9,0
	C30,19.6,29.7,19,28.9,17.7z M31.6,24.7c0-0.1-0.1-0.2-0.1-0.3c1,0.2,2.1,0.3,3.2,0.3c1.1,0,2.1-0.1,3.2-0.3c0,0.1-0.1,0.2-0.1,0.3
	c-0.3,1-0.5,2.9-0.5,3.9c0,0.8,0.6,4.1,0.8,4.5c0.1,0.3,0.5,1.8,0.7,3.2c-0.3,0.3-1.7,0.9-4,0.9c-2.4,0-3.8-0.6-4-0.9
	c0-1.3,0.6-2.7,0.8-3.2c0.2-0.4,0.7-3.7,0.7-4.5C32.1,27.6,31.9,25.7,31.6,24.7z M38.3,23.3c-2.4,0.5-5.1,0.5-7.5,0
	c-0.2-0.4-0.5-0.9-0.6-1.1c0-0.1,0-0.4,0-0.6c0-0.2,0-0.4,0-0.5c1.4,0.4,2.8,0.7,4.2,0.7c1.5,0,2.9-0.2,4.2-0.7c0,0.2,0,0.4,0,0.5
	c0,0.2,0,0.5,0,0.6C38.9,22.5,38.6,23,38.3,23.3z M28.6,36c0,0.1,0,0.3,0,0.4c0,2,3,2.8,6,2.8c3,0,6-0.9,6-2.8l0-0.2
	c0,0,0-0.1,0-0.1c1.9,0.5,3.3,1.3,4.2,2.6c-0.6,1.5-4.6,2.9-10.2,2.9c-5.6,0-9.6-1.5-10.2-3C25.3,37.3,26.7,36.5,28.6,36z
	 M34.6,47.2c-7.1,0-11.6-2-11.6-3.4c0-1.7,0.3-3,0.8-4.2c1.5,1.9,6.3,3,10.8,3c4.5,0,9.3-1,10.8-3c0.5,1,0.7,2.3,0.7,3.8l0,0.2
	c0,0,0,0.1,0,0.1C46.2,45.1,41.7,47.2,34.6,47.2z"/>
<path fill="none" stroke="#3555A6" stroke-miterlimit="10" d="M26.6,15"/>
<polygon fill="#3555A6" points="33.1,61.8 29.9,59.5 31,57.9 33.1,59.4 37.8,56.4 38.9,58.1 "/>
</svg>
